<svg width="25" height="24" viewBox="0 0 25 24" fill="none" xmlns="http://www.w3.org/2000/svg">
<path d="M18.588 16.8638C18.0434 16.9553 17.676 17.471 17.7675 18.0157C17.859 18.5603 18.3747 18.9277 18.9194 18.8362L18.588 16.8638ZM17.5152 11.3824C16.9629 11.3824 16.5152 11.8301 16.5152 12.3824C16.5152 12.9347 16.9629 13.3824 17.5152 13.3824V11.3824ZM16.5924 10.2827C18.0684 10.2827 19.2646 9.0858 19.2646 7.60999H17.2646C17.2646 7.98176 16.9633 8.28265 16.5924 8.28265V10.2827ZM13.9202 7.60999C13.9202 9.0858 15.1163 10.2827 16.5924 10.2827V8.28265C16.2214 8.28265 15.9202 7.98176 15.9202 7.60999H13.9202ZM16.5924 4.93734C15.1163 4.93734 13.9202 6.13419 13.9202 7.60999H15.9202C15.9202 7.23823 16.2214 6.93734 16.5924 6.93734V4.93734ZM19.2646 7.60999C19.2646 6.13419 18.0684 4.93734 16.5924 4.93734V6.93734C16.9633 6.93734 17.2646 7.23823 17.2646 7.60999H19.2646ZM20.5 15.1641C20.5 15.5763 20.3701 15.9126 20.1161 16.1792C19.8531 16.4551 19.3849 16.73 18.588 16.8638L18.9194 18.8362C20.024 18.6506 20.929 18.225 21.5638 17.5591C22.2075 16.8838 22.5 16.0369 22.5 15.1641H20.5ZM17.5152 13.3824C18.4362 13.3824 19.2269 13.6446 19.7605 14.0171C20.2974 14.3919 20.5 14.8131 20.5 15.1641H22.5C22.5 13.9788 21.8105 13.0091 20.9053 12.3771C19.9967 11.7429 18.795 11.3824 17.5152 11.3824V13.3824ZM10.7625 7.42936C10.7625 8.46511 10.0838 9.03069 9.39183 9.03069V11.0307C11.3184 11.0307 12.7625 9.43497 12.7625 7.42936H10.7625ZM9.39183 9.03069C8.69984 9.03069 8.02113 8.46511 8.02113 7.42936H6.02113C6.02113 9.43497 7.46521 11.0307 9.39183 11.0307V9.03069ZM8.02113 7.42936C8.02113 6.91225 8.19567 6.57237 8.4127 6.36129C8.6359 6.14421 8.9696 6 9.39183 6V4C8.50476 4 7.65311 4.31013 7.01827 4.92756C6.37728 5.55099 6.02113 6.42578 6.02113 7.42936H8.02113ZM9.39183 6C9.81406 6 10.1478 6.14421 10.371 6.36129C10.588 6.57237 10.7625 6.91225 10.7625 7.42936H12.7625C12.7625 6.42578 12.4064 5.55099 11.7654 4.92756C11.1306 4.31013 10.2789 4 9.39183 4V6ZM14.5703 16.1679C14.5703 16.4806 14.4159 16.8937 13.6677 17.2838C12.8865 17.6911 11.5606 18 9.53513 18L9.53513 20C11.716 20 13.4076 19.6749 14.5924 19.0572C15.8103 18.4222 16.5703 17.4193 16.5703 16.1679H14.5703ZM9.53513 18C7.50965 18 6.18372 17.6911 5.40252 17.2838C4.6544 16.8937 4.5 16.4806 4.5 16.1679H2.5C2.5 17.4193 3.26001 18.4222 4.47789 19.0572C5.66268 19.6749 7.35432 20 9.53513 20L9.53513 18ZM4.5 16.1679C4.5 16.0022 4.68138 15.545 5.69247 15.0705C6.62422 14.6333 7.98172 14.3357 9.53513 14.3357V12.3357C7.75544 12.3357 6.09537 12.6722 4.84283 13.26C3.66963 13.8105 2.5 14.7695 2.5 16.1679H4.5ZM9.53513 14.3357C11.0886 14.3357 12.4461 14.6333 13.3778 15.0705C14.3889 15.545 14.5703 16.0022 14.5703 16.1679H16.5703C16.5703 14.7695 15.4006 13.8105 14.2274 13.26C12.9749 12.6722 11.3148 12.3357 9.53513 12.3357V14.3357Z" fill="white"/>
</svg>
