<svg width="64" height="64" viewBox="0 0 64 64" fill="none" xmlns="http://www.w3.org/2000/svg">
<path d="M0 32C0 14.3269 14.3269 0 32 0C49.6731 0 64 14.3269 64 32C64 49.6731 49.6731 64 32 64C14.3269 64 0 49.6731 0 32Z" fill="#57B1B1" fill-opacity="0.5"/>
<path d="M25.5 28.9143H39.5M27.3095 23V24.543M37.5 23V24.5428M37.5 24.5428H27.5C25.8431 24.5428 24.5 25.9244 24.5 27.6285V37.9143C24.5 39.6185 25.8431 41 27.5 41H37.5C39.1569 41 40.5 39.6185 40.5 37.9143L40.5 27.6285C40.5 25.9244 39.1569 24.5428 37.5 24.5428ZM35 34.5714H30" stroke="#57B1B1" stroke-width="2" stroke-linecap="round" stroke-linejoin="round"/>
</svg>
