<svg width="150" height="150" viewBox="0 0 150 150" fill="none" xmlns="http://www.w3.org/2000/svg">
<g clip-path="url(#clip0_7013_47722)">
<path d="M25.375 30.926V113.454L148.005 112.635L146.24 17.9062H102.003L91.8783 29.456L25.375 30.926Z" fill="#792430"/>
<path d="M5.35748 64.8672H124.837C124.837 64.8672 125.971 84.3338 134.016 95.7576C142.061 107.181 148.006 114.258 148.006 114.258L13.9907 113.46C13.9907 113.46 3.04688 101.07 3.04688 87.7147C3.04688 74.359 5.35748 64.8672 5.35748 64.8672Z" fill="white"/>
<path d="M70.2233 129.393C84.3069 129.393 95.7239 117.979 95.7239 103.9C95.7239 89.8201 84.3069 78.4062 70.2233 78.4062C56.1397 78.4062 44.7227 89.8201 44.7227 103.9C44.7227 117.979 56.1397 129.393 70.2233 129.393Z" fill="white"/>
<path d="M96.123 115.245C97.8454 116.967 99.3578 118.521 100.891 120.054C102.131 121.272 103.265 122.448 102.32 124.401C102.215 124.611 102.614 125.157 102.908 125.43C106.815 129.336 110.743 133.221 114.65 137.127C117.296 139.773 117.906 143.154 116.33 146.114C114.104 150.335 108.495 151.385 105.05 148.109C100.87 144.119 96.8162 139.983 92.7201 135.909C92.174 135.363 91.7538 134.943 90.8506 135.384C89.7793 135.888 88.8131 135.3 88.0359 134.523C86.3975 132.885 84.738 131.247 83.1416 129.567C82.5955 128.979 82.1544 128.958 81.4402 129.252C68.0597 134.796 53.3349 129.903 46.151 117.324C45.1427 115.581 44.1765 115.161 42.328 115.182C34.1359 115.287 25.9437 115.224 17.7516 115.245C14.6428 115.245 12.2272 114.027 10.3787 111.444C5.29536 104.325 2.69068 96.2824 1.13627 87.7986C0.23304 82.8217 -0.166064 77.8028 0.0860017 72.7629C0.170024 71.062 0.338067 69.34 0.737171 67.702C1.64041 64.0271 4.7072 61.6751 8.48819 61.6331C12.3952 61.5911 16.2812 61.6121 20.1882 61.6121C20.5243 61.6121 20.8814 61.6121 21.4276 61.6121C21.4276 60.1422 21.4276 58.7562 21.4276 57.3912C21.4276 50.2094 21.4276 43.0275 21.4065 35.8457C21.4065 32.8847 22.2678 30.3228 24.6834 28.4538C26.3638 27.1518 28.3173 26.7948 30.3759 26.7738C31.8043 26.7528 33.2326 26.7738 34.829 26.7738C34.829 25.8919 34.787 25.1569 34.829 24.4219C34.9341 22.6789 36.1104 21.4399 37.5598 21.4609C39.0721 21.4819 40.1014 22.6789 40.1854 24.4849C40.2064 25.1779 40.1854 25.8709 40.1854 26.6688C40.6055 26.7108 40.9416 26.7738 41.2777 26.7738C54.1121 26.7738 66.9464 26.7738 79.7807 26.7738C83.0576 26.7738 86.3554 26.6898 89.6323 26.8158C91.5858 26.8788 92.8251 26.1439 93.7494 24.4429C95.0307 22.0489 96.5221 19.781 97.9084 17.45C99.5259 14.7831 101.899 13.4811 105.008 13.5021C107.991 13.5231 110.974 13.5021 114.44 13.5021C112.402 12.4101 112.549 10.8142 112.549 9.23919C112.57 6.23625 111.73 5.39627 108.726 5.39627C108.117 5.39627 107.508 5.41727 106.878 5.39627C105.575 5.31227 104.546 4.22029 104.483 2.87632C104.42 1.63734 105.323 0.272371 106.521 0.188373C108.222 0.0833749 109.987 -0.0426226 111.604 0.31437C115.448 1.15435 117.822 4.36729 117.885 8.33621C117.885 8.8192 117.885 9.30219 117.885 9.78518C117.885 11.8431 117.822 11.9691 116.183 13.5021C116.813 13.5021 117.275 13.5021 117.717 13.5021C125.699 13.5021 133.66 13.4811 141.642 13.5021C145.696 13.5231 148.49 15.5391 149.687 19.361C149.939 20.18 149.981 21.083 149.981 21.9439C150.002 43.8465 150.002 65.7491 150.002 87.6516C150.002 95.6315 150.002 103.59 150.002 111.57C150.002 114.363 149.12 115.224 146.284 115.224C130.068 115.245 113.852 115.266 97.6564 115.287C97.2153 115.245 96.7952 115.245 96.123 115.245ZM116.141 61.5911C117.57 61.5911 119.019 61.5701 120.447 61.5911C125.09 61.6961 128.156 64.4891 128.702 69.13C128.849 70.306 128.87 71.5029 129.039 72.6579C130.446 81.9607 133.555 90.6546 138.764 98.5084C140.466 101.07 142.461 103.443 144.331 105.879C144.436 105.816 144.562 105.774 144.667 105.711C144.667 105.291 144.667 104.871 144.667 104.451C144.667 99.8944 144.667 95.3375 144.667 90.7806C144.667 67.996 144.667 45.2115 144.667 22.4269C144.667 19.718 143.721 18.752 141.075 18.752C129.333 18.752 117.591 18.752 105.849 18.71C104.063 18.71 102.887 19.319 102.026 20.894C100.807 23.1199 99.3998 25.2409 98.1395 27.4458C96.291 30.6588 93.6023 32.1707 89.8424 32.1707C73.8572 32.1077 57.851 32.1497 41.8659 32.1497C41.3407 32.1497 40.8366 32.1497 40.1854 32.1497C40.1854 33.0737 40.2274 33.8507 40.1854 34.6277C40.0804 36.3916 39.0721 37.4416 37.5387 37.4206C35.9843 37.4206 34.9971 36.3706 34.8711 34.6067C34.829 33.8297 34.8711 33.0527 34.8711 32.1287C33.3587 32.1287 31.9723 32.1287 30.5859 32.1287C27.6872 32.1287 26.91 32.9057 26.91 35.7617C26.91 43.9095 26.91 52.0573 26.91 60.2052C26.91 60.6252 26.952 61.0452 26.973 61.4861C30.2498 61.4861 33.4007 61.4861 36.2364 61.4861C35.8163 60.6462 34.9971 59.7432 34.9551 58.8192C34.808 55.2703 34.85 51.7213 34.9341 48.1724C34.9551 47.5424 35.3122 46.8074 35.7533 46.3244C36.4255 45.5685 37.3917 45.2535 38.4 45.6735C39.4712 46.1355 40.1854 46.9124 40.1854 48.1934C40.1854 51.3433 40.1644 54.4933 40.2274 57.6642C40.2484 59.2392 40.1644 60.7092 38.1689 61.4651C63.7746 61.4651 89.0651 61.4651 114.776 61.4651C113.011 60.8352 112.591 59.7432 112.591 58.4202C112.57 55.0813 112.507 51.7633 112.633 48.4244C112.654 47.6054 113.2 46.6814 113.768 46.0725C114.461 45.3585 115.49 45.3165 116.456 45.8205C117.57 46.3874 117.969 47.3744 117.99 48.5294C118.011 51.7633 117.99 55.0183 118.011 58.2522C117.927 59.7012 117.465 60.7932 116.141 61.5911ZM43.0632 109.827C41.2147 100.839 42.8741 92.7755 48.5246 85.7617C54.1961 78.7268 61.695 75.1359 70.7274 75.1989C78.4574 75.2619 85.2211 78.0548 90.5985 83.6617C97.6144 90.9906 99.925 99.7474 97.9925 109.68C112.171 109.68 126.287 109.68 140.571 109.68C140.024 109.029 139.625 108.525 139.205 108.021C138.764 107.475 138.281 106.971 137.84 106.425C129.501 95.7155 124.648 83.6197 123.388 70.096C123.178 67.786 122.359 67.03 120.027 67.009C116.792 66.988 113.537 66.967 110.302 66.967C81.3771 66.967 52.4736 66.967 23.5491 66.967C18.7809 66.967 13.9916 66.967 9.22338 66.967C6.80775 66.967 6.00954 67.66 5.69446 70.054C5.50541 71.4819 5.27435 72.9309 5.35837 74.3589C5.61044 78.4118 5.79949 82.4857 6.42965 86.4966C7.60596 94.1825 9.97958 101.469 14.4747 107.937C15.357 109.218 16.3862 109.806 17.9617 109.806C25.3556 109.764 32.7705 109.785 40.1644 109.785C41.0467 109.827 41.9079 109.827 43.0632 109.827ZM93.2452 103.359C93.2662 90.7386 83.1416 80.5958 70.4753 80.5328C58.0191 80.4698 47.7684 90.6756 47.6844 103.233C47.6004 115.749 57.767 126.018 70.3073 126.081C83.0366 126.144 93.2242 116.085 93.2452 103.359ZM98.4966 128.349C97.4463 129.441 96.6061 130.323 95.7449 131.247C95.8499 131.373 95.9549 131.562 96.102 131.709C100.093 135.699 104.084 139.71 108.096 143.699C108.369 143.972 108.726 144.35 109.041 144.35C109.777 144.35 110.806 144.392 111.163 143.972C111.562 143.468 111.478 142.482 111.415 141.705C111.373 141.348 110.911 141.033 110.596 140.718C107.571 137.673 104.525 134.649 101.5 131.604C100.471 130.575 99.5259 129.483 98.4966 128.349ZM95.9549 123.183C95.0307 122.133 94.1485 121.125 93.5603 120.495C91.5648 122.511 89.6323 124.485 87.7838 126.354C88.393 126.963 89.3172 127.908 90.2415 128.832C92.174 126.921 94.1275 124.989 95.9549 123.183Z" fill="#FF4713"/>
<path d="M34.8088 8.98623C34.4517 4.15633 37.6235 0.964393 40.8584 0.313406C42.5808 -0.0435866 44.4293 0.0404117 46.1938 0.14541C47.4541 0.229408 48.3153 1.63638 48.1893 2.95935C48.0633 4.21933 47.055 5.26931 45.7947 5.33231C44.8284 5.37431 43.8622 5.31131 42.9169 5.35331C41.2785 5.4373 40.3333 6.38228 40.2492 7.99925C40.2072 8.81824 40.2702 9.65822 40.2282 10.4982C40.1442 12.2412 39.0099 13.4381 37.4975 13.4171C35.9641 13.3961 34.8928 12.1992 34.8298 10.4352C34.8088 9.95221 34.8088 9.46922 34.8088 8.98623Z" fill="#FF4713"/>
<path d="M64.111 5.32874C62.3676 5.32874 60.6241 5.34973 58.8597 5.32874C57.4103 5.30774 56.381 4.34175 56.297 2.91378C56.192 1.44381 57.1372 0.120839 58.5866 0.0788398C62.4306 -0.00515849 66.2746 0.0158411 70.1186 0.0788398C71.3579 0.0998394 72.3662 1.44381 72.3452 2.74579C72.3242 4.08976 71.2319 5.28674 69.8665 5.32874C67.955 5.37073 66.0225 5.32874 64.111 5.32874Z" fill="#FF4713"/>
<path d="M88.4989 5.33121C86.6924 5.33121 84.907 5.35221 83.1005 5.33121C81.5251 5.31021 80.3908 4.26023 80.3488 2.76926C80.3068 1.34129 81.4411 0.0603115 82.9745 0.0393119C86.6084 -0.00268729 90.2424 -0.00268729 93.8763 0.0393119C95.4097 0.0603115 96.46 1.29929 96.397 2.81126C96.3339 4.26023 95.2627 5.28921 93.7503 5.31021C92.0068 5.33121 90.2424 5.33121 88.4989 5.33121Z" fill="#FF4713"/>
<path d="M12.0577 9.36523C12.0577 8.84024 12.0157 8.31525 12.0577 7.79026C12.2048 6.38329 13.192 5.41731 14.5154 5.33331C15.8597 5.24931 17.1411 6.19429 17.3091 7.58026C17.4561 8.73524 17.4561 9.95322 17.3091 11.1082C17.1621 12.4522 15.9227 13.3971 14.6624 13.3971C13.2971 13.3971 12.2258 12.3892 12.0577 10.9402C12.0367 10.4362 12.0787 9.89022 12.0577 9.36523C12.0787 9.36523 12.0787 9.36523 12.0577 9.36523Z" fill="#FF4713"/>
<path d="M17.4798 22.7574C17.4167 23.4503 17.4167 24.1643 17.2487 24.8153C16.9126 26.1383 15.8833 26.8103 14.518 26.7263C13.2157 26.6633 12.2284 25.7813 12.1024 24.4373C11.9973 23.3664 12.0183 22.2534 12.1024 21.1824C12.2284 19.7124 13.2997 18.7464 14.665 18.7044C16.0094 18.6624 17.1647 19.6284 17.3747 21.0354C17.4588 21.5814 17.3957 22.1694 17.3957 22.7364C17.4167 22.7574 17.4588 22.7574 17.4798 22.7574Z" fill="#FF4713"/>
<path d="M140.676 137.904C140.633 138.471 140.633 139.038 140.549 139.605C140.36 141.012 139.205 142.02 137.882 141.999C136.495 141.978 135.34 140.886 135.235 139.416C135.172 138.513 135.193 137.589 135.235 136.665C135.298 135.09 136.369 133.956 137.819 133.893C139.289 133.83 140.402 134.838 140.57 136.455C140.612 136.938 140.57 137.421 140.57 137.883C140.633 137.904 140.654 137.904 140.676 137.904Z" fill="#FF4713"/>
<path d="M135.257 124.542C135.257 124.059 135.215 123.576 135.257 123.093C135.383 121.623 136.517 120.531 137.904 120.531C139.206 120.531 140.403 121.539 140.55 122.946C140.655 123.975 140.655 125.046 140.571 126.075C140.445 127.545 139.227 128.616 137.862 128.574C136.475 128.532 135.383 127.482 135.257 125.97C135.236 125.487 135.257 125.004 135.257 124.542Z" fill="#FF4713"/>
<path d="M131.139 133.912C130.698 133.912 130.257 133.933 129.815 133.912C128.345 133.87 127.274 132.799 127.232 131.329C127.19 129.943 128.198 128.746 129.584 128.641C130.677 128.557 131.769 128.578 132.861 128.641C134.269 128.725 135.235 129.859 135.256 131.287C135.256 132.673 134.227 133.828 132.84 133.912C132.273 133.933 131.706 133.912 131.139 133.912Z" fill="#FF4713"/>
<path d="M21.3214 18.6851C20.7543 18.6851 20.1661 18.7481 19.62 18.6641C18.2967 18.4541 17.3934 17.2991 17.4144 15.9761C17.4564 14.6322 18.4227 13.5612 19.767 13.4562C20.7753 13.3722 21.7836 13.3932 22.7918 13.4352C24.3042 13.4982 25.3545 14.5902 25.3755 16.0181C25.3965 17.4671 24.3882 18.5801 22.8758 18.7061C22.3507 18.7481 21.8256 18.7061 21.3004 18.7061C21.3214 18.7061 21.3214 18.7061 21.3214 18.6851Z" fill="#FF4713"/>
<path d="M144.644 133.915C144.161 133.915 143.677 133.936 143.194 133.915C141.703 133.873 140.674 132.802 140.653 131.311C140.632 129.904 141.598 128.749 143.005 128.644C144.056 128.56 145.106 128.56 146.156 128.623C147.669 128.707 148.74 129.946 148.656 131.437C148.572 132.844 147.479 133.873 145.967 133.915C145.526 133.915 145.085 133.894 144.644 133.915Z" fill="#FF4713"/>
<path d="M7.89953 18.7299C7.45842 18.7299 7.0173 18.7509 6.57619 18.7299C5.10581 18.6459 4.03453 17.5329 3.99252 16.1049C3.97151 14.7399 4.95877 13.585 6.38714 13.48C7.43741 13.396 8.48769 13.396 9.53796 13.459C10.9453 13.543 11.9746 14.6769 11.9956 16.0629C12.0166 17.3649 11.0714 18.5199 9.72701 18.7089C9.11785 18.7929 8.50869 18.7299 7.89953 18.7299Z" fill="#FF4713"/>
<path d="M117.907 29.5428C117.907 31.2018 117.928 32.8608 117.907 34.5407C117.865 36.2417 116.836 37.3547 115.282 37.4177C113.769 37.4807 112.593 36.4517 112.551 34.6877C112.467 31.1808 112.446 27.6739 112.53 24.1879C112.572 22.529 113.706 21.5 115.177 21.5C116.668 21.5 117.823 22.592 117.886 24.2929C117.949 26.0359 117.886 27.7789 117.907 29.5428Z" fill="#FF4713"/>
<path d="M70.5166 106.783C67.3027 110.101 64.383 113.104 61.4422 116.128C61.0851 116.506 60.707 116.884 60.2659 117.178C59.2156 117.871 57.8713 117.682 57.0101 116.8C56.1698 115.939 56.0018 114.553 56.674 113.545C56.989 113.083 57.3882 112.663 57.8083 112.264C60.749 109.345 63.7108 106.426 66.7356 103.444C64.383 101.092 62.1774 98.8664 59.9508 96.6405C59.0266 95.7165 58.0813 94.7925 57.1571 93.8475C56.0018 92.6506 55.9178 91.0336 56.905 89.9626C57.9763 88.8076 59.6147 88.7866 60.8751 90.0046C63.9208 92.9656 66.9036 95.9895 69.9074 98.9924C70.0544 99.1394 70.2225 99.2864 70.6636 99.6854C71.6509 98.5725 72.6171 97.4385 73.6464 96.3675C75.7259 94.2465 77.8475 92.1466 79.969 90.0676C81.2294 88.8286 82.8468 88.7866 83.9391 89.8786C85.0313 90.9496 84.9893 92.5876 83.729 93.8475C80.9563 96.6405 78.1626 99.4124 75.3478 102.184C75.0117 102.52 74.5916 102.793 74.1295 103.171C74.6126 103.675 74.9277 104.032 75.2428 104.368C78.0785 107.224 80.9353 110.059 83.771 112.936C84.9893 114.175 85.0103 115.687 83.918 116.8C82.8678 117.871 81.2924 117.85 80.032 116.737C79.843 116.569 79.6539 116.38 79.4649 116.191C76.7972 113.545 74.1295 110.878 71.4618 108.211C71.2518 107.896 71.0207 107.497 70.5166 106.783Z" fill="#FF4713"/>
</g>
<defs>
<clipPath id="clip0_7013_47722">
<rect width="150" height="150" fill="white"/>
</clipPath>
</defs>
</svg>
