<svg width="64" height="64" viewBox="0 0 64 64" fill="none" xmlns="http://www.w3.org/2000/svg">
<path d="M0 32C0 14.3269 14.3269 0 32 0C49.6731 0 64 14.3269 64 32C64 49.6731 49.6731 64 32 64C14.3269 64 0 49.6731 0 32Z" fill="#57B1B1" fill-opacity="0.5"/>
<path d="M22.9654 33.7241C27.5013 33.7241 33.7381 34.2911 34.305 30.3222M34.305 30.3222H30.9032M34.305 30.3222V34.3984M34.2277 22.3984V24.8454M41.5984 29.7692H39.1515M39.3305 24.6664L37.7069 26.2873M29.5984 22.7009C25.4579 23.7666 22.3984 27.5252 22.3984 31.9984C22.3984 37.3004 26.6965 41.5984 31.9984 41.5984C36.6851 41.5984 40.5874 38.24 41.43 33.7984" stroke="#57B1B1" stroke-width="2" stroke-linecap="round" stroke-linejoin="round"/>
</svg>
