<svg width="65" height="65" viewBox="0 0 65 65" fill="none" xmlns="http://www.w3.org/2000/svg">
<path d="M0.5 32.1172C0.5 14.4441 14.8269 0.117188 32.5 0.117188C50.1731 0.117188 64.5 14.4441 64.5 32.1172C64.5 49.7903 50.1731 64.1172 32.5 64.1172C14.8269 64.1172 0.5 49.7903 0.5 32.1172Z" fill="#57B1B1"/>
<path d="M24.5 34.6172V32.2879C24.5 31.1564 25.3954 30.2391 26.5 30.2391M24.5 34.6172C24.5 35.7487 25.3954 36.666 26.5 36.666H38.5C39.6046 36.666 40.5 35.7487 40.5 34.6172M24.5 34.6172V37.7513C24.5 38.5057 25.097 39.1172 25.8333 39.1172H27.1667C27.903 39.1172 28.5 38.5057 28.5 37.7513V36.666M40.5 34.6172V32.2879C40.5 31.1564 39.6046 30.2391 38.5 30.2391H26.5M40.5 34.6172V37.7513C40.5 38.5057 39.903 39.1172 39.1667 39.1172H37.8333C37.097 39.1172 36.5 38.5057 36.5 37.7513V36.666M26.5 30.2391L27.5694 26.1311C27.725 25.5332 28.2536 25.1172 28.8577 25.1172H36.2057C36.7796 25.1172 37.2891 25.4934 37.4706 26.0511L38.8333 30.2391M26.8333 33.3123H29.1667M35.8333 33.3123H38.1667" stroke="white" stroke-width="1.5" stroke-linecap="round" stroke-linejoin="round"/>
</svg>
