<svg width="40" height="41" viewBox="0 0 40 41" fill="none" xmlns="http://www.w3.org/2000/svg">
<path d="M0 20.5C0 9.45431 8.95431 0.5 20 0.5C31.0457 0.5 40 9.45431 40 20.5C40 31.5457 31.0457 40.5 20 40.5C8.95431 40.5 0 31.5457 0 20.5Z" fill="#57B1B1"/>
<path d="M12 23V20.6707C12 19.5392 12.8954 18.622 14 18.622M12 23C12 24.1315 12.8954 25.0488 14 25.0488H26C27.1046 25.0488 28 24.1315 28 23M12 23V26.1341C12 26.8885 12.597 27.5 13.3333 27.5H14.6667C15.403 27.5 16 26.8885 16 26.1341V25.0488M28 23V20.6707C28 19.5392 27.1046 18.622 26 18.622H14M28 23V26.1341C28 26.8885 27.403 27.5 26.6667 27.5H25.3333C24.597 27.5 24 26.8885 24 26.1341V25.0488M14 18.622L15.0694 14.5139C15.225 13.916 15.7536 13.5 16.3577 13.5H23.7057C24.2796 13.5 24.7891 13.8762 24.9706 14.4339L26.3333 18.622M14.3333 21.6951H16.6667M23.3333 21.6951H25.6667" stroke="white" stroke-width="1.5" stroke-linecap="round" stroke-linejoin="round"/>
</svg>
