<svg width="64" height="64" viewBox="0 0 64 64" fill="none" xmlns="http://www.w3.org/2000/svg">
<path d="M0 32C0 14.3269 14.3269 0 32 0C49.6731 0 64 14.3269 64 32C64 49.6731 49.6731 64 32 64C14.3269 64 0 49.6731 0 32Z" fill="#DE8F9A"/>
<path d="M29.0656 40.1685C29.6179 40.1685 30.0656 39.7208 30.0656 39.1685C30.0656 38.6162 29.6179 38.1685 29.0656 38.1685V40.1685ZM24.2662 35.9686L23.2662 35.9687L24.2662 35.9686ZM25.2656 22.3984C25.2656 21.8461 24.8179 21.3984 24.2656 21.3984C23.7133 21.3985 23.2656 21.8462 23.2656 22.3985L25.2656 22.3984ZM29.0656 28.3153C29.6179 28.3153 30.0656 27.8676 30.0656 27.3153C30.0656 26.763 29.6179 26.3153 29.0656 26.3153V28.3153ZM38.6656 29.8651L38.6656 28.8651L38.6656 29.8651ZM33.8656 29.8651L33.8656 30.8651H33.8656L33.8656 29.8651ZM39.7325 22.3984L40.7325 22.3985C40.7325 22.1332 40.6271 21.8789 40.4396 21.6913C40.252 21.5038 39.9977 21.3984 39.7325 21.3984V22.3984ZM39.7323 28.7985L40.7323 28.7985V28.7985L39.7323 28.7985ZM32.799 28.7984L31.799 28.7984V28.7984L32.799 28.7984ZM32.799 24.5318L32.1346 23.7844C31.9211 23.9741 31.799 24.2461 31.799 24.5318L32.799 24.5318ZM35.199 22.3984V21.3984C34.954 21.3984 34.7176 21.4883 34.5346 21.651L35.199 22.3984ZM38.6656 41.5984L38.6656 40.5984L38.6656 41.5984ZM33.8656 41.5984L33.8656 42.5984L33.8656 41.5984ZM39.7325 34.1318L40.7325 34.1318C40.7325 33.8666 40.6271 33.6122 40.4396 33.4247C40.252 33.2371 39.9977 33.1318 39.7325 33.1318V34.1318ZM39.7323 40.5318L40.7323 40.5318V40.5318L39.7323 40.5318ZM32.799 40.5317L31.799 40.5317V40.5317L32.799 40.5317ZM32.799 36.2651L32.1346 35.5177C31.9211 35.7075 31.799 35.9795 31.799 36.2651L32.799 36.2651ZM35.199 34.1318V33.1318C34.954 33.1318 34.7176 33.2216 34.5346 33.3844L35.199 34.1318ZM29.0656 38.1685H27.4662V40.1685H29.0656V38.1685ZM25.2662 35.9686L25.2658 27.3153L23.2658 27.3153L23.2662 35.9687L25.2662 35.9686ZM25.2658 27.3153L25.2656 22.3984L23.2656 22.3985L23.2658 27.3153L25.2658 27.3153ZM29.0656 26.3153H24.2658V28.3153H29.0656V26.3153ZM27.4662 38.1685C26.2512 38.1685 25.2663 37.1836 25.2662 35.9686L23.2662 35.9687C23.2663 38.2882 25.1467 40.1685 27.4662 40.1685V38.1685ZM38.6656 28.8651L33.8656 28.8651L33.8656 30.8651L38.6656 30.8651L38.6656 28.8651ZM38.7325 22.3984L38.7323 28.7984L40.7323 28.7985L40.7325 22.3985L38.7325 22.3984ZM38.6656 30.8651C39.807 30.8651 40.7323 29.9399 40.7323 28.7985L38.7323 28.7984C38.7323 28.8353 38.7025 28.8651 38.6656 28.8651L38.6656 30.8651ZM31.799 28.7984C31.799 29.9398 32.7242 30.8651 33.8656 30.8651L33.8656 28.8651C33.8288 28.8651 33.799 28.8352 33.799 28.7984L31.799 28.7984ZM33.799 28.7984L33.799 24.5318L31.799 24.5318L31.799 28.7984L33.799 28.7984ZM35.199 23.3984H39.7325V21.3984H35.199V23.3984ZM34.5346 21.651L32.1346 23.7844L33.4634 25.2792L35.8633 23.1458L34.5346 21.651ZM38.6656 40.5984L33.8656 40.5984L33.8656 42.5984L38.6656 42.5984L38.6656 40.5984ZM38.7325 34.1317L38.7323 40.5318L40.7323 40.5318L40.7325 34.1318L38.7325 34.1317ZM38.6656 42.5984C39.807 42.5984 40.7323 41.6732 40.7323 40.5318L38.7323 40.5318C38.7323 40.5686 38.7025 40.5984 38.6656 40.5984L38.6656 42.5984ZM31.799 40.5317C31.799 41.6731 32.7242 42.5984 33.8656 42.5984L33.8656 40.5984C33.8288 40.5984 33.799 40.5686 33.799 40.5317L31.799 40.5317ZM33.799 40.5317L33.799 36.2651L31.799 36.2651L31.799 40.5317L33.799 40.5317ZM35.199 35.1318H39.7325V33.1318H35.199V35.1318ZM34.5346 33.3844L32.1346 35.5177L33.4634 37.0125L35.8633 34.8792L34.5346 33.3844Z" fill="#792430"/>
</svg>
