<svg width="40" height="40" viewBox="0 0 40 40" fill="none" xmlns="http://www.w3.org/2000/svg">
<path d="M0 20C0 8.95431 8.95431 0 20 0C31.0457 0 40 8.95431 40 20C40 31.0457 31.0457 40 20 40C8.95431 40 0 31.0457 0 20Z" fill="#57B1B1"/>
<g clip-path="url(#clip0_6304_49203)">
<path d="M21 29.75V16.25" stroke="#F3F4F6" stroke-width="1.5" stroke-linecap="round" stroke-linejoin="round"/>
<path d="M21 22.25L16.5 20" stroke="#F3F4F6" stroke-width="1.5" stroke-linecap="round" stroke-linejoin="round"/>
<path d="M21 20L25.5 17.75" stroke="#F3F4F6" stroke-width="1.5" stroke-linecap="round" stroke-linejoin="round"/>
<path d="M21 24.6818C22.105 25.5687 23.4893 26.0339 24.9056 25.9943C28.0866 25.9137 30.7585 23.1612 30.75 19.9793C30.7466 18.7848 30.3868 17.6185 29.7165 16.6298C29.0463 15.641 28.0962 14.8748 26.9878 14.4293C26.5393 13.2018 25.7243 12.1418 24.6533 11.3928C23.5823 10.6439 22.3069 10.2422 21 10.2422C19.6931 10.2422 18.4178 10.6439 17.3467 11.3928C16.2757 12.1418 15.4607 13.2018 15.0122 14.4293C13.9033 14.8751 12.9528 15.6418 12.2825 16.6313C11.6122 17.6208 11.2527 18.7879 11.25 19.9831C11.2416 23.165 13.9144 25.9175 17.0953 25.9981C18.5118 26.0364 19.8958 25.5699 21 24.6818Z" stroke="#F3F4F6" stroke-width="1.5" stroke-linecap="round" stroke-linejoin="round"/>
</g>
<defs>
<clipPath id="clip0_6304_49203">
<rect width="24" height="24" fill="white" transform="translate(9 8)"/>
</clipPath>
</defs>
</svg>
