<svg width="64" height="65" viewBox="0 0 64 65" fill="none" xmlns="http://www.w3.org/2000/svg">
<path d="M0 32.5C0 14.8269 14.3269 0.5 32 0.5C49.6731 0.5 64 14.8269 64 32.5C64 50.1731 49.6731 64.5 32 64.5C14.3269 64.5 0 50.1731 0 32.5Z" fill="#E31A1C" fill-opacity="0.8"/>
<path d="M32 33.4V28.9145M32 36.7248V36.7642M37.6699 40.5H26.3301C24.7811 40.5 23.4739 39.4763 23.0627 38.0757C22.8871 37.4778 23.1028 36.8551 23.4328 36.3249L29.1027 26.101C30.4311 23.9663 33.5689 23.9663 34.8973 26.101L40.5672 36.3249C40.8972 36.8551 41.1129 37.4778 40.9373 38.0757C40.5261 39.4763 39.2189 40.5 37.6699 40.5Z" stroke="white" stroke-width="2" stroke-linecap="round" stroke-linejoin="round"/>
</svg>
