<svg width="64" height="64" viewBox="0 0 64 64" fill="none" xmlns="http://www.w3.org/2000/svg">
<path d="M0 32C0 14.3269 14.3269 0 32 0C49.6731 0 64 14.3269 64 32C64 49.6731 49.6731 64 32 64C14.3269 64 0 49.6731 0 32Z" fill="#33A02C" fill-opacity="0.2"/>
<path d="M23.584 41.5984L30.9484 28.7108M33.5785 28.7108L40.4169 41.5984M24.3633 34.7601C26.2912 37.6628 29.116 39.4943 32.2637 39.4943C35.4113 39.4943 38.2361 37.6628 40.1641 34.7601M32.2634 23.7135C30.8109 23.7135 29.6333 24.8911 29.6333 26.3436C29.6333 27.7962 30.8109 28.9738 32.2634 28.9738C33.716 28.9738 34.8936 27.7962 34.8936 26.3436C34.8936 24.8911 33.716 23.7135 32.2634 23.7135ZM32.2634 23.7135V22.3984" stroke="#18D818" stroke-width="2" stroke-linecap="round" stroke-linejoin="round"/>
</svg>
