<svg width="64" height="64" viewBox="0 0 64 64" fill="none" xmlns="http://www.w3.org/2000/svg">
<path d="M0 32C0 14.3269 14.3269 0 32 0C49.6731 0 64 14.3269 64 32C64 49.6731 49.6731 64 32 64C14.3269 64 0 49.6731 0 32Z" fill="#FF7F00" fill-opacity="0.5"/>
<path d="M23.5984 35.5984L27.4482 31.9985L30.198 34.5699L36.2476 28.9128M32.1318 28.3984H36.7984V32.7622M24.7984 41.5984C23.473 41.5984 22.3984 40.5239 22.3984 39.1984V24.7984C22.3984 23.473 23.473 22.3984 24.7984 22.3984H39.1984C40.5239 22.3984 41.5984 23.473 41.5984 24.7984V39.1984C41.5984 40.5239 40.5239 41.5984 39.1984 41.5984H24.7984Z" stroke="#FF7F00" stroke-width="2" stroke-linecap="round" stroke-linejoin="round"/>
</svg>
