<svg width="120" height="48" viewBox="0 0 120 48" fill="none" xmlns="http://www.w3.org/2000/svg">
<path d="M29.8148 21.7443C29.9742 22.3603 30.4524 22.7299 31.0103 22.7299C31.09 22.7299 31.2096 22.7299 31.2893 22.6889L42.4083 20.2659C42.4482 20.2659 42.4482 20.2248 42.4482 20.1837L42.2887 19.4445C42.2887 19.4034 42.2489 19.4034 42.209 19.4034L31.0901 21.8264C30.7314 21.9086 30.6118 21.58 30.6118 21.539C30.6118 21.4568 30.4923 21.1694 30.8509 21.0051L41.2526 16.2412C41.2924 16.2412 41.2924 16.2002 41.2924 16.1591L40.9736 15.502C40.9736 15.4609 40.9337 15.4609 40.8939 15.4609L30.572 20.2248C29.9742 20.4712 29.6553 21.1283 29.8148 21.7443Z" fill="white"/>
<path d="M16.5836 19.4799C16.6235 19.5209 16.7032 19.562 16.743 19.562C16.9423 19.6852 17.1415 19.7263 17.3408 19.7263C17.6995 19.7263 18.0183 19.562 18.2574 19.2745C18.4965 19.0281 18.5763 18.6996 18.5763 18.4121C18.5763 18.0835 18.4567 17.7961 18.2574 17.5497L10.6854 8.8433C10.6455 8.80223 10.6455 8.80223 10.6057 8.8433L10.0477 9.33611C10.0079 9.37718 10.0079 9.37718 10.0477 9.41825L17.6596 18.1246C17.6995 18.1657 17.6995 18.2068 17.7393 18.2478C17.7792 18.33 17.7792 18.371 17.7792 18.4532C17.7792 18.6174 17.6995 18.6996 17.6596 18.7406C17.6198 18.7817 17.3807 19.0281 17.1017 18.7817L7.89565 11.8823C7.8558 11.8823 7.8558 11.8823 7.81595 11.8823L7.37756 12.4983C7.37756 12.5394 7.37756 12.5394 7.37756 12.5805L16.5836 19.4799Z" fill="white"/>
<path d="M30.0937 28.5198C29.8945 28.3556 29.6553 28.2734 29.4561 28.2734C29.217 28.2734 29.0177 28.3145 28.8184 28.3966C28.6989 28.4788 28.5395 28.5609 28.4598 28.6841C28.1011 29.0948 28.0214 29.5876 28.2206 30.0394C28.2605 30.1626 28.3402 30.2858 28.4598 30.409L36.0717 39.1153C36.1115 39.1564 36.1115 39.1564 36.1514 39.1153L36.7093 38.6225C36.7492 38.5814 36.7492 38.5814 36.7093 38.5404L29.0576 29.8751C28.9778 29.7519 28.938 29.6697 28.938 29.5876C28.938 29.4644 28.9778 29.3823 29.0177 29.3412C29.0177 29.3412 29.0177 29.3001 29.0576 29.3001C29.0974 29.2591 29.3365 29.0127 29.6155 29.2591L38.8215 36.1585C38.8614 36.1585 38.8614 36.1585 38.9012 36.1585L39.3396 35.5424C39.3396 35.5014 39.3396 35.5014 39.3396 35.4603L30.0937 28.5198Z" fill="white"/>
<path d="M27.7424 30.9836C27.7025 30.9015 27.6228 30.8194 27.5431 30.7372C27.304 30.4498 26.9453 30.2855 26.5866 30.3266C26.4272 30.3266 26.2678 30.3676 26.1084 30.4498C25.6302 30.6551 25.391 31.0658 25.3512 31.5586C25.3512 31.6407 25.3512 31.7229 25.3512 31.805C25.3512 31.8871 25.391 31.9693 25.391 32.0514L28.8981 43.1808C28.8981 43.2218 28.938 43.2218 28.9778 43.2218L29.6952 42.9754C29.735 42.9754 29.735 42.9344 29.735 42.8933L26.228 31.7639C26.228 31.7229 26.1881 31.6818 26.1881 31.6407C26.1881 31.4765 26.228 31.3943 26.3077 31.3122C26.3475 31.2711 26.4272 31.2301 26.4272 31.2301C26.4671 31.2301 26.5468 31.189 26.6663 31.189C26.7859 31.189 26.9055 31.23 26.9852 31.3943L32.6841 41.5381C32.6841 41.5791 32.724 41.5791 32.7639 41.5791L33.4015 41.2095C33.4414 41.2095 33.4414 41.1684 33.4414 41.1274L27.7424 30.9836Z" fill="white"/>
<path d="M23.239 31.0258C22.6412 31.0669 22.1231 31.6008 22.0833 32.2168L20.8877 43.839C20.8877 43.88 20.8877 43.88 20.9275 43.9211L21.6449 44.0032C21.6848 44.0032 21.6848 44.0032 21.7246 43.9622L22.9202 32.2989C22.9601 31.9293 23.2789 31.8882 23.3586 31.8882C23.4383 31.8882 23.7571 31.8882 23.797 32.2989L24.9926 43.9622C24.9926 44.0032 25.0324 44.0032 25.0723 44.0032L25.7896 43.9211C25.8295 43.9211 25.8295 43.88 25.8295 43.839L24.6339 32.1757C24.5542 31.4776 23.9564 30.9848 23.239 31.0258Z" fill="white"/>
<path d="M20.6087 30.4511C20.3696 30.3279 20.1305 30.2868 19.8914 30.3279C19.5327 30.369 19.174 30.6154 18.9747 30.985L13.2758 41.1287C13.2758 41.1698 13.2758 41.2109 13.3156 41.2109L13.9533 41.5805C13.9931 41.5805 14.033 41.5805 14.033 41.5394L19.7319 31.3957C19.8116 31.2314 19.9312 31.1903 20.0508 31.1903C20.1703 31.1903 20.25 31.2314 20.2899 31.2314C20.3297 31.2725 20.6486 31.3957 20.529 31.7653L17.0219 42.8946C17.0219 42.9357 17.0219 42.9768 17.0618 42.9768L17.7791 43.2232C17.819 43.2232 17.8589 43.2232 17.8589 43.1821L21.3659 32.0938C21.4456 31.4367 21.1666 30.6975 20.6087 30.4511Z" fill="white"/>
<path d="M18.5762 29.8751C18.6161 29.7929 18.6161 29.7108 18.6161 29.5876C18.6161 29.2591 18.4965 28.9716 18.2973 28.7252C18.2176 28.643 18.1379 28.602 18.098 28.5198C17.6596 28.1913 17.1017 28.1913 16.6234 28.5198L7.37755 35.4192C7.33769 35.4192 7.33769 35.4603 7.37755 35.5014L7.81593 36.1174C7.81593 36.1584 7.85578 36.1584 7.89563 36.1174L17.1017 29.218C17.3806 29.0127 17.6198 29.218 17.6596 29.2591C17.6596 29.2591 17.6596 29.2591 17.6995 29.3001C17.7393 29.3412 17.7792 29.4644 17.7792 29.5465C17.7792 29.6287 17.7393 29.7519 17.6596 29.834L10.0477 38.5814C10.0078 38.6225 10.0477 38.6225 10.0477 38.6636L10.6056 39.1564C10.6455 39.1975 10.6455 39.1564 10.6853 39.1564L18.2973 30.45C18.4168 30.2858 18.5364 30.0804 18.5762 29.8751Z" fill="white"/>
<path d="M16.8624 26.22C16.703 25.604 16.1849 25.2344 15.627 25.2344C15.5473 25.2344 15.4675 25.2344 15.3878 25.2754L4.26886 27.7395C4.229 27.7395 4.229 27.7806 4.229 27.8216L4.38842 28.5609C4.38842 28.6019 4.42827 28.6019 4.46812 28.6019L15.5871 26.1789C15.627 26.1789 15.6668 26.1789 15.7067 26.1789C15.9856 26.1789 16.0653 26.4253 16.0653 26.4664C16.0653 26.5485 16.1849 26.836 15.8262 27.0003L5.42459 31.7641C5.38474 31.7641 5.38474 31.8052 5.38474 31.8463L5.70356 32.5855L16.1052 27.8216C16.703 27.5342 17.0617 26.8771 16.8624 26.22Z" fill="white"/>
<path d="M42.767 23.5469H3.91034C3.87048 23.5469 3.87048 23.5879 3.87048 23.5879V24.3682C3.87048 24.4093 3.91034 24.4093 3.91034 24.4093H42.767C42.8069 24.4093 42.8069 24.3682 42.8069 24.3682V23.5879C42.8069 23.5879 42.8069 23.5469 42.767 23.5469Z" fill="white"/>
<path d="M4.26891 20.2659L15.3879 22.6889C15.4676 22.7299 15.5872 22.7299 15.6669 22.7299C16.2248 22.7299 16.703 22.3603 16.8625 21.7443C17.0219 21.1283 16.703 20.4712 16.1053 20.2248L5.74348 15.4609C5.70362 15.4609 5.66377 15.4609 5.66377 15.502L5.34495 16.2002C5.34495 16.2412 5.34495 16.2823 5.3848 16.2823L15.8263 21.0462C16.1451 21.2104 16.0654 21.4979 16.0654 21.58C16.0654 21.6211 15.9458 21.8675 15.7067 21.8675C15.6669 21.8675 15.627 21.8675 15.5872 21.8675L4.42833 19.4034C4.38847 19.4034 4.38847 19.4034 4.34862 19.4445L4.18921 20.1837C4.22906 20.2248 4.22906 20.2659 4.26891 20.2659Z" fill="white"/>
<path d="M18.9748 17.0194C19.2139 17.4301 19.6124 17.6765 20.0508 17.6765C20.2501 17.6765 20.4095 17.6355 20.6088 17.5533C21.2066 17.2658 21.4855 16.5677 21.2863 15.9106L17.7393 4.82232C17.7393 4.78125 17.6995 4.78125 17.6596 4.78125L16.9423 5.02766C16.9423 5.06872 16.9024 5.06872 16.9024 5.10979L20.4095 16.2392C20.5291 16.6088 20.2501 16.732 20.1704 16.773C20.1305 16.773 20.0508 16.8141 19.9313 16.8141C19.8117 16.8141 19.6921 16.773 19.6124 16.6088L13.9932 6.46503C13.9932 6.42396 13.9533 6.42396 13.9135 6.42396L13.2758 6.79357C13.236 6.79357 13.236 6.83464 13.236 6.87571L18.9748 17.0194Z" fill="white"/>
<path d="M23.4383 16.9774C24.0361 16.9363 24.5542 16.4025 24.5941 15.7864L25.7897 4.16427C25.7897 4.1232 25.7897 4.1232 25.7498 4.08214L25.0325 4C24.9926 4 24.9926 4 24.9528 4.04107L23.7572 15.7043C23.7173 16.0739 23.3985 16.115 23.3188 16.115C23.2391 16.115 22.9203 16.115 22.8804 15.7043L21.6848 4.04107C21.7247 4 21.7247 4 21.6848 4L20.9675 4.08214C20.9276 4.08214 20.9276 4.1232 20.9276 4.16427L22.1232 15.8275C22.1631 16.5257 22.721 17.0185 23.4383 16.9774Z" fill="white"/>
<path d="M25.3512 16.4856C25.391 16.9784 25.6302 17.3891 26.1084 17.5944C26.2678 17.6765 26.4671 17.7176 26.6265 17.7176C27.0649 17.7176 27.4634 17.4712 27.7025 17.0605L33.4414 6.87571C33.4414 6.83464 33.4414 6.79357 33.4015 6.79357L32.7639 6.42396C32.724 6.42396 32.6841 6.42396 32.6841 6.46503L26.9852 16.6088C26.9055 16.732 26.8258 16.8141 26.7062 16.8141H26.6663C26.5468 16.8141 26.4671 16.773 26.4272 16.773C26.3874 16.773 26.3475 16.732 26.3077 16.6909C26.228 16.6088 26.1881 16.5266 26.1881 16.3624C26.1881 16.3213 26.1881 16.2802 26.228 16.2392L29.735 5.10979C29.735 5.06872 29.735 5.02766 29.6952 5.02766L28.9778 4.78125C28.938 4.78125 28.8981 4.78125 28.8981 4.82232L25.391 15.9517C25.391 16.157 25.3512 16.3213 25.3512 16.4856Z" fill="white"/>
<path d="M28.42 19.2776C28.4598 19.3597 28.5395 19.4008 28.5794 19.4419C28.8185 19.6061 29.0576 19.7293 29.3366 19.7293C29.5757 19.7293 29.8547 19.6472 30.0938 19.4829L39.2998 12.5835C39.3397 12.5835 39.3397 12.5425 39.2998 12.5014L38.8615 11.8854C38.8615 11.8443 38.8216 11.8443 38.7818 11.8854L29.6156 18.7848C29.3366 18.9901 29.0975 18.7848 29.0576 18.7437C29.0178 18.7026 28.9381 18.6205 28.9381 18.4562C28.9381 18.4152 28.9381 18.333 28.9779 18.2509C28.9779 18.2098 29.0178 18.1688 29.0576 18.1277L36.6695 9.42133C36.7094 9.38026 36.6695 9.38026 36.6695 9.33919L36.1116 8.84638C36.0717 8.80531 36.0717 8.84638 36.0319 8.84638L28.42 17.5527C27.9816 18.0456 27.9816 18.7848 28.42 19.2776Z" fill="white"/>
<path d="M51.4087 21.1263C51.1297 20.7977 50.771 20.5513 50.4124 20.387C50.0138 20.2228 49.6153 20.1406 49.1769 20.1406C48.6987 20.1406 48.2205 20.2228 47.7821 20.4281C47.3437 20.6334 46.985 20.8798 46.6662 21.2084C46.3474 21.5369 46.1082 21.9887 45.9488 22.4815C45.7894 22.9743 45.7097 23.5492 45.7097 24.1653C45.7097 24.7813 45.7894 25.3562 45.9488 25.849C46.1082 26.3419 46.3474 26.7525 46.6662 27.1221C46.985 27.4507 47.3437 27.7382 47.7821 27.9024C48.2205 28.1078 48.6987 28.1899 49.1769 28.1899C49.974 28.1899 50.6116 27.9846 51.1696 27.5328C51.7275 27.0811 52.0862 26.4651 52.3253 25.6437V25.6026L52.2855 25.5616H51.0899C51.0899 25.5616 51.05 25.5616 51.05 25.6026L51.0102 25.6437C50.8508 26.0954 50.6515 26.424 50.3327 26.6704C50.0537 26.8757 49.6552 26.9989 49.2168 26.9989C48.619 26.9989 48.1009 26.7936 47.7422 26.3829C47.3437 25.9722 47.1444 25.3562 47.1046 24.5759H52.3652C52.3652 24.5759 52.405 24.5759 52.405 24.5349L52.4449 24.4938C52.4449 23.7135 52.3253 23.0564 52.1659 22.4815C51.9268 21.9065 51.6877 21.4548 51.4087 21.1263ZM51.0102 23.3439L50.9703 23.385H47.1046C47.2241 22.7279 47.4234 22.2351 47.8219 21.8655C48.1806 21.5369 48.619 21.3316 49.1769 21.3316C49.695 21.3316 50.1334 21.4959 50.4522 21.8244C50.771 22.1529 50.9703 22.6458 51.05 23.3028C51.0102 23.3439 51.0102 23.3439 51.0102 23.3439Z" fill="white"/>
<path d="M57.1475 20.1406C56.6693 20.1406 56.2707 20.2228 55.9121 20.4281C55.5534 20.6334 55.2346 20.9209 55.0353 21.2905L54.9954 21.3316C54.9556 21.3316 54.9556 21.3727 54.9157 21.3727H54.8759V20.4281C54.8759 20.387 54.836 20.346 54.7962 20.346H53.6803C53.6404 20.346 53.6006 20.387 53.6006 20.4281V27.8614C53.6006 27.9024 53.6404 27.9435 53.6803 27.9435H54.8759C54.9157 27.9435 54.9556 27.9024 54.9556 27.8614V23.6314C54.9556 23.3028 54.9954 22.9743 55.115 22.6868C55.1947 22.3994 55.3541 22.1529 55.5135 21.9476C55.6729 21.7423 55.9121 21.578 56.1512 21.4959C56.3903 21.3727 56.6294 21.3316 56.9084 21.3316C57.7851 21.3316 58.2235 21.8244 58.2235 22.81V27.8614C58.2235 27.9024 58.2634 27.9435 58.3032 27.9435H59.4988C59.5387 27.9435 59.5785 27.9024 59.5785 27.8614V22.81C59.5785 21.9476 59.3793 21.2905 58.9807 20.7977C58.5822 20.3049 57.9047 20.1406 57.1475 20.1406Z" fill="white"/>
<path d="M66.4332 21.1263C66.1543 20.7977 65.7956 20.5513 65.4369 20.387C65.0384 20.2228 64.6398 20.1406 64.2015 20.1406C63.7232 20.1406 63.245 20.2228 62.8066 20.4281C62.3682 20.6334 62.0095 20.8798 61.6907 21.2084C61.3719 21.5369 61.1328 21.9887 60.9734 22.4815C60.814 22.9743 60.7343 23.5492 60.7343 24.1653C60.7343 24.7813 60.814 25.3562 60.9734 25.849C61.1328 26.3419 61.3719 26.7525 61.6907 27.1221C62.0095 27.4507 62.3682 27.7382 62.8066 27.9024C63.245 28.1078 63.7232 28.1899 64.2015 28.1899C64.9985 28.1899 65.6362 27.9846 66.1941 27.5328C66.7521 27.0811 67.1107 26.4651 67.3499 25.6437V25.6026L67.31 25.5616H66.1144C66.1144 25.5616 66.0746 25.5616 66.0746 25.6026L66.0347 25.6437C65.8753 26.0954 65.676 26.424 65.3572 26.6704C65.0782 26.8757 64.6797 26.9989 64.2413 26.9989C63.6435 26.9989 63.1254 26.7936 62.7668 26.3829C62.3682 25.9722 62.169 25.3562 62.1291 24.5759H67.3897C67.3897 24.5759 67.4296 24.5759 67.4296 24.5349L67.4694 24.4938C67.4694 23.7135 67.3498 23.0564 67.1904 22.4815C66.9513 21.9065 66.7122 21.4548 66.4332 21.1263ZM66.0347 23.3439L65.9948 23.385H62.1291C62.2487 22.7279 62.4479 22.2351 62.8465 21.8655C63.245 21.4959 63.6435 21.3316 64.2015 21.3316C64.7594 21.3316 65.1579 21.4959 65.4768 21.8244C65.7956 22.1529 65.9948 22.6458 66.0746 23.3028C66.0746 23.3439 66.0746 23.3439 66.0347 23.3439Z" fill="white"/>
<path d="M72.4511 20.3438H71.4946C71.2555 20.3438 71.0562 20.3848 70.8968 20.4259C70.7374 20.467 70.578 20.5491 70.4983 20.6312C70.3787 20.7134 70.299 20.7955 70.2193 20.9187C70.1396 21.0419 70.0997 21.1651 70.02 21.2883C70.02 21.3294 69.9802 21.3704 69.9403 21.3704V20.4259C69.9403 20.3848 69.9005 20.3438 69.8606 20.3438H68.7447C68.7049 20.3438 68.665 20.3848 68.665 20.4259V27.8591C68.665 27.9002 68.7049 27.9413 68.7447 27.9413H69.9403C69.9802 27.9413 70.02 27.9002 70.02 27.8591V23.547C70.02 22.8489 70.1396 22.3561 70.3389 22.0686C70.5381 21.7811 70.8968 21.6579 71.4547 21.6579H72.5308C72.5706 21.6579 72.6105 21.6169 72.6105 21.5758V20.4259C72.5308 20.3437 72.4909 20.3438 72.4511 20.3438Z" fill="white"/>
<path d="M79.505 20.346H78.3094C78.2696 20.346 78.2297 20.387 78.2297 20.4281V21.2905C78.2297 21.3316 78.2297 21.3316 78.1899 21.2905C77.9507 20.9209 77.6718 20.6334 77.3131 20.4281C76.9544 20.2228 76.5559 20.1406 76.1574 20.1406C75.719 20.1406 75.2806 20.2228 74.9219 20.4281C74.5234 20.6334 74.2046 20.8798 73.9256 21.2084C73.6466 21.5369 73.4474 21.9476 73.2879 22.3994C73.1285 22.8511 73.0488 23.385 73.0488 23.9599C73.0488 24.4938 73.1285 25.0277 73.2879 25.5205C73.4474 26.0133 73.6466 26.3829 73.9256 26.7525C74.2046 27.0811 74.5632 27.3685 74.9219 27.5328C75.3205 27.7382 75.7588 27.8203 76.1972 27.8203C76.5957 27.8203 76.9943 27.7382 77.3131 27.5739C77.6319 27.4096 77.9109 27.1221 78.15 26.7115C78.1899 26.6704 78.1899 26.6704 78.1899 26.7115V27.1221C78.1899 27.8203 78.0305 28.3542 77.7515 28.7238C77.4725 29.0934 76.9943 29.2987 76.3566 29.2987C75.8385 29.2987 75.44 29.2166 75.161 29.0113C74.8821 28.8059 74.6828 28.5595 74.6031 28.1899C74.6031 28.1488 74.5632 28.1078 74.5234 28.1078H73.2879C73.2481 28.1078 73.2082 28.1488 73.2481 28.1899C73.3278 28.5595 73.4474 28.8881 73.6068 29.1755C73.806 29.463 74.0053 29.7094 74.2843 29.8737C74.5632 30.038 74.8821 30.2022 75.2407 30.2844C75.5994 30.3665 75.9581 30.4076 76.3566 30.4076C77.3928 30.4076 78.1899 30.1201 78.708 29.5451C79.2659 28.9702 79.505 28.1899 79.505 27.2043V20.4281C79.5449 20.346 79.5449 20.346 79.505 20.346ZM78.15 24.9045C78.0703 25.233 77.9906 25.5205 77.8312 25.7669C77.6718 26.0133 77.5124 26.2187 77.2334 26.3829C76.9943 26.5472 76.6755 26.6293 76.3168 26.6293C75.719 26.6293 75.2407 26.3829 74.8821 25.8901C74.5632 25.3973 74.364 24.7813 74.364 23.9599C74.364 23.1386 74.5234 22.5226 74.8821 22.0297C75.2009 21.5369 75.6791 21.2905 76.3168 21.2905C76.6755 21.2905 76.9943 21.3727 77.2334 21.5369C77.4725 21.7012 77.6718 21.9065 77.8312 22.1529C77.9906 22.3994 78.0703 22.6868 78.15 23.0154C78.2297 23.3439 78.2297 23.6314 78.2297 23.9599C78.2297 24.2885 78.1899 24.617 78.15 24.9045Z" fill="white"/>
<path d="M82.374 20.3438H81.1788C81.1788 20.3438 81.139 20.3437 81.139 20.3848L81.0991 20.4259V27.8591C81.0991 27.8591 81.0991 27.9002 81.139 27.9002L81.1788 27.9413H82.374C82.374 27.9413 82.4139 27.9413 82.4139 27.9002L82.4537 27.8591V20.4259C82.4537 20.4259 82.4537 20.3848 82.4139 20.3848C82.4139 20.3437 82.4139 20.3438 82.374 20.3438Z" fill="white"/>
<path d="M90.1059 20.346H88.9103C88.8705 20.346 88.8306 20.387 88.8306 20.4281V21.2905C88.8306 21.3316 88.8306 21.3316 88.7908 21.2905C88.5516 20.9209 88.2727 20.6334 87.914 20.4281C87.5553 20.2228 87.1568 20.1406 86.7184 20.1406C86.2003 20.1406 85.7221 20.2638 85.3235 20.5102C84.925 20.7566 84.6062 21.0441 84.3671 21.4137C84.128 21.7833 83.9287 22.2351 83.8091 22.6868C83.6896 23.1796 83.6099 23.6314 83.6099 24.1242C83.6099 24.617 83.6896 25.1098 83.8091 25.5616C83.9287 26.0544 84.128 26.4651 84.3671 26.8347C84.6062 27.2043 84.925 27.5328 85.3235 27.7382C85.7221 27.9846 86.1605 28.1078 86.7184 28.1078C87.1568 28.1078 87.5553 28.0256 87.914 27.8203C88.2727 27.615 88.5915 27.3275 88.7908 26.9579C88.8306 26.9168 88.8306 26.9168 88.8306 26.9579V27.8203C88.8306 27.8614 88.8705 27.9024 88.9103 27.9024H90.1059C90.1458 27.9024 90.1856 27.8614 90.1856 27.8203V20.4281C90.1856 20.346 90.1458 20.346 90.1059 20.346ZM88.7908 25.1098C88.7509 25.4384 88.6313 25.7258 88.4719 26.0133C88.3125 26.3008 88.1133 26.5061 87.8741 26.6704C87.635 26.8347 87.3162 26.9168 86.9177 26.9168C86.3199 26.9168 85.8416 26.6704 85.483 26.1776C85.1641 25.6848 84.9649 24.9866 84.9649 24.1242C84.9649 23.2207 85.1243 22.5636 85.483 22.0708C85.8018 21.578 86.28 21.3316 86.9177 21.3316C87.3162 21.3316 87.5952 21.4137 87.8741 21.578C88.1133 21.7423 88.3125 21.9887 88.4719 22.2351C88.6313 22.5226 88.711 22.81 88.7908 23.1386C88.8306 23.4671 88.8705 23.7957 88.8705 24.1242C88.8705 24.4527 88.8306 24.7813 88.7908 25.1098Z" fill="white"/>
<path d="M98.5548 20.3438H97.5983C97.3592 20.3438 97.1599 20.3848 97.0005 20.4259C96.8411 20.467 96.6817 20.5491 96.602 20.6312C96.4824 20.7134 96.4027 20.7955 96.323 20.9187C96.2433 21.0419 96.2034 21.1651 96.1237 21.2883C96.1237 21.3294 96.0839 21.3704 96.044 21.3704V20.4259C96.044 20.3848 96.0042 20.3438 95.9643 20.3438H94.8086C94.7687 20.3438 94.7289 20.3848 94.7289 20.4259V27.8591C94.7289 27.9002 94.7687 27.9413 94.8086 27.9413H96.0042C96.044 27.9413 96.0839 27.9002 96.0839 27.8591V23.547C96.0839 22.8489 96.2034 22.3561 96.4027 22.0686C96.602 21.7811 96.9606 21.6579 97.5186 21.6579H98.5946C98.6345 21.6579 98.6743 21.6169 98.6743 21.5758V20.4259C98.6345 20.3437 98.5946 20.3438 98.5548 20.3438Z" fill="white"/>
<path d="M104.812 21.1263C104.533 20.7977 104.174 20.5513 103.815 20.387C103.417 20.2228 103.018 20.1406 102.58 20.1406C102.102 20.1406 101.623 20.2228 101.185 20.4281C100.747 20.6334 100.388 20.8798 100.069 21.2084C99.7503 21.5369 99.5112 21.9887 99.3518 22.4815C99.1924 22.9743 99.1127 23.5492 99.1127 24.1653C99.1127 24.7813 99.1924 25.3562 99.3518 25.849C99.5112 26.3419 99.7503 26.7525 100.069 27.1221C100.388 27.4507 100.747 27.7382 101.185 27.9024C101.623 28.1078 102.102 28.1899 102.58 28.1899C103.377 28.1899 104.015 27.9846 104.573 27.5328C105.13 27.0811 105.489 26.4651 105.728 25.6437V25.6026L105.688 25.5616H104.493C104.493 25.5616 104.453 25.5616 104.453 25.6026L104.413 25.6437C104.254 26.0954 104.054 26.424 103.736 26.6704C103.457 26.8757 103.058 26.9989 102.62 26.9989C102.022 26.9989 101.504 26.7936 101.145 26.3829C100.747 25.9722 100.547 25.3562 100.508 24.5759H105.768C105.768 24.5759 105.808 24.5759 105.808 24.5349L105.848 24.4938C105.848 23.7135 105.728 23.0564 105.569 22.4815C105.33 21.9065 105.091 21.4548 104.812 21.1263ZM104.453 23.3439L104.413 23.385H100.547C100.667 22.7279 100.866 22.2351 101.265 21.8655C101.663 21.4959 102.062 21.3316 102.62 21.3316C103.178 21.3316 103.576 21.4959 103.895 21.8244C104.214 22.1529 104.413 22.6458 104.493 23.3028C104.453 23.3439 104.453 23.3439 104.453 23.3439Z" fill="white"/>
<path d="M113.181 20.346H111.985C111.945 20.346 111.906 20.387 111.906 20.4281V21.2905C111.906 21.3316 111.906 21.3316 111.866 21.2905C111.627 20.9209 111.348 20.6334 110.989 20.4281C110.63 20.2228 110.232 20.1406 109.793 20.1406C109.275 20.1406 108.797 20.2638 108.399 20.5102C108 20.7566 107.681 21.0441 107.442 21.4137C107.203 21.7833 107.004 22.2351 106.884 22.6868C106.765 23.1796 106.685 23.6314 106.685 24.1242C106.685 24.617 106.765 25.1098 106.884 25.5616C107.004 26.0544 107.203 26.4651 107.442 26.8347C107.681 27.2043 108 27.5328 108.399 27.7382C108.797 27.9846 109.235 28.1078 109.793 28.1078C110.232 28.1078 110.63 28.0256 110.989 27.8203C111.348 27.615 111.666 27.3275 111.866 26.9579C111.906 26.9168 111.906 26.9168 111.906 26.9579V27.8203C111.906 27.8614 111.945 27.9024 111.985 27.9024H113.181C113.221 27.9024 113.261 27.8614 113.261 27.8203V20.4281C113.221 20.346 113.221 20.346 113.181 20.346ZM111.826 25.1098C111.786 25.4384 111.666 25.7258 111.507 26.0133C111.348 26.3008 111.148 26.5061 110.909 26.6704C110.67 26.8347 110.351 26.9168 109.953 26.9168C109.355 26.9168 108.877 26.6704 108.518 26.1776C108.199 25.6848 108 24.9866 108 24.1242C108 23.2207 108.159 22.5636 108.518 22.0708C108.837 21.578 109.315 21.3316 109.953 21.3316C110.351 21.3316 110.63 21.4137 110.909 21.578C111.148 21.7423 111.348 21.9887 111.507 22.2351C111.666 22.4815 111.746 22.81 111.826 23.1386C111.866 23.4671 111.906 23.7957 111.906 24.1242C111.906 24.4527 111.906 24.7813 111.826 25.1098Z" fill="white"/>
<path d="M116.09 17.9239L116.05 17.8828H114.855C114.855 17.8828 114.815 17.8828 114.815 17.9239L114.775 17.9649V27.8623C114.775 27.8623 114.775 27.9033 114.815 27.9033L114.855 27.9444H116.05C116.05 27.9444 116.09 27.9444 116.09 27.9033L116.13 27.8623V17.9649C116.13 17.9649 116.13 17.9239 116.09 17.9239Z" fill="white"/>
<path d="M83.1708 17.7991L83.131 17.5938L80.7803 18.6615C80.6608 18.7436 80.5811 18.8669 80.621 19.0311C80.6608 19.1543 80.7803 19.2365 80.8999 19.2365C80.9397 19.2365 80.9397 19.2365 80.9795 19.2365L83.4896 18.7026L83.4497 18.4972L83.1708 17.7991Z" fill="white"/>
</svg>
