<svg xmlns="http://www.w3.org/2000/svg" viewBox="0 0 38.94 40"><defs><style>.cls-1{fill:#fff;}</style></defs><g id="Capa_2" data-name="Capa 2"><g id="Capa_1-2" data-name="Capa 1"><path class="cls-1" d="M26,17.74a1.22,1.22,0,0,0,1.19,1,.68.68,0,0,0,.28,0l11.12-2.42s0-.05,0-.09l-.16-.74s0,0-.08,0L27.22,17.83a.39.39,0,0,1-.48-.29A.42.42,0,0,1,27,17l10.4-4.77s0,0,0-.08l-.32-.66s0,0-.08,0L26.7,16.22A1.3,1.3,0,0,0,26,17.74Z"/><path class="cls-1" d="M12.71,15.48a.3.3,0,0,0,.16.08,1.06,1.06,0,0,0,.6.17,1.18,1.18,0,0,0,.92-.46,1.2,1.2,0,0,0,.32-.86,1.34,1.34,0,0,0-.32-.86L6.82,4.84s0,0-.08,0l-.56.5s0,0,0,.08l7.61,8.7c0,.05,0,.09.08.13a.36.36,0,0,1,0,.2.37.37,0,0,1-.12.29.38.38,0,0,1-.56,0L4,7.88H4l-.44.62v.08Z"/><path class="cls-1" d="M26.22,24.52a1.05,1.05,0,0,0-.63-.25,1.5,1.5,0,0,0-.64.13,1.3,1.3,0,0,0-.6,1.64,1,1,0,0,0,.24.37l7.61,8.71s0,0,.08,0l.56-.5s0,0,0-.08l-7.65-8.66a.59.59,0,0,1-.12-.29.35.35,0,0,1,.08-.25,0,0,0,0,1,0,0,.38.38,0,0,1,.56,0l9.2,6.9H35l.44-.62v-.08Z"/><path class="cls-1" d="M23.87,27a1.06,1.06,0,0,0-.2-.24,1.09,1.09,0,0,0-1-.41,1.07,1.07,0,0,0-.48.12,1.25,1.25,0,0,0-.76,1.11v.25c0,.08,0,.16,0,.24L25,39.18s0,0,.08,0l.71-.24s0,0,0-.09l-3.5-11.13s0-.08,0-.12a.42.42,0,0,1,.12-.33.58.58,0,0,1,.12-.08,1.41,1.41,0,0,1,.24,0,.32.32,0,0,1,.31.2l5.7,10.15s0,0,.08,0l.64-.37s0,0,0-.08Z"/><path class="cls-1" d="M19.37,27a1.29,1.29,0,0,0-1.16,1.19L17,39.84s0,0,0,.08l.71.08s0,0,.08,0l1.2-11.66a.44.44,0,0,1,.44-.41.4.4,0,0,1,.44.41L21.12,40s0,0,.08,0l.72-.08s0,0,0-.08l-1.2-11.66A1.29,1.29,0,0,0,19.37,27Z"/><path class="cls-1" d="M16.74,26.45a1.15,1.15,0,0,0-.72-.12,1.22,1.22,0,0,0-.91.66L9.41,37.13s0,.08,0,.08l.63.37s.08,0,.08,0l5.7-10.14a.33.33,0,0,1,.32-.21,1.41,1.41,0,0,1,.24,0,.44.44,0,0,1,.24.54L13.15,38.89s0,.09,0,.09l.72.24s.08,0,.08,0L17.5,28.09A1.59,1.59,0,0,0,16.74,26.45Z"/><path class="cls-1" d="M14.71,25.88a.66.66,0,0,0,0-.29,1.32,1.32,0,0,0-.32-.86c-.08-.09-.16-.13-.2-.21a1.23,1.23,0,0,0-1.48,0l-9.24,6.9s0,0,0,.08l.43.62s0,0,.08,0l9.21-6.9a.42.42,0,0,1,.56,0l0,0a.41.41,0,0,1,0,.53L6.18,34.58s0,0,0,.08l.55.5s0,0,.08,0l7.62-8.71A1.52,1.52,0,0,0,14.71,25.88Z"/><path class="cls-1" d="M13,22.22a1.27,1.27,0,0,0-1.23-1,.42.42,0,0,0-.24.05L.4,23.74s0,0,0,.08l.16.74s0,0,.08,0l11.12-2.42h.12a.36.36,0,0,1,.36.29A.42.42,0,0,1,12,23L1.55,27.76s0,0,0,.09l.31.74,10.41-4.77A1.36,1.36,0,0,0,13,22.22Z"/><path class="cls-1" d="M38.9,19.55H0a0,0,0,0,0,0,0v.78a0,0,0,0,0,0,0H38.9a0,0,0,0,0,0,0v-.78A0,0,0,0,0,38.9,19.55Z"/><path class="cls-1" d="M.4,16.27l11.12,2.42a.68.68,0,0,0,.28,0,1.23,1.23,0,0,0,1.19-1,1.3,1.3,0,0,0-.76-1.52L1.87,11.46s-.08,0-.08,0l-.32.7s0,.08,0,.08L12,17.05a.47.47,0,0,1,.23.53.39.39,0,0,1-.35.29h-.12L.56,15.4s0,0-.08,0l-.16.74S.36,16.27.4,16.27Z"/><path class="cls-1" d="M15.1,13a1.23,1.23,0,0,0,1.64.53,1.36,1.36,0,0,0,.68-1.64L13.87.82s0,0-.08,0L13.07,1s0,0,0,.08l3.51,11.13a.39.39,0,0,1-.24.53,1.41,1.41,0,0,1-.24,0,.33.33,0,0,1-.32-.2L10.12,2.47c0-.05,0-.05-.08-.05l-.63.37s0,0,0,.09Z"/><path class="cls-1" d="M19.57,13a1.29,1.29,0,0,0,1.15-1.19L21.92.16s0,0,0-.08L21.16,0s0,0-.08,0L19.89,11.7a.44.44,0,0,1-.44.41A.4.4,0,0,1,19,11.7L17.81,0s0,0,0,0L17.1.08s0,0,0,.08l1.19,11.67A1.21,1.21,0,0,0,19.57,13Z"/><path class="cls-1" d="M21.48,12.49a1.23,1.23,0,0,0,.76,1.1,1.11,1.11,0,0,0,.52.13,1.26,1.26,0,0,0,1.07-.66L29.57,2.88s0-.09,0-.09l-.64-.37s-.08,0-.08.05l-5.7,10.14c-.08.12-.15.2-.27.2h0a1.41,1.41,0,0,1-.24,0s-.08,0-.12-.08a.4.4,0,0,1-.12-.33.15.15,0,0,1,0-.12l3.5-11.13s0-.08,0-.08L25.11.78s-.08,0-.08,0L21.52,12C21.52,12.16,21.48,12.32,21.48,12.49Z"/><path class="cls-1" d="M24.55,15.28c0,.08.12.12.16.16a1.19,1.19,0,0,0,1.51,0l9.21-6.9s0,0,0-.08L35,7.89s0,0-.08,0l-9.16,6.89a.42.42,0,0,1-.56,0,.37.37,0,0,1-.12-.28.47.47,0,0,1,0-.21s0-.08.08-.12L32.8,5.42s0,0,0-.08l-.56-.49s0,0-.08,0l-7.61,8.7A1.3,1.3,0,0,0,24.55,15.28Z"/></g></g></svg>