<svg width="75" height="29" viewBox="0 0 75 29" fill="none" xmlns="http://www.w3.org/2000/svg">
<path d="M18.6349 12.9882C18.7345 13.3562 19.0334 13.5771 19.3821 13.5771C19.432 13.5771 19.5067 13.5771 19.5565 13.5525L26.5059 12.105C26.5308 12.105 26.5308 12.0804 26.5308 12.0559L26.4311 11.6143C26.4311 11.5897 26.4062 11.5897 26.3813 11.5897L19.432 13.0373C19.2078 13.0864 19.1331 12.8901 19.1331 12.8656C19.1331 12.8165 19.0583 12.6447 19.2825 12.5466L25.7835 9.70054C25.8084 9.70054 25.8084 9.676 25.8084 9.65147L25.6092 9.25891C25.6092 9.23438 25.5843 9.23438 25.5593 9.23438L19.1081 12.0804C18.7345 12.2276 18.5353 12.6202 18.6349 12.9882Z" fill="#FF4713"/>
<path d="M10.3651 11.6386C10.39 11.6631 10.4398 11.6877 10.4647 11.6877C10.5893 11.7613 10.7138 11.7858 10.8384 11.7858C11.0625 11.7858 11.2618 11.6877 11.4112 11.5159C11.5607 11.3687 11.6105 11.1724 11.6105 11.0007C11.6105 10.8044 11.5358 10.6326 11.4112 10.4854L6.6787 5.28403C6.65379 5.25949 6.65379 5.25949 6.62889 5.28403L6.28017 5.57845C6.25526 5.60298 6.25526 5.60298 6.28017 5.62752L11.0376 10.8289C11.0625 10.8535 11.0625 10.878 11.0874 10.9025C11.1123 10.9516 11.1123 10.9761 11.1123 11.0252C11.1123 11.1233 11.0625 11.1724 11.0376 11.197C11.0127 11.2215 10.8633 11.3687 10.6889 11.2215L4.93513 7.09961C4.91023 7.09961 4.91023 7.09961 4.88532 7.09961L4.61133 7.46764C4.61133 7.49217 4.61133 7.49217 4.61133 7.51671L10.3651 11.6386Z" fill="#FF4713"/>
<path d="M18.8094 17.0378C18.6849 16.9397 18.5354 16.8906 18.4109 16.8906C18.2614 16.8906 18.1369 16.9152 18.0124 16.9642C17.9376 17.0133 17.838 17.0624 17.7882 17.136C17.564 17.3813 17.5142 17.6757 17.6387 17.9456C17.6636 18.0192 17.7135 18.0928 17.7882 18.1664L22.5456 23.3679C22.5705 23.3924 22.5705 23.3924 22.5955 23.3679L22.9442 23.0734C22.9691 23.0489 22.9691 23.0489 22.9442 23.0244L18.1618 17.8475C18.112 17.7739 18.0871 17.7248 18.0871 17.6757C18.0871 17.6021 18.112 17.5531 18.1369 17.5285C18.1369 17.5285 18.1369 17.504 18.1618 17.504C18.1867 17.4795 18.3362 17.3323 18.5105 17.4795L24.2643 21.6013C24.2892 21.6013 24.2892 21.6013 24.3141 21.6013L24.5881 21.2333C24.5881 21.2088 24.5881 21.2088 24.5881 21.1842L18.8094 17.0378Z" fill="#FF4713"/>
<path d="M17.3402 18.5135C17.3153 18.4644 17.2655 18.4153 17.2156 18.3663C17.0662 18.1945 16.842 18.0964 16.6179 18.1209C16.5182 18.1209 16.4186 18.1455 16.319 18.1945C16.0201 18.3172 15.8706 18.5625 15.8457 18.857C15.8457 18.906 15.8457 18.9551 15.8457 19.0042C15.8457 19.0532 15.8706 19.1023 15.8706 19.1514L18.0625 25.8004C18.0625 25.8249 18.0874 25.8249 18.1123 25.8249L18.5607 25.6777C18.5856 25.6777 18.5856 25.6532 18.5856 25.6286L16.3937 18.9796C16.3937 18.9551 16.3688 18.9306 16.3688 18.906C16.3688 18.8079 16.3937 18.7588 16.4435 18.7098C16.4684 18.6852 16.5182 18.6607 16.5182 18.6607C16.5431 18.6607 16.5929 18.6362 16.6677 18.6362C16.7424 18.6362 16.8171 18.6607 16.8669 18.7588L20.4288 24.819C20.4288 24.8435 20.4537 24.8435 20.4786 24.8435L20.8771 24.6227C20.9021 24.6227 20.902 24.5981 20.902 24.5736L17.3402 18.5135Z" fill="#FF4713"/>
<path d="M14.5262 18.5327C14.1526 18.5572 13.8288 18.8762 13.8039 19.2442L13.0566 26.1876C13.0566 26.2121 13.0566 26.2121 13.0815 26.2367L13.5299 26.2857C13.5548 26.2857 13.5548 26.2857 13.5797 26.2612L14.327 19.2933C14.3519 19.0724 14.5511 19.0479 14.6009 19.0479C14.6508 19.0479 14.85 19.0479 14.8749 19.2933L15.6222 26.2612C15.6222 26.2857 15.6471 26.2857 15.672 26.2857L16.1203 26.2367C16.1452 26.2367 16.1452 26.2121 16.1452 26.1876L15.398 19.2197C15.3482 18.8026 14.9746 18.5081 14.5262 18.5327Z" fill="#FF4713"/>
<path d="M12.8819 18.1922C12.7325 18.1186 12.583 18.094 12.4336 18.1186C12.2094 18.1431 11.9852 18.2903 11.8607 18.5111L8.29883 24.5713C8.29883 24.5958 8.29883 24.6203 8.32374 24.6203L8.72227 24.8412C8.74717 24.8412 8.77208 24.8412 8.77208 24.8166L12.3339 18.7565C12.3838 18.6583 12.4585 18.6338 12.5332 18.6338C12.6079 18.6338 12.6577 18.6583 12.6827 18.6583C12.7076 18.6829 12.9068 18.7565 12.8321 18.9773L10.6402 25.6263C10.6402 25.6508 10.6402 25.6753 10.6651 25.6753L11.1134 25.8226C11.1384 25.8226 11.1633 25.8226 11.1633 25.798L13.3552 19.1736C13.405 18.781 13.2306 18.3394 12.8819 18.1922Z" fill="#FF4713"/>
<path d="M11.6116 17.8475C11.6365 17.7984 11.6365 17.7493 11.6365 17.6757C11.6365 17.4795 11.5618 17.3077 11.4373 17.1605C11.3874 17.1114 11.3376 17.0869 11.3127 17.0378C11.0387 16.8416 10.69 16.8416 10.3911 17.0378L4.61243 21.1597C4.58752 21.1597 4.58752 21.1842 4.61243 21.2088L4.88642 21.5768C4.88642 21.6013 4.91133 21.6013 4.93624 21.5768L10.69 17.4549C10.8644 17.3323 11.0138 17.4549 11.0387 17.4795C11.0387 17.4795 11.0387 17.4795 11.0636 17.504C11.0885 17.5285 11.1135 17.6021 11.1135 17.6512C11.1135 17.7003 11.0885 17.7739 11.0387 17.823L6.28127 23.0489C6.25637 23.0734 6.28127 23.0734 6.28127 23.098L6.62999 23.3924C6.6549 23.4169 6.6549 23.3924 6.6798 23.3924L11.4373 18.191C11.512 18.0928 11.5867 17.9702 11.6116 17.8475Z" fill="#FF4713"/>
<path d="M10.5404 15.667C10.4408 15.2989 10.117 15.0781 9.76825 15.0781C9.71844 15.0781 9.66862 15.0781 9.6188 15.1027L2.66944 16.5748C2.64453 16.5748 2.64453 16.5993 2.64453 16.6238L2.74416 17.0655C2.74416 17.09 2.76907 17.09 2.79398 17.09L9.74334 15.6424C9.76825 15.6424 9.79316 15.6424 9.81807 15.6424C9.99243 15.6424 10.0422 15.7896 10.0422 15.8142C10.0422 15.8632 10.117 16.035 9.89279 16.1331L3.39177 18.9792C3.36687 18.9792 3.36687 19.0037 3.36687 19.0283L3.56613 19.4699L10.0672 16.6238C10.4408 16.4521 10.6649 16.0595 10.5404 15.667Z" fill="#FF4713"/>
<path d="M26.7302 14.0703H2.44483C2.41992 14.0703 2.41992 14.0948 2.41992 14.0948V14.561C2.41992 14.5855 2.44483 14.5855 2.44483 14.5855H26.7302C26.7552 14.5855 26.7552 14.561 26.7552 14.561V14.0948C26.7552 14.0948 26.7552 14.0703 26.7302 14.0703Z" fill="#FF4713"/>
<path d="M2.66896 12.105L9.61832 13.5525C9.66814 13.5771 9.74286 13.5771 9.79268 13.5771C10.1414 13.5771 10.4403 13.3562 10.5399 12.9882C10.6396 12.6202 10.4403 12.2276 10.0667 12.0804L3.59056 9.23438C3.56565 9.23438 3.54074 9.23438 3.54074 9.25891L3.34148 9.676C3.34148 9.70054 3.34148 9.72507 3.36638 9.72507L9.89231 12.5711C10.0916 12.6693 10.0418 12.841 10.0418 12.8901C10.0418 12.9146 9.96704 13.0618 9.81759 13.0618C9.79268 13.0618 9.76777 13.0618 9.74286 13.0618L2.76859 11.5897C2.74368 11.5897 2.74368 11.5897 2.71877 11.6143L2.61914 12.0559C2.64405 12.0804 2.64405 12.105 2.66896 12.105Z" fill="#FF4713"/>
<path d="M11.8602 10.1708C12.0097 10.4161 12.2587 10.5634 12.5327 10.5634C12.6573 10.5634 12.7569 10.5388 12.8814 10.4897C13.2551 10.318 13.4294 9.90091 13.3049 9.50835L11.0881 2.88391C11.0881 2.85938 11.0631 2.85938 11.0382 2.85938L10.5899 3.00658C10.5899 3.03112 10.565 3.03112 10.565 3.05565L12.7569 9.70463C12.8316 9.92545 12.6573 9.99905 12.6075 10.0236C12.5825 10.0236 12.5327 10.0481 12.458 10.0481C12.3833 10.0481 12.3086 10.0236 12.2587 9.92545L8.74669 3.86531C8.74669 3.84077 8.72178 3.84077 8.69688 3.84077L8.29835 4.06159C8.27344 4.06159 8.27344 4.08612 8.27344 4.11066L11.8602 10.1708Z" fill="#FF4713"/>
<path d="M14.6493 10.1437C15.0229 10.1191 15.3467 9.80019 15.3716 9.43216L16.1189 2.48876C16.1189 2.46423 16.1189 2.46423 16.094 2.43969L15.6456 2.39062C15.6207 2.39062 15.6207 2.39062 15.5958 2.41516L14.8486 9.38309C14.8236 9.60391 14.6244 9.62844 14.5746 9.62844C14.5247 9.62844 14.3255 9.62844 14.3006 9.38309L13.5533 2.41516C13.5782 2.39062 13.5782 2.39062 13.5533 2.39062L13.105 2.43969C13.0801 2.43969 13.0801 2.46423 13.0801 2.48876L13.8273 9.4567C13.8522 9.87379 14.2009 10.1682 14.6493 10.1437Z" fill="#FF4713"/>
<path d="M15.8457 9.85184C15.8706 10.1463 16.0201 10.3916 16.319 10.5143C16.4186 10.5634 16.5431 10.5879 16.6428 10.5879C16.9168 10.5879 17.1658 10.4407 17.3153 10.1953L20.902 4.11066C20.902 4.08612 20.9021 4.06159 20.8771 4.06159L20.4786 3.84077C20.4537 3.84077 20.4288 3.84077 20.4288 3.86531L16.8669 9.92545C16.8171 9.99905 16.7673 10.0481 16.6926 10.0481H16.6677C16.5929 10.0481 16.5431 10.0236 16.5182 10.0236C16.4933 10.0236 16.4684 9.99905 16.4435 9.97452C16.3937 9.92545 16.3688 9.87638 16.3688 9.77824C16.3688 9.7537 16.3688 9.72917 16.3937 9.70463L18.5856 3.05565C18.5856 3.03112 18.5856 3.00658 18.5607 3.00658L18.1123 2.85938C18.0874 2.85938 18.0625 2.85938 18.0625 2.88391L15.8706 9.53289C15.8706 9.65556 15.8457 9.7537 15.8457 9.85184Z" fill="#FF4713"/>
<path d="M17.7641 11.5162C17.789 11.5653 17.8388 11.5898 17.8637 11.6144C18.0132 11.7125 18.1626 11.7861 18.337 11.7861C18.4864 11.7861 18.6608 11.737 18.8102 11.6389L24.564 7.51702C24.5889 7.51702 24.5889 7.49249 24.564 7.46795L24.29 7.09993C24.29 7.07539 24.2651 7.07539 24.2402 7.09993L18.5113 11.2218C18.337 11.3445 18.1875 11.2218 18.1626 11.1973C18.1377 11.1727 18.0879 11.1237 18.0879 11.0255C18.0879 11.001 18.0879 10.9519 18.1128 10.9028C18.1128 10.8783 18.1377 10.8538 18.1626 10.8292L22.9201 5.62783C22.945 5.6033 22.9201 5.6033 22.9201 5.57876L22.5714 5.28434C22.5464 5.25981 22.5464 5.28434 22.5215 5.28434L17.7641 10.4858C17.4901 10.7802 17.4901 11.2218 17.7641 11.5162Z" fill="#FF4713"/>
<path d="M32.1302 12.6201C31.9559 12.4238 31.7317 12.2766 31.5075 12.1785C31.2584 12.0803 31.0094 12.0312 30.7354 12.0312C30.4365 12.0312 30.1376 12.0803 29.8636 12.203C29.5896 12.3257 29.3654 12.4729 29.1662 12.6692C28.9669 12.8654 28.8174 13.1353 28.7178 13.4297C28.6182 13.7242 28.5684 14.0677 28.5684 14.4357C28.5684 14.8037 28.6182 15.1472 28.7178 15.4416C28.8174 15.736 28.9669 15.9814 29.1662 16.2022C29.3654 16.3985 29.5896 16.5702 29.8636 16.6684C30.1376 16.791 30.4365 16.8401 30.7354 16.8401C31.2335 16.8401 31.6321 16.7174 31.9808 16.4475C32.3295 16.1777 32.5537 15.8096 32.7031 15.3189V15.2944L32.6782 15.2699H31.931C31.931 15.2699 31.906 15.2699 31.906 15.2944L31.8811 15.3189C31.7815 15.5888 31.657 15.7851 31.4577 15.9323C31.2833 16.055 31.0343 16.1286 30.7603 16.1286C30.3867 16.1286 30.0628 16.0059 29.8387 15.7606C29.5896 15.5152 29.4651 15.1472 29.4401 14.681H32.728C32.728 14.681 32.7529 14.681 32.7529 14.6565L32.7778 14.632C32.7778 14.1658 32.7031 13.7732 32.6035 13.4297C32.454 13.0863 32.3046 12.8164 32.1302 12.6201ZM31.8811 13.945L31.8562 13.9695H29.4401C29.5149 13.577 29.6394 13.2825 29.8885 13.0617C30.1127 12.8654 30.3867 12.7428 30.7354 12.7428C31.0592 12.7428 31.3332 12.8409 31.5324 13.0372C31.7317 13.2335 31.8562 13.5279 31.906 13.9204C31.8811 13.945 31.8811 13.945 31.8811 13.945Z" fill="#231F20"/>
<path d="M35.7168 12.0312C35.4179 12.0312 35.1688 12.0803 34.9447 12.203C34.7205 12.3257 34.5212 12.4974 34.3967 12.7182L34.3718 12.7428C34.3469 12.7428 34.3469 12.7673 34.322 12.7673H34.2971V12.203C34.2971 12.1785 34.2722 12.1539 34.2472 12.1539H33.5498C33.5249 12.1539 33.5 12.1785 33.5 12.203V16.6438C33.5 16.6684 33.5249 16.6929 33.5498 16.6929H34.2971C34.322 16.6929 34.3469 16.6684 34.3469 16.6438V14.1167C34.3469 13.9204 34.3718 13.7242 34.4465 13.5524C34.4963 13.3807 34.596 13.2335 34.6956 13.1108C34.7952 12.9881 34.9447 12.89 35.0941 12.8409C35.2436 12.7673 35.393 12.7428 35.5674 12.7428C36.1153 12.7428 36.3893 13.0372 36.3893 13.626V16.6438C36.3893 16.6684 36.4142 16.6929 36.4392 16.6929H37.1864C37.2113 16.6929 37.2362 16.6684 37.2362 16.6438V13.626C37.2362 13.1108 37.1117 12.7182 36.8626 12.4238C36.6135 12.1294 36.1901 12.0312 35.7168 12.0312Z" fill="#231F20"/>
<path d="M41.5208 12.6201C41.3465 12.4238 41.1223 12.2766 40.8981 12.1785C40.6491 12.0803 40.4 12.0312 40.126 12.0312C39.8271 12.0312 39.5282 12.0803 39.2542 12.203C38.9802 12.3257 38.756 12.4729 38.5568 12.6692C38.3575 12.8654 38.2081 13.1353 38.1084 13.4297C38.0088 13.7242 37.959 14.0677 37.959 14.4357C37.959 14.8037 38.0088 15.1472 38.1084 15.4416C38.2081 15.736 38.3575 15.9814 38.5568 16.2022C38.756 16.3985 38.9802 16.5702 39.2542 16.6684C39.5282 16.791 39.8271 16.8401 40.126 16.8401C40.6242 16.8401 41.0227 16.7174 41.3714 16.4475C41.7201 16.1777 41.9443 15.8096 42.0937 15.3189V15.2944L42.0688 15.2699H41.3216C41.3216 15.2699 41.2967 15.2699 41.2967 15.2944L41.2718 15.3189C41.1721 15.5888 41.0476 15.7851 40.8483 15.9323C40.674 16.055 40.4249 16.1286 40.1509 16.1286C39.7773 16.1286 39.4535 16.0059 39.2293 15.7606C38.9802 15.5152 38.8557 15.1472 38.8308 14.681H42.1186C42.1186 14.681 42.1435 14.681 42.1435 14.6565L42.1685 14.632C42.1685 14.1658 42.0937 13.7732 41.9941 13.4297C41.8446 13.0863 41.6952 12.8164 41.5208 12.6201ZM41.2718 13.945L41.2469 13.9695H38.8308C38.9055 13.577 39.03 13.2825 39.2791 13.0617C39.5282 12.8409 39.7773 12.7428 40.126 12.7428C40.4747 12.7428 40.7238 12.8409 40.923 13.0372C41.1223 13.2335 41.2469 13.5279 41.2967 13.9204C41.2967 13.945 41.2967 13.945 41.2718 13.945Z" fill="#231F20"/>
<path d="M45.2823 12.1484H44.6845C44.535 12.1484 44.4105 12.173 44.3109 12.1975C44.2112 12.222 44.1116 12.2711 44.0618 12.3202C43.9871 12.3693 43.9373 12.4183 43.8874 12.4919C43.8376 12.5655 43.8127 12.6391 43.7629 12.7127C43.7629 12.7373 43.738 12.7618 43.7131 12.7618V12.1975C43.7131 12.173 43.6882 12.1484 43.6633 12.1484H42.9658C42.9409 12.1484 42.916 12.173 42.916 12.1975V16.6383C42.916 16.6629 42.9409 16.6874 42.9658 16.6874H43.7131C43.738 16.6874 43.7629 16.6629 43.7629 16.6383V14.0622C43.7629 13.6451 43.8376 13.3507 43.9622 13.1789C44.0867 13.0072 44.3109 12.9336 44.6596 12.9336H45.3321C45.357 12.9336 45.3819 12.909 45.3819 12.8845V12.1975C45.3321 12.1484 45.3072 12.1484 45.2823 12.1484Z" fill="#231F20"/>
<path d="M49.6914 12.1539H48.9441C48.9192 12.1539 48.8943 12.1785 48.8943 12.203V12.7182C48.8943 12.7428 48.8943 12.7428 48.8694 12.7182C48.72 12.4974 48.5456 12.3257 48.3214 12.203C48.0972 12.0803 47.8482 12.0312 47.5991 12.0312C47.3251 12.0312 47.0511 12.0803 46.8269 12.203C46.5779 12.3257 46.3786 12.4729 46.2042 12.6692C46.0299 12.8654 45.9053 13.1108 45.8057 13.3807C45.7061 13.6506 45.6562 13.9695 45.6562 14.313C45.6562 14.632 45.7061 14.9509 45.8057 15.2453C45.9053 15.5398 46.0299 15.7606 46.2042 15.9814C46.3786 16.1777 46.6028 16.3494 46.8269 16.4475C47.076 16.5702 47.35 16.6193 47.624 16.6193C47.8731 16.6193 48.1222 16.5702 48.3214 16.4721C48.5207 16.3739 48.695 16.2022 48.8445 15.9568C48.8694 15.9323 48.8694 15.9323 48.8694 15.9568V16.2022C48.8694 16.6193 48.7698 16.9382 48.5954 17.1591C48.4211 17.3799 48.1222 17.5025 47.7236 17.5025C47.3998 17.5025 47.1507 17.4535 46.9764 17.3308C46.802 17.2081 46.6775 17.0609 46.6277 16.8401C46.6277 16.8156 46.6028 16.791 46.5779 16.791H45.8057C45.7808 16.791 45.7559 16.8156 45.7808 16.8401C45.8306 17.0609 45.9053 17.2572 46.005 17.4289C46.1295 17.6007 46.254 17.7479 46.4284 17.846C46.6028 17.9442 46.802 18.0423 47.0262 18.0914C47.2504 18.1405 47.4745 18.165 47.7236 18.165C48.3712 18.165 48.8694 17.9932 49.1932 17.6498C49.5419 17.3063 49.6914 16.8401 49.6914 16.2513V12.203C49.7163 12.1539 49.7163 12.1539 49.6914 12.1539ZM48.8445 14.8773C48.7947 15.0736 48.7449 15.2453 48.6452 15.3925C48.5456 15.5397 48.446 15.6624 48.2716 15.7606C48.1222 15.8587 47.9229 15.9078 47.6987 15.9078C47.3251 15.9078 47.0262 15.7606 46.802 15.4661C46.6028 15.1717 46.4782 14.8037 46.4782 14.313C46.4782 13.8223 46.5779 13.4543 46.802 13.1599C47.0013 12.8654 47.3002 12.7182 47.6987 12.7182C47.9229 12.7182 48.1222 12.7673 48.2716 12.8654C48.4211 12.9636 48.5456 13.0863 48.6452 13.2335C48.7449 13.3807 48.7947 13.5524 48.8445 13.7487C48.8943 13.945 48.8943 14.1167 48.8943 14.313C48.8943 14.5093 48.8694 14.7056 48.8445 14.8773Z" fill="#231F20"/>
<path d="M51.4843 12.1484H50.7373C50.7373 12.1484 50.7124 12.1484 50.7124 12.173L50.6875 12.1975V16.6383C50.6875 16.6383 50.6875 16.6629 50.7124 16.6629L50.7373 16.6874H51.4843C51.4843 16.6874 51.5092 16.6874 51.5092 16.6629L51.5341 16.6383V12.1975C51.5341 12.1975 51.5341 12.173 51.5092 12.173C51.5092 12.1484 51.5092 12.1484 51.4843 12.1484Z" fill="#231F20"/>
<path d="M56.3159 12.1539H55.5686C55.5437 12.1539 55.5188 12.1785 55.5188 12.203V12.7182C55.5188 12.7428 55.5188 12.7428 55.4939 12.7182C55.3445 12.4974 55.1701 12.3257 54.9459 12.203C54.7218 12.0803 54.4727 12.0312 54.1987 12.0312C53.8749 12.0312 53.576 12.1049 53.3269 12.2521C53.0778 12.3993 52.8786 12.571 52.7291 12.7918C52.5797 13.0126 52.4551 13.2825 52.3804 13.5524C52.3057 13.8468 52.2559 14.1167 52.2559 14.4111C52.2559 14.7056 52.3057 15 52.3804 15.2699C52.4551 15.5643 52.5797 15.8096 52.7291 16.0304C52.8786 16.2513 53.0778 16.4475 53.3269 16.5702C53.576 16.7174 53.85 16.791 54.1987 16.791C54.4727 16.791 54.7218 16.742 54.9459 16.6193C55.1701 16.4966 55.3694 16.3249 55.4939 16.1041C55.5188 16.0795 55.5188 16.0795 55.5188 16.1041V16.6193C55.5188 16.6438 55.5437 16.6684 55.5686 16.6684H56.3159C56.3408 16.6684 56.3657 16.6438 56.3657 16.6193V12.203C56.3657 12.1539 56.3408 12.1539 56.3159 12.1539ZM55.4939 15C55.469 15.1963 55.3943 15.368 55.2947 15.5397C55.195 15.7115 55.0705 15.8342 54.921 15.9323C54.7716 16.0304 54.5723 16.0795 54.3232 16.0795C53.9496 16.0795 53.6507 15.9323 53.4265 15.6379C53.2273 15.3435 53.1027 14.9264 53.1027 14.4111C53.1027 13.8714 53.2024 13.4788 53.4265 13.1844C53.6258 12.89 53.9247 12.7428 54.3232 12.7428C54.5723 12.7428 54.7467 12.7918 54.921 12.89C55.0705 12.9881 55.195 13.1353 55.2947 13.2825C55.3943 13.4543 55.4441 13.626 55.4939 13.8223C55.5188 14.0186 55.5437 14.2149 55.5437 14.4111C55.5437 14.6074 55.5188 14.8037 55.4939 15Z" fill="#231F20"/>
<path d="M61.5963 12.1484H60.9985C60.849 12.1484 60.7245 12.173 60.6248 12.1975C60.5252 12.222 60.4256 12.2711 60.3758 12.3202C60.301 12.3693 60.2512 12.4183 60.2014 12.4919C60.1516 12.5655 60.1267 12.6391 60.0769 12.7127C60.0769 12.7373 60.052 12.7618 60.027 12.7618V12.1975C60.027 12.173 60.0021 12.1484 59.9772 12.1484H59.2549C59.23 12.1484 59.2051 12.173 59.2051 12.1975V16.6383C59.2051 16.6629 59.23 16.6874 59.2549 16.6874H60.0021C60.027 16.6874 60.052 16.6629 60.052 16.6383V14.0622C60.052 13.6451 60.1267 13.3507 60.2512 13.1789C60.3758 13.0072 60.5999 12.9336 60.9486 12.9336H61.6212C61.6461 12.9336 61.671 12.909 61.671 12.8845V12.1975C61.6461 12.1484 61.6212 12.1484 61.5963 12.1484Z" fill="#231F20"/>
<path d="M65.5072 12.6201C65.3328 12.4238 65.1086 12.2766 64.8845 12.1785C64.6354 12.0803 64.3863 12.0312 64.1123 12.0312C63.8134 12.0312 63.5145 12.0803 63.2405 12.203C62.9665 12.3257 62.7424 12.4729 62.5431 12.6692C62.3438 12.8654 62.1944 13.1353 62.0948 13.4297C61.9951 13.7242 61.9453 14.0677 61.9453 14.4357C61.9453 14.8037 61.9951 15.1472 62.0948 15.4416C62.1944 15.736 62.3438 15.9814 62.5431 16.2022C62.7424 16.3985 62.9665 16.5702 63.2405 16.6684C63.5145 16.791 63.8134 16.8401 64.1123 16.8401C64.6105 16.8401 65.009 16.7174 65.3577 16.4475C65.7064 16.1777 65.9306 15.8096 66.0801 15.3189V15.2944L66.0551 15.2699H65.3079C65.3079 15.2699 65.283 15.2699 65.283 15.2944L65.2581 15.3189C65.1585 15.5888 65.0339 15.7851 64.8347 15.9323C64.6603 16.055 64.4112 16.1286 64.1372 16.1286C63.7636 16.1286 63.4398 16.0059 63.2156 15.7606C62.9665 15.5152 62.842 15.1472 62.8171 14.681H66.105C66.105 14.681 66.1299 14.681 66.1299 14.6565L66.1548 14.632C66.1548 14.1658 66.0801 13.7732 65.9804 13.4297C65.831 13.0863 65.6815 12.8164 65.5072 12.6201ZM65.283 13.945L65.2581 13.9695H62.842C62.9167 13.577 63.0413 13.2825 63.2903 13.0617C63.5394 12.8409 63.7885 12.7428 64.1372 12.7428C64.4859 12.7428 64.735 12.8409 64.9343 13.0372C65.1336 13.2335 65.2581 13.5279 65.3079 13.9204C65.283 13.945 65.283 13.945 65.283 13.945Z" fill="#231F20"/>
<path d="M70.7378 12.1539H69.9905C69.9656 12.1539 69.9407 12.1785 69.9407 12.203V12.7182C69.9407 12.7428 69.9407 12.7428 69.9158 12.7182C69.7663 12.4974 69.592 12.3257 69.3678 12.203C69.1436 12.0803 68.8946 12.0312 68.6206 12.0312C68.2968 12.0312 67.9979 12.1049 67.7488 12.2521C67.4997 12.3993 67.3004 12.571 67.151 12.7918C67.0015 13.0126 66.877 13.2825 66.8023 13.5524C66.7276 13.8468 66.6777 14.1167 66.6777 14.4111C66.6777 14.7056 66.7276 15 66.8023 15.2699C66.877 15.5643 67.0015 15.8096 67.151 16.0304C67.3004 16.2513 67.4997 16.4475 67.7488 16.5702C67.9979 16.7174 68.2719 16.791 68.6206 16.791C68.8946 16.791 69.1436 16.742 69.3678 16.6193C69.592 16.4966 69.7912 16.3249 69.9158 16.1041C69.9407 16.0795 69.9407 16.0795 69.9407 16.1041V16.6193C69.9407 16.6438 69.9656 16.6684 69.9905 16.6684H70.7378C70.7627 16.6684 70.7876 16.6438 70.7876 16.6193V12.203C70.7627 12.1539 70.7627 12.1539 70.7378 12.1539ZM69.8909 15C69.866 15.1963 69.7913 15.368 69.6916 15.5397C69.592 15.7115 69.4674 15.8342 69.318 15.9323C69.1685 16.0304 68.9693 16.0795 68.7202 16.0795C68.3466 16.0795 68.0477 15.9323 67.8235 15.6379C67.6242 15.3435 67.4997 14.9264 67.4997 14.4111C67.4997 13.8714 67.5993 13.4788 67.8235 13.1844C68.0228 12.89 68.3217 12.7428 68.7202 12.7428C68.9693 12.7428 69.1436 12.7918 69.318 12.89C69.4674 12.9881 69.592 13.1353 69.6916 13.2825C69.7913 13.4297 69.8411 13.626 69.8909 13.8223C69.9158 14.0186 69.9407 14.2149 69.9407 14.4111C69.9407 14.6074 69.9407 14.8037 69.8909 15Z" fill="#231F20"/>
<path d="M72.5561 10.7042L72.5312 10.6797H71.7842C71.7842 10.6797 71.7593 10.6797 71.7593 10.7042L71.7344 10.7288V16.6417C71.7344 16.6417 71.7344 16.6662 71.7593 16.6662L71.7842 16.6908H72.5312C72.5312 16.6908 72.5561 16.6908 72.5561 16.6662L72.581 16.6417V10.7288C72.581 10.7288 72.581 10.7042 72.5561 10.7042Z" fill="#231F20"/>
<path d="M51.981 10.6305L51.9561 10.5078L50.4869 11.1457C50.4122 11.1948 50.3624 11.2684 50.3873 11.3665C50.4122 11.4401 50.4869 11.4892 50.5616 11.4892C50.5865 11.4892 50.5865 11.4892 50.6114 11.4892L52.1802 11.1703L52.1553 11.0476L51.981 10.6305Z" fill="#231F20"/>
</svg>
