<svg width="64" height="64" viewBox="0 0 64 64" fill="none" xmlns="http://www.w3.org/2000/svg">
<path d="M0 32C0 14.3269 14.3269 0 32 0C49.6731 0 64 14.3269 64 32C64 49.6731 49.6731 64 32 64C14.3269 64 0 49.6731 0 32Z" fill="#DE8F9A"/>
<path d="M28 39.3688C25.6088 37.9836 24 35.3947 24 32.4295C24 29.0675 26.0682 26.1893 29 25.0009M29 36.9357L29 40.9412H25M36 25.5724C38.3912 26.9575 40 29.5465 40 32.5117C40 35.8736 37.9318 38.7519 35 39.9403M35 28.0055V24L39 24" stroke="#792430" stroke-width="2" stroke-linecap="round" stroke-linejoin="round"/>
</svg>
