<svg width="64" height="64" viewBox="0 0 64 64" fill="none" xmlns="http://www.w3.org/2000/svg">
<path d="M0 32C0 14.3269 14.3269 0 32 0C49.6731 0 64 14.3269 64 32C64 49.6731 49.6731 64 32 64C14.3269 64 0 49.6731 0 32Z" fill="#FF4713" fill-opacity="0.5"/>
<path d="M31.9994 41.5984C31.9994 41.5984 39.5124 34.9202 39.5124 29.9115C39.5124 25.7621 36.1487 22.3984 31.9994 22.3984C27.85 22.3984 24.4863 25.7621 24.4863 29.9115C24.4863 34.9202 31.9994 41.5984 31.9994 41.5984Z" stroke="#FF4713" stroke-width="2"/>
<path d="M34.3997 29.5986C34.3997 30.9241 33.3252 31.9986 31.9997 31.9986C30.6742 31.9986 29.5997 30.9241 29.5997 29.5986C29.5997 28.2731 30.6742 27.1986 31.9997 27.1986C33.3252 27.1986 34.3997 28.2731 34.3997 29.5986Z" stroke="#FF4713" stroke-width="2"/>
</svg>
