<svg width="40" height="41" viewBox="0 0 40 41" fill="none" xmlns="http://www.w3.org/2000/svg">
<path d="M0 20.5C0 9.45431 8.95431 0.5 20 0.5C31.0457 0.5 40 9.45431 40 20.5C40 31.5457 31.0457 40.5 20 40.5C8.95431 40.5 0 31.5457 0 20.5Z" fill="#57B1B1"/>
<path d="M23.6008 22.8984C23.065 24.5748 21.7183 25.9153 20.0008 26.4984M20.0008 30.0984C16.0308 30.0984 12.8008 27.0564 12.8008 23.3171C12.8008 18.0984 20.0009 10.8984 20.0009 10.8984C20.0009 10.8984 27.2008 18.0984 27.2008 23.3171C27.2008 27.0564 23.9709 30.0984 20.0008 30.0984Z" stroke="white" stroke-width="2" stroke-linecap="round" stroke-linejoin="round"/>
</svg>
