<svg width="64" height="64" viewBox="0 0 64 64" fill="none" xmlns="http://www.w3.org/2000/svg">
<path d="M0 32C0 14.3269 14.3269 0 32 0C49.6731 0 64 14.3269 64 32C64 49.6731 49.6731 64 32 64C14.3269 64 0 49.6731 0 32Z" fill="#FED7AA"/>
<path fill-rule="evenodd" clip-rule="evenodd" d="M41 27L32 22L23 27V37L32 42L41 37V27ZM32 35.3333C33.9132 35.3333 35.4641 33.841 35.4641 32C35.4641 30.1591 33.9132 28.6667 32 28.6667C30.0868 28.6667 28.5359 30.1591 28.5359 32C28.5359 33.841 30.0868 35.3333 32 35.3333Z" stroke="#F97316" stroke-width="2" stroke-linejoin="round"/>
</svg>
