<svg width="64" height="64" viewBox="0 0 64 64" fill="none" xmlns="http://www.w3.org/2000/svg">
<path d="M0 32C0 14.3269 14.3269 0 32 0C49.6731 0 64 14.3269 64 32C64 49.6731 49.6731 64 32 64C14.3269 64 0 49.6731 0 32Z" fill="#FED7AA"/>
<g clip-path="url(#clip0_1983_16921)">
<path d="M32.282 19.9985C32.4984 20.101 32.5967 20.2095 32.7038 20.4204C32.7208 20.5429 32.7208 20.5429 32.7198 20.675C32.7198 20.7248 32.7198 20.7745 32.7198 20.8257C32.7191 20.8788 32.7183 20.932 32.7176 20.9867C32.7174 21.0415 32.7172 21.0963 32.717 21.1528C32.7162 21.3276 32.7144 21.5024 32.7126 21.6772C32.7119 21.7958 32.7113 21.9144 32.7107 22.0331C32.7092 22.3236 32.7068 22.6142 32.7038 22.9047C32.7425 22.914 32.7811 22.9233 32.8209 22.9328C32.8715 22.9452 32.9222 22.9575 32.9744 22.9702C33.0246 22.9824 33.0748 22.9946 33.1266 23.0071C33.2928 23.0526 33.4214 23.113 33.571 23.1977C33.7362 23.3002 33.7362 23.3002 33.9208 23.315C34.0314 23.2742 34.0847 23.2276 34.1666 23.1433C34.1947 23.1146 34.2229 23.086 34.2519 23.0565C34.2819 23.0254 34.3118 22.9943 34.3426 22.9622C34.3896 22.9145 34.3896 22.9145 34.4376 22.8657C34.5715 22.7295 34.7046 22.5925 34.8377 22.4555C34.9351 22.3556 35.0329 22.2561 35.1307 22.1566C35.1605 22.1257 35.1902 22.0947 35.2209 22.0629C35.413 21.8676 35.5914 21.7129 35.8708 21.6657C36.1356 21.6652 36.2963 21.6885 36.5007 21.8735C36.6837 22.0757 36.7097 22.2367 36.7131 22.4988C36.645 22.84 36.405 23.0642 36.1629 23.2949C36.0971 23.3592 36.0312 23.4235 35.9654 23.4878C35.862 23.588 35.7584 23.688 35.6546 23.7878C35.554 23.8847 35.4541 23.9824 35.3543 24.0801C35.3229 24.1099 35.2914 24.1397 35.259 24.1704C35.2305 24.1984 35.202 24.2264 35.1727 24.2553C35.1473 24.2797 35.122 24.3041 35.0959 24.3292C35.0372 24.4033 35.0372 24.4033 35.0593 24.4994C35.1285 24.6819 35.2198 24.8545 35.3067 25.0291C35.3645 25.1736 35.3981 25.2954 35.4269 25.4468C35.439 25.5097 35.439 25.5097 35.4514 25.5739C35.4574 25.6057 35.4633 25.6376 35.4695 25.6704C35.4994 25.6699 35.5293 25.6695 35.5601 25.6691C35.8719 25.6649 36.1836 25.6621 36.4954 25.6601C36.6117 25.6591 36.728 25.6578 36.8443 25.6562C37.0117 25.6539 37.179 25.6529 37.3463 25.6521C37.3982 25.6511 37.45 25.6501 37.5035 25.6491C37.7938 25.649 37.9687 25.6609 38.1882 25.8579C38.3784 26.1027 38.3651 26.3572 38.3288 26.6547C38.2263 26.8713 38.1177 26.9693 37.907 27.0766C37.7862 27.0935 37.7862 27.0935 37.6566 27.0926C37.5834 27.0926 37.5834 27.0926 37.5088 27.0925C37.4306 27.0915 37.4306 27.0915 37.3509 27.0903C37.2702 27.09 37.2702 27.09 37.1879 27.0897C37.0165 27.089 36.845 27.0872 36.6736 27.0854C36.5572 27.0847 36.4408 27.0841 36.3245 27.0835C36.0395 27.0819 35.7545 27.0796 35.4695 27.0766C35.4604 27.1147 35.4513 27.1528 35.442 27.192C35.4298 27.2423 35.4176 27.2925 35.405 27.3443C35.3931 27.394 35.3811 27.4437 35.3688 27.4948C35.3141 27.6925 35.2318 27.8662 35.1355 28.0463C35.1186 28.0792 35.1018 28.112 35.0844 28.1459C34.9633 28.3797 34.9633 28.3797 34.907 28.436C34.9369 28.4361 34.9668 28.4361 34.9977 28.4362C35.7266 28.4379 36.4554 28.4407 37.1843 28.4446C37.5368 28.4465 37.8892 28.448 38.2417 28.4487C38.549 28.4493 38.8563 28.4506 39.1635 28.4526C39.3262 28.4537 39.4888 28.4544 39.6515 28.4544C39.8332 28.4543 40.0148 28.4557 40.1965 28.4573C40.2503 28.457 40.3041 28.4568 40.3595 28.4566C40.6411 28.4603 40.8324 28.4684 41.0476 28.6704C41.1864 28.8675 41.2458 29.0712 41.3098 29.3003C41.3212 29.3401 41.3326 29.3798 41.3443 29.4207C41.3823 29.5537 41.4198 29.6867 41.4573 29.8198C41.4845 29.9152 41.5117 30.0106 41.5389 30.106C41.6127 30.365 41.6861 30.6241 41.7594 30.8832C41.8361 31.1542 41.9133 31.425 41.9904 31.6959C42.1363 32.2089 42.282 32.7221 42.4275 33.2353C42.6092 33.8762 42.7913 34.517 42.9735 35.1578C43.0371 35.3817 43.1008 35.6056 43.1644 35.8295C43.1798 35.8837 43.1952 35.9379 43.2111 35.9937C43.3177 36.3686 43.4241 36.7436 43.5305 37.1185C43.5726 37.267 43.6147 37.4154 43.6568 37.5638C43.6833 37.657 43.7097 37.7503 43.7362 37.8435C43.7721 37.9704 43.8081 38.0973 43.8442 38.2242C43.8547 38.2613 43.8652 38.2985 43.8761 38.3368C43.9153 38.475 43.9553 38.6122 44.0007 38.7485C44.0238 39.0107 44.0356 39.2373 43.9216 39.478C43.7599 39.6484 43.6456 39.7261 43.408 39.7502C43.3405 39.7508 43.2729 39.7506 43.2054 39.7498C43.1681 39.7499 43.1308 39.75 43.0923 39.7501C42.9673 39.7504 42.8424 39.7496 42.7175 39.7488C42.6278 39.7488 42.5382 39.7488 42.4486 39.7489C42.2053 39.7489 41.9621 39.7481 41.7188 39.7471C41.4645 39.7462 41.2103 39.7462 40.9561 39.746C40.4746 39.7456 39.9932 39.7444 39.5118 39.743C38.9637 39.7414 38.4156 39.7406 37.8675 39.7399C36.74 39.7385 35.6126 39.736 34.4851 39.7329C34.4915 39.7774 34.498 39.8219 34.5046 39.8678C34.5173 39.9558 34.5173 39.9558 34.5302 40.0456C34.5386 40.1036 34.547 40.1617 34.5556 40.2215C34.5852 40.4352 34.6084 40.649 34.629 40.8637C34.633 40.9048 34.6371 40.9458 34.6412 40.9882C34.6496 41.0735 34.6578 41.1589 34.666 41.2443C34.6786 41.3746 34.6914 41.5049 34.7043 41.6351C34.7124 41.7188 34.7205 41.8025 34.7286 41.8862C34.7324 41.9247 34.7362 41.9632 34.7402 42.0029C34.7589 42.2003 34.7704 42.3937 34.7663 42.5922C34.8174 42.5913 34.8685 42.5903 34.9211 42.5893C35.1114 42.5859 35.3016 42.5837 35.4919 42.5819C35.5741 42.581 35.6563 42.5797 35.7385 42.5781C35.857 42.5758 35.9754 42.5748 36.0939 42.5739C36.1303 42.573 36.1668 42.572 36.2044 42.571C36.4501 42.5709 36.5865 42.6183 36.782 42.7797C36.9721 43.0245 36.9589 43.2791 36.9226 43.5766C36.8206 43.792 36.7134 43.896 36.5007 43.9985C36.3743 44.0119 36.259 44.0177 36.1328 44.0167C36.096 44.0169 36.0592 44.0172 36.0214 44.0174C35.8984 44.0181 35.7754 44.0178 35.6524 44.0174C35.5642 44.0177 35.4759 44.018 35.3877 44.0184C35.1481 44.0192 34.9085 44.0192 34.6689 44.0189C34.4688 44.0188 34.2688 44.0191 34.0688 44.0193C33.597 44.02 33.1251 44.0199 32.6533 44.0194C32.1665 44.0189 31.6796 44.0195 31.1928 44.0208C30.7749 44.0218 30.3569 44.0221 29.9389 44.0219C29.6893 44.0217 29.4397 44.0218 29.1901 44.0226C28.9553 44.0233 28.7206 44.0232 28.4859 44.0223C28.3997 44.0221 28.3136 44.0222 28.2275 44.0227C28.1098 44.0234 27.9923 44.0228 27.8746 44.022C27.8406 44.0224 27.8066 44.0229 27.7715 44.0233C27.5352 44.0199 27.4019 43.9586 27.2195 43.811C27.0293 43.5662 27.0426 43.3116 27.0788 43.0141C27.1807 42.7991 27.2874 42.693 27.5007 42.5922C27.6384 42.5804 27.7657 42.5758 27.903 42.5785C27.9412 42.5787 27.9793 42.5789 28.0187 42.5791C28.14 42.5799 28.2612 42.5817 28.3826 42.5835C28.465 42.5842 28.5475 42.5848 28.63 42.5854C28.8317 42.5869 29.0334 42.5893 29.2351 42.5922C29.2385 42.5284 29.2385 42.5284 29.2421 42.4632C29.2708 41.9658 29.3141 41.4706 29.363 40.9748C29.3759 40.8444 29.3885 40.7139 29.401 40.5834C29.4091 40.4998 29.4173 40.4163 29.4255 40.3327C29.4292 40.294 29.4329 40.2553 29.4368 40.2154C29.4532 40.0506 29.4734 39.8928 29.5163 39.7329C29.4697 39.733 29.4231 39.7332 29.3751 39.7334C28.2414 39.7375 27.1076 39.7406 25.9739 39.7426C25.4256 39.7435 24.8773 39.7449 24.3291 39.747C23.8512 39.7489 23.3734 39.7501 22.8956 39.7505C22.6425 39.7507 22.3895 39.7513 22.1365 39.7527C21.8983 39.754 21.6602 39.7544 21.422 39.7541C21.3346 39.7541 21.2472 39.7545 21.1598 39.7552C21.0404 39.7561 20.921 39.7559 20.8016 39.7554C20.7671 39.756 20.7325 39.7565 20.6969 39.7571C20.4584 39.7543 20.3224 39.6994 20.1413 39.5454C19.9487 39.2909 19.9651 39.0557 20.0007 38.7485C20.0645 38.4286 20.1609 38.1163 20.2524 37.8034C20.2794 37.7088 20.3065 37.6141 20.3334 37.5194C20.4065 37.2635 20.4804 37.0079 20.5545 36.7524C20.6321 36.4844 20.7089 36.2162 20.7858 35.9481C20.9149 35.4981 21.0445 35.0482 21.1746 34.5985C21.3414 34.0216 21.5074 33.4444 21.673 32.8671C21.8156 32.3701 21.9586 31.8732 22.1017 31.3764C22.1476 31.2169 22.1934 31.0575 22.2393 30.898C22.3114 30.6475 22.3837 30.397 22.4562 30.1465C22.4827 30.0547 22.5092 29.9628 22.5356 29.8709C22.5717 29.7454 22.608 29.6199 22.6444 29.4945C22.6548 29.4583 22.6651 29.422 22.6758 29.3847C22.7744 29.047 22.8676 28.7684 23.1413 28.5297C23.2583 28.4713 23.3379 28.4764 23.4688 28.4754C23.543 28.4748 23.543 28.4748 23.6186 28.4741C23.7003 28.4737 23.7003 28.4737 23.7836 28.4732C23.8408 28.4728 23.8979 28.4723 23.9568 28.4718C24.1138 28.4706 24.2708 28.4696 24.4278 28.4686C24.5918 28.4676 24.7557 28.4663 24.9197 28.4651C25.2303 28.4627 25.5409 28.4606 25.8515 28.4586C26.2051 28.4563 26.5587 28.4537 26.9122 28.4511C27.6396 28.4458 28.3671 28.4408 29.0945 28.436C29.0688 28.3926 29.043 28.3491 29.0166 28.3044C28.9825 28.246 28.9484 28.1875 28.9143 28.1291C28.8974 28.1007 28.8805 28.0722 28.8631 28.0429C28.698 27.7584 28.532 27.4107 28.532 27.0766C28.5021 27.077 28.4721 27.0774 28.4413 27.0779C28.1296 27.082 27.8178 27.0849 27.506 27.0869C27.3897 27.0879 27.2734 27.0891 27.1571 27.0908C26.9898 27.093 26.8225 27.0941 26.6551 27.0949C26.6033 27.0959 26.5514 27.0969 26.498 27.0979C26.2077 27.0979 26.0328 27.0861 25.8132 26.8891C25.6231 26.6443 25.6363 26.3897 25.6726 26.0922C25.7752 25.8757 25.8837 25.7777 26.0945 25.6704C26.2152 25.6535 26.2152 25.6535 26.3448 25.6544C26.418 25.6544 26.418 25.6544 26.4927 25.6544C26.5448 25.6552 26.5969 25.6559 26.6506 25.6566C26.7312 25.6569 26.7312 25.6569 26.8135 25.6572C26.985 25.658 27.1564 25.6598 27.3279 25.6616C27.4442 25.6623 27.5606 25.6629 27.677 25.6635C27.962 25.665 28.247 25.6674 28.532 25.6704C28.5378 25.6386 28.5436 25.6069 28.5496 25.5742C28.5575 25.5324 28.5655 25.4905 28.5737 25.4474C28.5853 25.3853 28.5853 25.3853 28.5971 25.322C28.6454 25.1189 28.7434 24.9534 28.8459 24.7722C28.9318 24.6208 28.9318 24.6208 28.9429 24.4519C28.9013 24.343 28.8539 24.2887 28.7705 24.2076C28.7419 24.1795 28.7132 24.1513 28.6837 24.1223C28.6371 24.0774 28.6371 24.0774 28.5895 24.0316C28.5576 24.0002 28.5258 23.9689 28.4929 23.9367C28.3567 23.8027 28.2197 23.6697 28.0827 23.5365C27.9828 23.4391 27.8833 23.3413 27.7838 23.2435C27.7529 23.2137 27.722 23.184 27.6901 23.1533C27.4948 22.9612 27.3402 22.7828 27.2929 22.5034C27.2925 22.2386 27.3158 22.0779 27.5007 21.8735C27.703 21.6905 27.8639 21.6645 28.126 21.6611C28.4673 21.7292 28.6915 21.9692 28.9222 22.2113C28.9865 22.2772 29.0508 22.343 29.1151 22.4088C29.2153 22.5122 29.3152 22.6158 29.415 22.7196C29.5119 22.8202 29.6096 22.9201 29.7073 23.0199C29.7371 23.0514 29.7669 23.0828 29.7976 23.1152C29.8256 23.1437 29.8536 23.1722 29.8825 23.2015C29.9069 23.2269 29.9313 23.2522 29.9565 23.2783C30.0305 23.337 30.0305 23.337 30.1266 23.3149C30.3092 23.2458 30.4817 23.1544 30.6564 23.0675C30.8008 23.0097 30.9226 22.9761 31.074 22.9473C31.1369 22.9352 31.1369 22.9352 31.2011 22.9228C31.233 22.9169 31.2648 22.9109 31.2976 22.9047C31.2972 22.8742 31.2968 22.8437 31.2963 22.8123C31.2922 22.4945 31.2894 22.1766 31.2873 21.8587C31.2864 21.7402 31.2851 21.6216 31.2834 21.503C31.2812 21.3324 31.2801 21.1619 31.2793 20.9913C31.2778 20.9119 31.2778 20.9119 31.2764 20.831C31.2763 20.5386 31.2859 20.3599 31.4851 20.1391C31.7299 19.949 31.9845 19.9622 32.282 19.9985ZM30.314 25.1205C29.9379 25.63 29.8879 26.1823 29.9382 26.7954C30.0555 27.3637 30.416 27.8154 30.8757 28.1547C31.4057 28.4496 31.9823 28.5269 32.5779 28.4039C33.1166 28.2195 33.5801 27.8615 33.8589 27.3602C34.0996 26.8421 34.1756 26.2183 33.987 25.6674C33.7282 25.0788 33.3214 24.6494 32.7247 24.3989C31.8186 24.0747 30.9208 24.4193 30.314 25.1205ZM24.0788 29.8891C23.907 30.3473 23.7857 30.8232 23.657 31.2954C24.647 31.2954 25.637 31.2954 26.657 31.2954C26.7649 30.6571 26.7649 30.6571 26.7976 29.8891C25.9004 29.8891 25.0032 29.8891 24.0788 29.8891ZM28.2507 29.936C28.2043 30.3846 28.1579 30.8332 28.1101 31.2954C29.162 31.2954 30.2138 31.2954 31.2976 31.2954C31.2976 30.8313 31.2976 30.3672 31.2976 29.8891C30.7655 29.8878 30.7655 29.8878 30.2335 29.8868C30.0166 29.8865 29.7997 29.8862 29.5829 29.8856C29.4081 29.8851 29.2333 29.8848 29.0586 29.8847C28.9918 29.8846 28.925 29.8844 28.8581 29.8842C28.7649 29.8838 28.6716 29.8838 28.5783 29.8838C28.4985 29.8836 28.4985 29.8836 28.4171 29.8835C28.3007 29.8755 28.3007 29.8755 28.2507 29.936ZM32.7038 29.8891C32.7038 30.3532 32.7038 30.8172 32.7038 31.2954C33.7557 31.2954 34.8076 31.2954 35.8913 31.2954C35.9405 30.5242 35.9405 30.5242 35.7038 29.8891C35.6104 29.8847 35.5167 29.8836 35.4231 29.8838C35.333 29.8838 35.333 29.8838 35.2411 29.8838C35.1751 29.884 35.1091 29.8843 35.043 29.8845C34.9758 29.8846 34.9086 29.8847 34.8414 29.8847C34.6643 29.8849 34.4871 29.8854 34.3099 29.8859C34.0975 29.8865 33.8851 29.8867 33.6727 29.8869C33.3498 29.8874 33.0268 29.8883 32.7038 29.8891ZM37.2038 29.8891C37.2093 30.0093 37.2152 30.1294 37.2214 30.2495C37.2229 30.2824 37.2243 30.3153 37.2258 30.3492C37.2431 30.6725 37.2944 30.9698 37.3445 31.2954C38.3345 31.2954 39.3245 31.2954 40.3445 31.2954C40.2415 30.5294 40.2415 30.5294 39.9226 29.8891C39.8377 29.8847 39.7527 29.8836 39.6677 29.8838C39.6133 29.8838 39.5588 29.8838 39.5028 29.8838C39.4435 29.884 39.3843 29.8843 39.3233 29.8845C39.2329 29.8846 39.2329 29.8846 39.1406 29.8847C38.9801 29.8849 38.8196 29.8854 38.6591 29.8859C38.4954 29.8864 38.3317 29.8866 38.168 29.8868C37.8466 29.8873 37.5252 29.8881 37.2038 29.8891ZM23.282 32.7016C23.174 32.9836 23.174 32.9836 23.0824 33.2683C23.073 33.3008 23.0636 33.3333 23.0539 33.3668C23.0444 33.4005 23.0349 33.4341 23.0251 33.4688C23.0149 33.5045 23.0047 33.5402 22.9941 33.5769C22.9728 33.6515 22.9516 33.7261 22.9305 33.8007C22.898 33.9152 22.8652 34.0297 22.8324 34.1441C22.8116 34.2169 22.7909 34.2896 22.7702 34.3624C22.7604 34.3966 22.7506 34.4308 22.7405 34.4661C22.6901 34.6359 22.6901 34.6359 22.6726 34.811C23.8637 34.811 25.0548 34.811 26.282 34.811C26.398 33.7668 26.398 33.7668 26.5163 32.7016C25.449 32.7016 24.3817 32.7016 23.282 32.7016ZM27.9695 32.7016C27.8961 33.17 27.8961 33.17 27.8358 33.6391C27.8298 33.6932 27.8237 33.7473 27.8175 33.803C27.8116 33.8572 27.8056 33.9114 27.7995 33.9672C27.7933 34.0229 27.787 34.0785 27.7805 34.1359C27.7746 34.1895 27.7687 34.2431 27.7626 34.2983C27.7573 34.3462 27.752 34.3941 27.7465 34.4435C27.736 34.5656 27.7351 34.6884 27.7351 34.811C28.9107 34.811 30.0863 34.811 31.2976 34.811C31.2976 34.1149 31.2976 33.4188 31.2976 32.7016C30.1993 32.7016 29.101 32.7016 27.9695 32.7016ZM32.7038 32.7016C32.7038 33.3977 32.7038 34.0938 32.7038 34.811C33.8795 34.811 35.0551 34.811 36.2663 34.811C36.2324 34.3146 36.2324 34.3146 36.1858 33.8204C36.1798 33.7662 36.1738 33.7121 36.1677 33.6563C36.1615 33.6023 36.1554 33.5483 36.1492 33.4926C36.1431 33.4368 36.1369 33.381 36.1307 33.3234C36.1247 33.2699 36.1187 33.2164 36.1125 33.1612C36.1072 33.1133 36.1018 33.0655 36.0963 33.0162C36.0796 32.8779 36.0796 32.8779 36.032 32.7016C34.9337 32.7016 33.8354 32.7016 32.7038 32.7016ZM37.4851 32.7016C37.5624 33.3977 37.6398 34.0938 37.7195 34.811C38.9106 34.811 40.1017 34.811 41.3288 34.811C41.2073 34.3248 41.0832 33.8421 40.9451 33.3608C40.9284 33.302 40.9118 33.2431 40.8946 33.1825C40.8787 33.1269 40.8628 33.0712 40.8464 33.0138C40.8321 32.9638 40.8178 32.9139 40.8031 32.8624C40.7771 32.7521 40.7771 32.7521 40.7195 32.7016C40.6188 32.6972 40.518 32.6961 40.4172 32.6963C40.3857 32.6963 40.3541 32.6963 40.3216 32.6963C40.2169 32.6963 40.1121 32.6967 40.0074 32.697C39.9349 32.6971 39.8625 32.6972 39.79 32.6972C39.599 32.6974 39.408 32.6979 39.2169 32.6984C38.9879 32.699 38.7589 32.6992 38.5298 32.6994C38.1816 32.6999 37.8333 32.7008 37.4851 32.7016ZM22.2507 36.2172C22.1579 36.5305 22.0651 36.8437 21.9695 37.1665C21.9401 37.2651 21.9107 37.3637 21.8805 37.4653C21.8574 37.5437 21.8343 37.622 21.8113 37.7004C21.793 37.7612 21.793 37.7612 21.7745 37.8232C21.763 37.8622 21.7516 37.9012 21.7399 37.9414C21.7299 37.9751 21.7199 38.0089 21.7096 38.0436C21.6814 38.1533 21.6814 38.1533 21.6882 38.3266C22.2314 38.3277 22.7745 38.3285 23.3176 38.329C23.5698 38.3293 23.822 38.3296 24.0741 38.3302C24.3173 38.3307 24.5604 38.3309 24.8036 38.3311C24.8966 38.3311 24.9895 38.3313 25.0825 38.3316C25.2123 38.3319 25.342 38.332 25.4718 38.3319C25.5106 38.3321 25.5495 38.3323 25.5895 38.3324C25.7624 38.3487 25.7624 38.3487 25.907 38.2797C25.9245 38.1595 25.9394 38.04 25.9526 37.9192C25.9587 37.8645 25.9587 37.8645 25.965 37.8086C25.9736 37.731 25.9822 37.6534 25.9906 37.5758C26.0035 37.4581 26.0168 37.3404 26.0301 37.2228C26.0385 37.1473 26.0468 37.0718 26.0551 36.9964C26.061 36.9441 26.061 36.9441 26.0671 36.8908C26.0725 36.8404 26.0725 36.8404 26.078 36.789C26.0828 36.7455 26.0828 36.7455 26.0877 36.7011C26.0977 36.5401 26.0945 36.3785 26.0945 36.2172C24.826 36.2172 23.5576 36.2172 22.2507 36.2172ZM27.5476 36.2641C27.53 36.3844 27.5151 36.5039 27.502 36.6246C27.4979 36.6611 27.4938 36.6976 27.4896 36.7353C27.4809 36.8128 27.4724 36.8904 27.4639 36.968C27.4511 37.0858 27.4378 37.2034 27.4245 37.3211C27.4161 37.3966 27.4078 37.472 27.3995 37.5475C27.3955 37.5823 27.3916 37.6172 27.3875 37.653C27.3839 37.6866 27.3803 37.7203 27.3766 37.7549C27.3734 37.7839 27.3702 37.8129 27.3669 37.8428C27.3568 38.0038 27.3601 38.1653 27.3601 38.3266C28.6595 38.3266 29.9588 38.3266 31.2976 38.3266C31.2976 37.6305 31.2976 36.9344 31.2976 36.2172C30.6406 36.2159 30.6406 36.2159 29.9835 36.215C29.7157 36.2147 29.4479 36.2143 29.1802 36.2137C28.9644 36.2132 28.7486 36.2129 28.5328 36.2128C28.4503 36.2127 28.3677 36.2125 28.2852 36.2123C28.1701 36.2119 28.0549 36.2119 27.9397 36.2119C27.9053 36.2118 27.8708 36.2116 27.8353 36.2114C27.6781 36.1978 27.6781 36.1978 27.5476 36.2641ZM32.7038 36.2172C32.7038 36.9133 32.7038 37.6094 32.7038 38.3266C34.0032 38.3266 35.3026 38.3266 36.6413 38.3266C36.6122 37.8309 36.5803 37.3424 36.5242 36.8501C36.5181 36.7937 36.5119 36.7373 36.5057 36.6792C36.4997 36.6259 36.4937 36.5725 36.4875 36.5175C36.4822 36.4698 36.4768 36.4221 36.4713 36.373C36.4651 36.2662 36.4651 36.2662 36.407 36.2172C36.2914 36.2128 36.1772 36.2114 36.0617 36.2119C36.0075 36.2119 36.0075 36.2119 35.9522 36.2119C35.8323 36.2119 35.7123 36.2123 35.5923 36.2127C35.5094 36.2127 35.4264 36.2128 35.3435 36.2129C35.1247 36.213 34.9059 36.2135 34.6871 36.214C34.4249 36.2146 34.1626 36.2148 33.9003 36.2151C33.5015 36.2155 33.1027 36.2164 32.7038 36.2172ZM37.907 36.2172C37.9361 36.713 37.968 37.2015 38.0242 37.6938C38.0303 37.7502 38.0364 37.8066 38.0427 37.8646C38.0486 37.918 38.0546 37.9713 38.0608 38.0263C38.0661 38.074 38.0715 38.1217 38.077 38.1709C38.0832 38.2777 38.0832 38.2777 38.1413 38.3266C38.2712 38.3311 38.3998 38.3325 38.5296 38.3319C38.5703 38.3319 38.611 38.332 38.653 38.332C38.7881 38.3319 38.9233 38.3316 39.0585 38.3312C39.152 38.3311 39.2455 38.331 39.3389 38.331C39.5854 38.3308 39.832 38.3304 40.0785 38.3298C40.3298 38.3294 40.5812 38.3291 40.8325 38.3289C41.3261 38.3284 41.8197 38.3276 42.3132 38.3266C42.2103 37.6062 41.9531 36.9162 41.7507 36.2172C40.4823 36.2172 39.2138 36.2172 37.907 36.2172ZM30.9695 39.7329C30.8964 40.3802 30.8245 41.0275 30.7591 41.6757C30.7499 41.7679 30.7405 41.8601 30.7311 41.9523C30.7255 42.0087 30.7198 42.0652 30.714 42.1233C30.709 42.1732 30.704 42.2231 30.6989 42.2744C30.6857 42.4141 30.6857 42.4141 30.6882 42.5922C31.5545 42.5922 32.4207 42.5922 33.3132 42.5922C33.2342 41.6396 33.2342 41.6396 33.1462 40.6879C33.1403 40.6254 33.1343 40.5629 33.1284 40.5004C33.1226 40.4409 33.1168 40.3813 33.1109 40.3199C33.1058 40.2677 33.1008 40.2154 33.0956 40.1616C33.0793 40.018 33.0557 39.8754 33.032 39.7329C32.3513 39.7329 31.6707 39.7329 30.9695 39.7329Z" fill="#F97316"/>
</g>
<defs>
<clipPath id="clip0_1983_16921">
<rect width="24" height="24" fill="white" transform="translate(20 20)"/>
</clipPath>
</defs>
</svg>
