<svg width="64" height="64" viewBox="0 0 64 64" fill="none" xmlns="http://www.w3.org/2000/svg">
<path d="M0 32C0 14.3269 14.3269 0 32 0C49.6731 0 64 14.3269 64 32C64 49.6731 49.6731 64 32 64C14.3269 64 0 49.6731 0 32Z" fill="#57B1B1" fill-opacity="0.5"/>
<path d="M38.75 37.9531L35.4615 34.0769H33.3846L32 32.6923L34.7692 28.5385H39.6154M27.1538 25.0769L28.6224 26.5454C29.4114 27.3345 29.6544 28.518 29.2399 29.5541V29.5541C28.8163 30.6132 27.7905 31.3077 26.6498 31.3077H23.6923M41 32C41 36.9706 36.9706 41 32 41C27.0294 41 23 36.9706 23 32C23 27.0294 27.0294 23 32 23C36.9706 23 41 27.0294 41 32Z" stroke="#57B1B1" stroke-width="2" stroke-linecap="round" stroke-linejoin="round"/>
</svg>
