<svg width="24" height="24" viewBox="0 0 24 24" fill="none" xmlns="http://www.w3.org/2000/svg">
<path d="M8.3999 15.5999L15.5999 8.3999M8.9538 8.94924L8.93965 8.93495M15.0643 15.1226L15.0502 15.1083M7.92276 4.38723L6.90485 4.44922C5.58341 4.5297 4.5297 5.58342 4.44922 6.90485L4.38723 7.92276C4.35167 8.50667 4.12169 9.06187 3.73395 9.4999L3.05802 10.2635C2.18053 11.2548 2.18053 12.745 3.05802 13.7363L3.73395 14.4999C4.12169 14.9379 4.35167 15.4931 4.38723 16.077L4.44922 17.0949C4.5297 18.4164 5.58342 19.4701 6.90485 19.5506L7.92276 19.6126C8.50667 19.6481 9.06187 19.8781 9.4999 20.2658L10.2635 20.9418C11.2548 21.8193 12.745 21.8193 13.7363 20.9418L14.4999 20.2658C14.9379 19.8781 15.4931 19.6481 16.077 19.6126L17.0949 19.5506C18.4164 19.4701 19.4701 18.4164 19.5506 17.0949L19.6126 16.077C19.6481 15.4931 19.8781 14.9379 20.2658 14.4999L20.9418 13.7363C21.8193 12.745 21.8193 11.2548 20.9418 10.2635L20.2658 9.4999C19.8781 9.06187 19.6481 8.50667 19.6126 7.92276L19.5506 6.90485C19.4701 5.58341 18.4164 4.5297 17.0949 4.44922L16.077 4.38723C15.4931 4.35167 14.9379 4.12169 14.4999 3.73395L13.7363 3.05802C12.745 2.18053 11.2548 2.18053 10.2635 3.05802L9.4999 3.73395C9.06187 4.12169 8.50667 4.35167 7.92276 4.38723Z" stroke="white" stroke-width="2" stroke-linecap="round"/>
</svg>
