<svg width="41" height="41" viewBox="0 0 41 41" fill="none" xmlns="http://www.w3.org/2000/svg">
<path d="M0.5 20.5C0.5 9.45431 9.45431 0.5 20.5 0.5C31.5457 0.5 40.5 9.45431 40.5 20.5C40.5 31.5457 31.5457 40.5 20.5 40.5C9.45431 40.5 0.5 31.5457 0.5 20.5Z" fill="#FED7AA"/>
<g clip-path="url(#clip0_6304_49168)">
<path d="M17.7181 13.8178L17.3281 11.6016" stroke="#F97316" stroke-width="1.5" stroke-linecap="round" stroke-linejoin="round"/>
<path d="M14.8119 15.6659L12.9688 14.375" stroke="#F97316" stroke-width="1.5" stroke-linecap="round" stroke-linejoin="round"/>
<path d="M14.0678 19.0312L11.8516 19.4222" stroke="#F97316" stroke-width="1.5" stroke-linecap="round" stroke-linejoin="round"/>
<path d="M21.0781 14.5619L22.3681 12.7188" stroke="#F97316" stroke-width="1.5" stroke-linecap="round" stroke-linejoin="round"/>
<path d="M18.4999 22.0034C18.5721 20.7595 19.0068 19.5639 19.7506 18.5642C20.4943 17.5645 21.5145 16.8045 22.6852 16.3778C23.8559 15.9512 25.1259 15.8767 26.3385 16.1635C27.5511 16.4503 28.6531 17.0859 29.5087 17.9917C30.3642 18.8976 30.9358 20.0341 31.1529 21.2611C31.37 22.4881 31.2231 23.7517 30.7303 24.8962C30.2376 26.0406 29.4205 27.0157 28.38 27.7012C27.3394 28.3867 26.121 28.7524 24.8749 28.7534H17.3749C16.7765 28.7529 16.1853 28.6221 15.6425 28.3702C15.0997 28.1183 14.6181 27.7512 14.2313 27.2946C13.8445 26.838 13.5617 26.3026 13.4025 25.7257C13.2433 25.1488 13.2116 24.5442 13.3094 23.9538C13.4073 23.3634 13.6325 22.8014 13.9693 22.3068C14.3061 21.8121 14.7465 21.3967 15.26 21.0892C15.7735 20.7818 16.3477 20.5898 16.9428 20.5266C17.5378 20.4633 18.1396 20.5303 18.7062 20.7228" stroke="#F97316" stroke-width="1.5" stroke-linecap="round" stroke-linejoin="round"/>
<path d="M15.0921 21.192C14.6711 20.7025 14.3604 20.1281 14.181 19.5078C14.0017 18.8876 13.9579 18.236 14.0526 17.5974C14.1474 16.9587 14.3785 16.3479 14.7302 15.8065C15.0819 15.265 15.546 14.8056 16.091 14.4594C16.636 14.1132 17.2491 13.8883 17.8887 13.8001C18.5283 13.7118 19.1794 13.7622 19.7978 13.9478C20.4161 14.1335 20.9873 14.45 21.4726 14.8759C21.9578 15.3019 22.3457 15.8272 22.6099 16.4164" stroke="#F97316" stroke-width="1.5" stroke-linecap="round" stroke-linejoin="round"/>
</g>
<defs>
<clipPath id="clip0_6304_49168">
<rect width="24" height="24" fill="white" transform="translate(9.5 8.5)"/>
</clipPath>
</defs>
</svg>
