<svg width="64" height="64" viewBox="0 0 64 64" fill="none" xmlns="http://www.w3.org/2000/svg">
<path d="M0 32C0 14.3269 14.3269 0 32 0C49.6731 0 64 14.3269 64 32C64 49.6731 49.6731 64 32 64C14.3269 64 0 49.6731 0 32Z" fill="#A6CEE3" fill-opacity="0.5"/>
<path d="M29.6 41.5984H34.4M30.2 29.5984H33.8M26 28.3984C26 25.0847 28.6863 22.3984 32 22.3984C35.3137 22.3984 38 25.0847 38 28.3984C38 30.8588 36.5191 32.8726 34.4 33.7984V37.3984C34.4 38.0612 33.8627 38.5984 33.2 38.5984H30.8C30.1373 38.5984 29.6 38.0612 29.6 37.3984V33.8992C27.4809 32.9733 26 30.8588 26 28.3984Z" stroke="#57B1B1" stroke-width="2" stroke-linecap="round" stroke-linejoin="round"/>
</svg>
