<svg width="64" height="64" viewBox="0 0 64 64" fill="none" xmlns="http://www.w3.org/2000/svg">
<path d="M0 32C0 14.3269 14.3269 0 32 0C49.6731 0 64 14.3269 64 32C64 49.6731 49.6731 64 32 64C14.3269 64 0 49.6731 0 32Z" fill="#33A02C" fill-opacity="0.2"/>
<path d="M27.7294 39.512C27.205 39.6853 26.9204 40.2509 27.0937 40.7753C27.267 41.2997 27.8326 41.5843 28.3569 41.411L27.7294 39.512ZM33.8622 40.8462L33.7722 39.8502L33.8622 40.8462ZM37.3536 40.0769L37.7891 40.9771H37.7891L37.3536 40.0769ZM40.6897 37.0681L39.9153 36.4354L40.6897 37.0681ZM38.408 35.1854L39.1121 35.8955L38.408 35.1854ZM36.8715 36.7087L37.5756 37.4188L36.8715 36.7087ZM32.6984 36.3846C32.1461 36.3846 31.6984 36.8323 31.6984 37.3846C31.6984 37.9369 32.1461 38.3846 32.6984 38.3846V36.3846ZM40.335 34.9962L39.7836 35.8305L40.335 34.9962ZM29.224 34.4915L29.6682 35.3875H29.6682L29.224 34.4915ZM33.4001 34.1128L33.6611 33.1475H33.6611L33.4001 34.1128ZM35.0309 34.5538L34.7699 35.5191H34.7699L35.0309 34.5538ZM35.5476 36.4829L34.8435 35.7727L35.5476 36.4829ZM33.934 36.6745C33.5418 37.0633 33.5391 37.6965 33.9279 38.0887C34.3168 38.4809 34.9499 38.4836 35.3421 38.0948L33.934 36.6745ZM28.3569 41.411C28.4545 41.3788 28.6797 41.3518 29.1001 41.3815C29.5 41.4098 29.9683 41.4794 30.5079 41.5634C31.5286 41.7224 32.8321 41.9433 33.9521 41.8421L33.7722 39.8502C32.9526 39.9242 31.9284 39.7605 30.8156 39.5872C30.2883 39.5051 29.7382 39.4216 29.2411 39.3865C28.7643 39.3528 28.2137 39.352 27.7294 39.512L28.3569 41.411ZM33.9521 41.8421C35.4538 41.7065 36.2079 41.7421 37.7891 40.9771L36.9181 39.1767C35.7223 39.7553 35.3478 39.7079 33.7722 39.8502L33.9521 41.8421ZM37.7891 40.9771C39.219 40.2853 40.6284 38.7238 41.4642 37.7007L39.9153 36.4354C39.0698 37.4704 37.9056 38.699 36.9181 39.1767L37.7891 40.9771ZM37.7039 34.4753L36.1675 35.9986L37.5756 37.4188L39.1121 35.8955L37.7039 34.4753ZM35.2257 36.3846H32.6984V38.3846H35.2257V36.3846ZM36.1675 35.9986C35.9191 36.2448 35.5805 36.3846 35.2257 36.3846V38.3846C36.1054 38.3846 36.9509 38.0382 37.5756 37.4188L36.1675 35.9986ZM40.8864 34.162C39.8866 33.5011 38.5558 33.6307 37.7039 34.4753L39.1121 35.8955C39.2897 35.7194 39.572 35.6906 39.7836 35.8305L40.8864 34.162ZM41.4642 37.7007C42.4053 36.5487 42.046 34.9284 40.8864 34.162L39.7836 35.8305C40.0394 35.9995 40.0448 36.2769 39.9153 36.4354L41.4642 37.7007ZM23.7759 34.5385H26.8794V32.5385H23.7759V34.5385ZM26.6552 34.3077V41.2308H28.6552V34.3077H26.6552ZM26.8794 41H23.7759V43H26.8794V41ZM24 41.2308V34.3077H22V41.2308H24ZM23.7759 41C23.8915 41 24 41.0952 24 41.2308H22C22 42.216 22.8032 43 23.7759 43V41ZM26.6552 41.2308C26.6552 41.0952 26.7637 41 26.8794 41V43C27.852 43 28.6552 42.216 28.6552 41.2308H26.6552ZM26.8794 34.5385C26.7637 34.5385 26.6552 34.4432 26.6552 34.3077H28.6552C28.6552 33.3225 27.852 32.5385 26.8794 32.5385V34.5385ZM23.7759 32.5385C22.8032 32.5385 22 33.3225 22 34.3077H24C24 34.4432 23.8915 34.5385 23.7759 34.5385V32.5385ZM28.4873 35.9729L29.6682 35.3875L28.7799 33.5956L27.599 34.181L28.4873 35.9729ZM31.6529 34.9231H31.9711V32.9231H31.6529V34.9231ZM33.1391 35.0781L34.7699 35.5191L35.2919 33.5884L33.6611 33.1475L33.1391 35.0781ZM34.8435 35.7727L33.934 36.6745L35.3421 38.0948L36.2517 37.193L34.8435 35.7727ZM34.7699 35.5191C34.8963 35.5533 34.922 35.6949 34.8435 35.7727L36.2517 37.193C37.4369 36.0179 36.8897 34.0205 35.2919 33.5884L34.7699 35.5191ZM31.9711 34.9231C32.3657 34.9231 32.7585 34.9752 33.1391 35.0781L33.6611 33.1475C33.1102 32.9985 32.5419 32.9231 31.9711 32.9231V34.9231ZM29.6682 35.3875C30.284 35.0822 30.9635 34.9231 31.6529 34.9231V32.9231C30.6559 32.9231 29.6723 33.1532 28.7799 33.5956L29.6682 35.3875ZM36.7415 28.1538C36.7415 29.2928 35.8079 30.2308 34.6381 30.2308V32.2308C36.8962 32.2308 38.7415 30.4136 38.7415 28.1538H36.7415ZM34.6381 30.2308C33.4682 30.2308 32.5346 29.2928 32.5346 28.1538H30.5346C30.5346 30.4136 32.3799 32.2308 34.6381 32.2308V30.2308ZM32.5346 28.1538C32.5346 27.0149 33.4682 26.0769 34.6381 26.0769V24.0769C32.3799 24.0769 30.5346 25.8941 30.5346 28.1538H32.5346ZM34.6381 26.0769C35.8079 26.0769 36.7415 27.0149 36.7415 28.1538H38.7415C38.7415 25.8941 36.8962 24.0769 34.6381 24.0769V26.0769ZM31.5346 27.1538C30.3647 27.1538 29.4311 26.2159 29.4311 25.0769H27.4311C27.4311 27.3366 29.2764 29.1538 31.5346 29.1538V27.1538ZM29.4311 25.0769C29.4311 23.938 30.3647 23 31.5346 23V21C29.2764 21 27.4311 22.8172 27.4311 25.0769H29.4311ZM31.5346 23C32.7044 23 33.6381 23.938 33.6381 25.0769H35.6381C35.6381 22.8172 33.7927 21 31.5346 21V23Z" fill="#18D818"/>
</svg>
