<svg width="64" height="64" viewBox="0 0 64 64" fill="none" xmlns="http://www.w3.org/2000/svg">
<path d="M0 32C0 14.3269 14.3269 0 32 0C49.6731 0 64 14.3269 64 32C64 49.6731 49.6731 64 32 64C14.3269 64 0 49.6731 0 32Z" fill="#57B1B1" fill-opacity="0.5"/>
<path d="M32.0008 37.3984H32.057M36.2008 37.3984C36.2008 39.718 34.3204 41.5984 32.0008 41.5984C29.6812 41.5984 27.8008 39.718 27.8008 37.3984C27.8008 35.9712 28.5127 34.7102 29.6008 33.9513V24.7969C29.6008 23.4714 30.6753 22.3984 32.0008 22.3984C33.3263 22.3984 34.4008 23.473 34.4008 24.7984V33.9513C35.26 34.7203 36.2008 36.1545 36.2008 37.3984Z" stroke="#57B1B1" stroke-width="2" stroke-linecap="round" stroke-linejoin="round"/>
</svg>
