<svg width="41" height="40" viewBox="0 0 41 40" fill="none" xmlns="http://www.w3.org/2000/svg">
<path d="M0.5 20C0.5 8.95431 9.45431 0 20.5 0C31.5457 0 40.5 8.95431 40.5 20C40.5 31.0457 31.5457 40 20.5 40C9.45431 40 0.5 31.0457 0.5 20Z" fill="#57B1B1"/>
<path d="M22.3734 17.981C22.554 18.5029 23.1235 18.7796 23.6454 18.599C24.1674 18.4184 24.4441 17.8489 24.2635 17.327L22.3734 17.981ZM21.6984 16.4318L21.7424 15.4327C21.7277 15.4321 21.7131 15.4318 21.6984 15.4318V16.4318ZM19.2984 20.0984V21.0984V20.0984ZM21.6984 23.7651V24.7651V23.7651ZM19.2984 23.7651L19.2545 24.7641C19.2691 24.7648 19.2838 24.7651 19.2984 24.7651V23.7651ZM18.6235 22.2159C18.4429 21.6939 17.8733 21.4173 17.3514 21.5979C16.8295 21.7785 16.5528 22.348 16.7334 22.8699L18.6235 22.2159ZM21.4984 14.5984C21.4984 14.0462 21.0507 13.5984 20.4984 13.5984C19.9462 13.5984 19.4984 14.0462 19.4984 14.5984H21.4984ZM19.4984 16.4318C19.4984 16.9841 19.9462 17.4318 20.4984 17.4318C21.0507 17.4318 21.4984 16.9841 21.4984 16.4318H19.4984ZM21.4984 23.7651C21.4984 23.2128 21.0507 22.7651 20.4984 22.7651C19.9462 22.7651 19.4984 23.2128 19.4984 23.7651H21.4984ZM19.4984 25.5984C19.4984 26.1507 19.9462 26.5984 20.4984 26.5984C21.0507 26.5984 21.4984 26.1507 21.4984 25.5984H19.4984ZM23.3184 17.654L24.2635 17.327C24.0798 16.7962 23.7433 16.3306 23.2945 15.9919L22.6922 16.7902L22.0899 17.5885C22.2185 17.6855 22.3182 17.8215 22.3734 17.981L23.3184 17.654ZM22.6922 16.7902L23.2945 15.9919C22.8454 15.6531 22.3049 15.4575 21.7424 15.4327L21.6984 16.4318L21.6545 17.4308C21.8099 17.4376 21.9616 17.4917 22.0899 17.5885L22.6922 16.7902ZM21.6984 16.4318V15.4318H19.2984V16.4318V17.4318H21.6984V16.4318ZM19.2984 16.4318V15.4318C18.5498 15.4318 17.8357 15.7348 17.3121 16.2681L18.0256 16.9687L18.7392 17.6693C18.8907 17.515 19.0922 17.4318 19.2984 17.4318V16.4318ZM18.0256 16.9687L17.3121 16.2681C16.7891 16.8009 16.4984 17.5195 16.4984 18.2651H17.4984H18.4984C18.4984 18.0382 18.5871 17.8243 18.7392 17.6693L18.0256 16.9687ZM17.4984 18.2651H16.4984C16.4984 19.0107 16.7891 19.7294 17.3121 20.2621L18.0256 19.5615L18.7392 18.8609C18.5871 18.7059 18.4984 18.492 18.4984 18.2651H17.4984ZM18.0256 19.5615L17.3121 20.2621C17.8357 20.7954 18.5498 21.0984 19.2984 21.0984V20.0984V19.0984C19.0922 19.0984 18.8907 19.0152 18.7392 18.8609L18.0256 19.5615ZM19.2984 20.0984V21.0984H21.6984V20.0984V19.0984H19.2984V20.0984ZM21.6984 20.0984V21.0984C21.9046 21.0984 22.1062 21.1817 22.2577 21.336L22.9712 20.6354L23.6848 19.9348C23.1612 19.4015 22.447 19.0984 21.6984 19.0984V20.0984ZM22.9712 20.6354L22.2577 21.336C22.4098 21.4909 22.4984 21.7049 22.4984 21.9318H23.4984H24.4984C24.4984 21.1862 24.2078 20.4675 23.6848 19.9348L22.9712 20.6354ZM23.4984 21.9318H22.4984C22.4984 22.1586 22.4098 22.3726 22.2577 22.5275L22.9712 23.2281L23.6848 23.9287C24.2078 23.396 24.4984 22.6774 24.4984 21.9318H23.4984ZM22.9712 23.2281L22.2577 22.5275C22.1062 22.6818 21.9046 22.7651 21.6984 22.7651V23.7651V24.7651C22.447 24.7651 23.1612 24.462 23.6848 23.9287L22.9712 23.2281ZM21.6984 23.7651V22.7651H19.2984V23.7651V24.7651H21.6984V23.7651ZM19.2984 23.7651L19.3424 22.7661C19.187 22.7592 19.0353 22.7052 18.9069 22.6084L18.3047 23.4067L17.7024 24.205C18.1515 24.5438 18.692 24.7394 19.2545 24.7641L19.2984 23.7651ZM18.3047 23.4067L18.9069 22.6084C18.7784 22.5114 18.6786 22.3753 18.6235 22.2159L17.6784 22.5429L16.7334 22.8699C16.9171 23.4007 17.2535 23.8663 17.7024 24.205L18.3047 23.4067ZM20.4984 14.5984H19.4984V16.4318H20.4984H21.4984V14.5984H20.4984ZM20.4984 23.7651H19.4984V25.5984H20.4984H21.4984V23.7651H20.4984ZM30.0984 19.9984H29.0984C29.0984 24.7481 25.2481 28.5984 20.4984 28.5984V29.5984V30.5984C26.3527 30.5984 31.0984 25.8527 31.0984 19.9984H30.0984ZM20.4984 29.5984V28.5984C15.7488 28.5984 11.8984 24.7481 11.8984 19.9984H10.8984H9.89844C9.89844 25.8527 14.6442 30.5984 20.4984 30.5984V29.5984ZM10.8984 19.9984H11.8984C11.8984 15.2488 15.7488 11.3984 20.4984 11.3984V10.3984V9.39844C14.6442 9.39844 9.89844 14.1442 9.89844 19.9984H10.8984ZM20.4984 10.3984V11.3984C25.2481 11.3984 29.0984 15.2488 29.0984 19.9984H30.0984H31.0984C31.0984 14.1442 26.3527 9.39844 20.4984 9.39844V10.3984Z" fill="white"/>
</svg>
