<svg width="64" height="64" viewBox="0 0 64 64" fill="none" xmlns="http://www.w3.org/2000/svg">
<path d="M0 32C0 14.3269 14.3269 0 32 0C49.6731 0 64 14.3269 64 32C64 49.6731 49.6731 64 32 64C14.3269 64 0 49.6731 0 32Z" fill="#FED7AA"/>
<path d="M45.3624 30.7303H18.6376C18.285 30.7303 18 30.4452 18 30.0927V28.4501C18 28.0975 18.285 27.8125 18.6376 27.8125H45.3624C45.715 27.8125 46 28.0975 46 28.4501V30.0927C46 30.4452 45.7075 30.7303 45.3624 30.7303Z" stroke="#F97316" stroke-miterlimit="10"/>
<path d="M45.3624 46.1209H18.6376C18.285 46.1209 18 45.8359 18 45.4833V43.8407C18 43.4882 18.285 43.2031 18.6376 43.2031H45.3624C45.715 43.2031 46 43.4882 46 43.8407V45.4833C46 45.8359 45.7075 46.1209 45.3624 46.1209Z" stroke="#F97316" stroke-miterlimit="10"/>
<path d="M19.4023 30.7344V43.208" stroke="#F97316" stroke-miterlimit="10"/>
<path d="M23.9551 30.7344V31.957" stroke="#F97316" stroke-miterlimit="10"/>
<path d="M31.9355 30.7344V31.957" stroke="#F97316" stroke-miterlimit="10"/>
<path d="M39.9609 30.7344V31.957" stroke="#F97316" stroke-miterlimit="10"/>
<path d="M44.4766 30.7344V43.208" stroke="#F97316" stroke-miterlimit="10"/>
<path d="M31.463 33.906L27.5252 40.7316C27.3376 41.0616 27.5702 41.4666 27.9527 41.4666H35.8284C36.2034 41.4666 36.4434 41.0616 36.2559 40.7316L32.3181 33.906C32.1231 33.5834 31.6505 33.5834 31.463 33.906Z" stroke="#F97316" stroke-miterlimit="10"/>
<path d="M32.1539 36.7031L31.2988 38.3458H32.4614L31.4263 40.1534" stroke="#F97316" stroke-miterlimit="10"/>
<path d="M22.793 26.4766V27.6992" stroke="#F97316" stroke-miterlimit="10"/>
<path d="M24.9902 26.4766V27.6992" stroke="#F97316" stroke-miterlimit="10"/>
<path d="M23.9551 17.875V19.2851" stroke="#F97316" stroke-miterlimit="10"/>
<path d="M26.1987 21.6743H21.7583C21.5708 21.6743 21.4432 21.4868 21.5033 21.3142L22.1858 19.4616C22.2233 19.3566 22.3283 19.2891 22.4408 19.2891H25.5536C25.6661 19.2891 25.7711 19.3641 25.8086 19.4691L26.4462 21.3217C26.5137 21.4943 26.3862 21.6743 26.1987 21.6743Z" stroke="#F97316" stroke-miterlimit="10"/>
<path d="M26.1987 24.0805H21.7583C21.5708 24.0805 21.4432 23.893 21.5033 23.7205L22.1858 21.8678C22.2233 21.7628 22.3283 21.6953 22.4408 21.6953H25.5536C25.6661 21.6953 25.7711 21.7703 25.8086 21.8753L26.4462 23.728C26.5137 23.9005 26.3862 24.0805 26.1987 24.0805Z" stroke="#F97316" stroke-miterlimit="10"/>
<path d="M26.1987 26.479H21.7583C21.5708 26.479 21.4432 26.2914 21.5033 26.1189L22.1858 24.2663C22.2233 24.1613 22.3283 24.0938 22.4408 24.0938H25.5536C25.6661 24.0938 25.7711 24.1688 25.8086 24.2738L26.4462 26.1264C26.5137 26.2989 26.3862 26.479 26.1987 26.479Z" stroke="#F97316" stroke-miterlimit="10"/>
<path d="M30.7812 26.4766V27.6992" stroke="#F97316" stroke-miterlimit="10"/>
<path d="M32.9785 26.4766V27.6992" stroke="#F97316" stroke-miterlimit="10"/>
<path d="M31.9355 17.875V19.2851" stroke="#F97316" stroke-miterlimit="10"/>
<path d="M34.1791 21.6743H29.7387C29.5512 21.6743 29.4237 21.4868 29.4837 21.3142L30.1663 19.4616C30.2038 19.3566 30.3088 19.2891 30.4213 19.2891H33.5341C33.6466 19.2891 33.7516 19.3641 33.7891 19.4691L34.4267 21.3217C34.4942 21.4943 34.3667 21.6743 34.1791 21.6743Z" stroke="#F97316" stroke-miterlimit="10"/>
<path d="M34.1791 24.0805H29.7387C29.5512 24.0805 29.4237 23.893 29.4837 23.7205L30.1663 21.8678C30.2038 21.7628 30.3088 21.6953 30.4213 21.6953H33.5341C33.6466 21.6953 33.7516 21.7703 33.7891 21.8753L34.4267 23.728C34.4942 23.9005 34.3667 24.0805 34.1791 24.0805Z" stroke="#F97316" stroke-miterlimit="10"/>
<path d="M34.1791 26.479H29.7387C29.5512 26.479 29.4237 26.2914 29.4837 26.1189L30.1663 24.2663C30.2038 24.1613 30.3088 24.0938 30.4213 24.0938H33.5341C33.6466 24.0938 33.7516 24.1688 33.7891 24.2738L34.4267 26.1264C34.4942 26.2989 34.3667 26.479 34.1791 26.479Z" stroke="#F97316" stroke-miterlimit="10"/>
<path d="M38.7617 26.4766V27.6992" stroke="#F97316" stroke-miterlimit="10"/>
<path d="M40.959 26.4766V27.6992" stroke="#F97316" stroke-miterlimit="10"/>
<path d="M39.9258 17.875V19.2851" stroke="#F97316" stroke-miterlimit="10"/>
<path d="M42.1674 21.6743H37.727C37.5395 21.6743 37.412 21.4868 37.472 21.3142L38.1546 19.4616C38.1921 19.3566 38.2971 19.2891 38.4096 19.2891H41.5224C41.6349 19.2891 41.7399 19.3641 41.7774 19.4691L42.4149 21.3217C42.4824 21.4943 42.3474 21.6743 42.1674 21.6743Z" stroke="#F97316" stroke-miterlimit="10"/>
<path d="M42.1674 24.0805H37.727C37.5395 24.0805 37.412 23.893 37.472 23.7205L38.1546 21.8678C38.1921 21.7628 38.2971 21.6953 38.4096 21.6953H41.5224C41.6349 21.6953 41.7399 21.7703 41.7774 21.8753L42.4149 23.728C42.4824 23.9005 42.3474 24.0805 42.1674 24.0805Z" stroke="#F97316" stroke-miterlimit="10"/>
<path d="M42.1674 26.479H37.727C37.5395 26.479 37.412 26.2914 37.472 26.1189L38.1546 24.2663C38.1921 24.1613 38.2971 24.0938 38.4096 24.0938H41.5224C41.6349 24.0938 41.7399 24.1688 41.7774 24.2738L42.4149 26.1264C42.4824 26.2989 42.3474 26.479 42.1674 26.479Z" stroke="#F97316" stroke-miterlimit="10"/>
</svg>
