<svg width="68" height="347" viewBox="0 0 68 347" fill="none" xmlns="http://www.w3.org/2000/svg">
<rect x="1.5" y="6" width="16" height="336" fill="url(#paint0_linear_3856_16338)"/>
<path d="M23.5 8.5L1.5 8.5" stroke="#231F20" stroke-width="2" stroke-linecap="round"/>
<path d="M30.242 5.584V4.324C31.586 4.338 32.86 3.876 33.098 2.7H34.4V12.5H32.65V5.584H30.242ZM41.1713 11.366C42.5713 11.366 42.9633 9.644 42.9633 7.6C42.9633 5.556 42.5713 3.834 41.1713 3.834C39.7713 3.834 39.3793 5.556 39.3793 7.6C39.3793 9.644 39.7713 11.366 41.1713 11.366ZM41.1713 2.504C43.9853 2.504 44.5593 5.374 44.5593 7.6C44.5593 9.826 43.9853 12.696 41.1713 12.696C38.3573 12.696 37.7833 9.826 37.7833 7.6C37.7833 5.374 38.3573 2.504 41.1713 2.504ZM48.9506 11.366C50.3506 11.366 50.7426 9.644 50.7426 7.6C50.7426 5.556 50.3506 3.834 48.9506 3.834C47.5506 3.834 47.1586 5.556 47.1586 7.6C47.1586 9.644 47.5506 11.366 48.9506 11.366ZM48.9506 2.504C51.7646 2.504 52.3386 5.374 52.3386 7.6C52.3386 9.826 51.7646 12.696 48.9506 12.696C46.1366 12.696 45.5626 9.826 45.5626 7.6C45.5626 5.374 46.1366 2.504 48.9506 2.504ZM56.4779 12.836L61.9239 2.364H62.9879L57.5699 12.836H56.4779ZM63.3519 12.696C61.6579 12.696 61.0139 11.436 61.0139 9.91C61.0139 8.398 61.7139 7.124 63.3519 7.124C64.9899 7.124 65.6899 8.398 65.6899 9.91C65.6899 11.436 65.0459 12.696 63.3519 12.696ZM62.2739 9.91C62.2739 10.96 62.5539 11.786 63.3379 11.786C64.1219 11.786 64.4299 10.96 64.4299 9.91C64.4299 8.972 64.2059 8.034 63.3379 8.034C62.4699 8.034 62.2739 8.972 62.2739 9.91ZM56.3239 8.076C54.6299 8.076 53.9859 6.816 53.9859 5.29C53.9859 3.778 54.6859 2.504 56.3239 2.504C57.9619 2.504 58.6619 3.778 58.6619 5.29C58.6619 6.816 58.0179 8.076 56.3239 8.076ZM55.2459 5.29C55.2459 6.34 55.5259 7.166 56.3099 7.166C57.0939 7.166 57.4019 6.34 57.4019 5.29C57.4019 4.352 57.1779 3.414 56.3099 3.414C55.4419 3.414 55.2459 4.352 55.2459 5.29Z" fill="#231F20"/>
<path d="M23.5 74.5L1.5 74.5" stroke="#231F20" stroke-width="2" stroke-linecap="round"/>
<path d="M33.392 77.436C34.456 77.436 35.254 76.764 35.254 75.616C35.254 74.538 34.456 73.894 33.392 73.894C32.328 73.894 31.53 74.538 31.53 75.616C31.53 76.764 32.328 77.436 33.392 77.436ZM33.392 78.696C31.404 78.696 29.934 77.534 29.934 75.616C29.934 74.384 30.634 73.502 31.726 73.222V73.194C30.844 72.858 30.34 72.13 30.34 71.178C30.34 69.512 31.446 68.504 33.392 68.504C35.338 68.504 36.444 69.512 36.444 71.178C36.444 72.13 35.94 72.858 35.058 73.194V73.222C36.15 73.502 36.85 74.384 36.85 75.616C36.85 77.534 35.38 78.696 33.392 78.696ZM33.392 69.764C32.538 69.764 31.852 70.296 31.852 71.262C31.852 72.186 32.51 72.704 33.392 72.704C34.274 72.704 34.932 72.186 34.932 71.262C34.932 70.296 34.246 69.764 33.392 69.764ZM41.1713 77.366C42.5713 77.366 42.9633 75.644 42.9633 73.6C42.9633 71.556 42.5713 69.834 41.1713 69.834C39.7713 69.834 39.3793 71.556 39.3793 73.6C39.3793 75.644 39.7713 77.366 41.1713 77.366ZM41.1713 68.504C43.9853 68.504 44.5593 71.374 44.5593 73.6C44.5593 75.826 43.9853 78.696 41.1713 78.696C38.3573 78.696 37.7833 75.826 37.7833 73.6C37.7833 71.374 38.3573 68.504 41.1713 68.504ZM48.6986 78.836L54.1446 68.364H55.2086L49.7906 78.836H48.6986ZM55.5726 78.696C53.8786 78.696 53.2346 77.436 53.2346 75.91C53.2346 74.398 53.9346 73.124 55.5726 73.124C57.2106 73.124 57.9106 74.398 57.9106 75.91C57.9106 77.436 57.2666 78.696 55.5726 78.696ZM54.4946 75.91C54.4946 76.96 54.7746 77.786 55.5586 77.786C56.3426 77.786 56.6506 76.96 56.6506 75.91C56.6506 74.972 56.4266 74.034 55.5586 74.034C54.6906 74.034 54.4946 74.972 54.4946 75.91ZM48.5446 74.076C46.8506 74.076 46.2066 72.816 46.2066 71.29C46.2066 69.778 46.9066 68.504 48.5446 68.504C50.1826 68.504 50.8826 69.778 50.8826 71.29C50.8826 72.816 50.2386 74.076 48.5446 74.076ZM47.4666 71.29C47.4666 72.34 47.7466 73.166 48.5306 73.166C49.3146 73.166 49.6226 72.34 49.6226 71.29C49.6226 70.352 49.3986 69.414 48.5306 69.414C47.6626 69.414 47.4666 70.352 47.4666 71.29Z" fill="#231F20"/>
<path d="M23.5 140.5L1.5 140.5" stroke="#231F20" stroke-width="2" stroke-linecap="round"/>
<path d="M33.49 143.366C34.638 143.366 35.212 142.372 35.212 141.322C35.212 140.272 34.638 139.32 33.49 139.32C32.328 139.32 31.726 140.244 31.726 141.322C31.726 142.386 32.328 143.366 33.49 143.366ZM36.626 137.178H35.03C34.96 136.38 34.428 135.834 33.602 135.834C31.866 135.834 31.67 137.906 31.572 139.194L31.6 139.222C32.034 138.452 32.846 138.06 33.714 138.06C35.66 138.06 36.808 139.474 36.808 141.35C36.808 143.254 35.506 144.696 33.546 144.696C30.662 144.696 29.976 142.428 29.976 139.572C29.976 137.234 30.9 134.504 33.672 134.504C35.226 134.504 36.542 135.582 36.626 137.178ZM41.1713 143.366C42.5713 143.366 42.9633 141.644 42.9633 139.6C42.9633 137.556 42.5713 135.834 41.1713 135.834C39.7713 135.834 39.3793 137.556 39.3793 139.6C39.3793 141.644 39.7713 143.366 41.1713 143.366ZM41.1713 134.504C43.9853 134.504 44.5593 137.374 44.5593 139.6C44.5593 141.826 43.9853 144.696 41.1713 144.696C38.3573 144.696 37.7833 141.826 37.7833 139.6C37.7833 137.374 38.3573 134.504 41.1713 134.504ZM48.6986 144.836L54.1446 134.364H55.2086L49.7906 144.836H48.6986ZM55.5726 144.696C53.8786 144.696 53.2346 143.436 53.2346 141.91C53.2346 140.398 53.9346 139.124 55.5726 139.124C57.2106 139.124 57.9106 140.398 57.9106 141.91C57.9106 143.436 57.2666 144.696 55.5726 144.696ZM54.4946 141.91C54.4946 142.96 54.7746 143.786 55.5586 143.786C56.3426 143.786 56.6506 142.96 56.6506 141.91C56.6506 140.972 56.4266 140.034 55.5586 140.034C54.6906 140.034 54.4946 140.972 54.4946 141.91ZM48.5446 140.076C46.8506 140.076 46.2066 138.816 46.2066 137.29C46.2066 135.778 46.9066 134.504 48.5446 134.504C50.1826 134.504 50.8826 135.778 50.8826 137.29C50.8826 138.816 50.2386 140.076 48.5446 140.076ZM47.4666 137.29C47.4666 138.34 47.7466 139.166 48.5306 139.166C49.3146 139.166 49.6226 138.34 49.6226 137.29C49.6226 136.352 49.3986 135.414 48.5306 135.414C47.6626 135.414 47.4666 136.352 47.4666 137.29Z" fill="#231F20"/>
<path d="M23.5 206.5L1.5 206.5" stroke="#231F20" stroke-width="2" stroke-linecap="round"/>
<path d="M36.808 206.916V208.176H35.548V210.5H34.036V208.176H29.836V206.594L34.036 200.7H35.548V206.916H36.808ZM34.008 202.604L31.068 206.916H34.036V202.604H34.008ZM41.1713 209.366C42.5713 209.366 42.9633 207.644 42.9633 205.6C42.9633 203.556 42.5713 201.834 41.1713 201.834C39.7713 201.834 39.3793 203.556 39.3793 205.6C39.3793 207.644 39.7713 209.366 41.1713 209.366ZM41.1713 200.504C43.9853 200.504 44.5593 203.374 44.5593 205.6C44.5593 207.826 43.9853 210.696 41.1713 210.696C38.3573 210.696 37.7833 207.826 37.7833 205.6C37.7833 203.374 38.3573 200.504 41.1713 200.504ZM48.6986 210.836L54.1446 200.364H55.2086L49.7906 210.836H48.6986ZM55.5726 210.696C53.8786 210.696 53.2346 209.436 53.2346 207.91C53.2346 206.398 53.9346 205.124 55.5726 205.124C57.2106 205.124 57.9106 206.398 57.9106 207.91C57.9106 209.436 57.2666 210.696 55.5726 210.696ZM54.4946 207.91C54.4946 208.96 54.7746 209.786 55.5586 209.786C56.3426 209.786 56.6506 208.96 56.6506 207.91C56.6506 206.972 56.4266 206.034 55.5586 206.034C54.6906 206.034 54.4946 206.972 54.4946 207.91ZM48.5446 206.076C46.8506 206.076 46.2066 204.816 46.2066 203.29C46.2066 201.778 46.9066 200.504 48.5446 200.504C50.1826 200.504 50.8826 201.778 50.8826 203.29C50.8826 204.816 50.2386 206.076 48.5446 206.076ZM47.4666 203.29C47.4666 204.34 47.7466 205.166 48.5306 205.166C49.3146 205.166 49.6226 204.34 49.6226 203.29C49.6226 202.352 49.3986 201.414 48.5306 201.414C47.6626 201.414 47.4666 202.352 47.4666 203.29Z" fill="#231F20"/>
<path d="M23.5 272.5L1.5 272.5" stroke="#231F20" stroke-width="2" stroke-linecap="round"/>
<path d="M36.738 275.072V276.5H30.046C30.06 274.89 30.886 273.672 32.202 272.79C33.476 271.866 35.128 271.096 35.156 269.57C35.17 268.87 34.876 267.834 33.504 267.834C32.244 267.834 31.866 268.912 31.824 270.284H30.228C30.228 268.114 31.418 266.504 33.602 266.504C35.996 266.504 36.752 268.254 36.752 269.514C36.752 271.068 35.688 272.034 34.568 272.818C33.434 273.602 32.244 274.204 31.964 275.072H36.738ZM41.1713 275.366C42.5713 275.366 42.9633 273.644 42.9633 271.6C42.9633 269.556 42.5713 267.834 41.1713 267.834C39.7713 267.834 39.3793 269.556 39.3793 271.6C39.3793 273.644 39.7713 275.366 41.1713 275.366ZM41.1713 266.504C43.9853 266.504 44.5593 269.374 44.5593 271.6C44.5593 273.826 43.9853 276.696 41.1713 276.696C38.3573 276.696 37.7833 273.826 37.7833 271.6C37.7833 269.374 38.3573 266.504 41.1713 266.504ZM48.6986 276.836L54.1446 266.364H55.2086L49.7906 276.836H48.6986ZM55.5726 276.696C53.8786 276.696 53.2346 275.436 53.2346 273.91C53.2346 272.398 53.9346 271.124 55.5726 271.124C57.2106 271.124 57.9106 272.398 57.9106 273.91C57.9106 275.436 57.2666 276.696 55.5726 276.696ZM54.4946 273.91C54.4946 274.96 54.7746 275.786 55.5586 275.786C56.3426 275.786 56.6506 274.96 56.6506 273.91C56.6506 272.972 56.4266 272.034 55.5586 272.034C54.6906 272.034 54.4946 272.972 54.4946 273.91ZM48.5446 272.076C46.8506 272.076 46.2066 270.816 46.2066 269.29C46.2066 267.778 46.9066 266.504 48.5446 266.504C50.1826 266.504 50.8826 267.778 50.8826 269.29C50.8826 270.816 50.2386 272.076 48.5446 272.076ZM47.4666 269.29C47.4666 270.34 47.7466 271.166 48.5306 271.166C49.3146 271.166 49.6226 270.34 49.6226 269.29C49.6226 268.352 49.3986 267.414 48.5306 267.414C47.6626 267.414 47.4666 268.352 47.4666 269.29Z" fill="#231F20"/>
<path d="M23.5 338.5L1.5 338.5" stroke="#231F20" stroke-width="2" stroke-linecap="round"/>
<path d="M33.392 341.366C34.792 341.366 35.184 339.644 35.184 337.6C35.184 335.556 34.792 333.834 33.392 333.834C31.992 333.834 31.6 335.556 31.6 337.6C31.6 339.644 31.992 341.366 33.392 341.366ZM33.392 332.504C36.206 332.504 36.78 335.374 36.78 337.6C36.78 339.826 36.206 342.696 33.392 342.696C30.578 342.696 30.004 339.826 30.004 337.6C30.004 335.374 30.578 332.504 33.392 332.504ZM40.9193 342.836L46.3653 332.364H47.4293L42.0113 342.836H40.9193ZM47.7933 342.696C46.0993 342.696 45.4553 341.436 45.4553 339.91C45.4553 338.398 46.1553 337.124 47.7933 337.124C49.4313 337.124 50.1313 338.398 50.1313 339.91C50.1313 341.436 49.4873 342.696 47.7933 342.696ZM46.7153 339.91C46.7153 340.96 46.9953 341.786 47.7793 341.786C48.5633 341.786 48.8713 340.96 48.8713 339.91C48.8713 338.972 48.6473 338.034 47.7793 338.034C46.9113 338.034 46.7153 338.972 46.7153 339.91ZM40.7653 338.076C39.0713 338.076 38.4273 336.816 38.4273 335.29C38.4273 333.778 39.1273 332.504 40.7653 332.504C42.4033 332.504 43.1033 333.778 43.1033 335.29C43.1033 336.816 42.4593 338.076 40.7653 338.076ZM39.6873 335.29C39.6873 336.34 39.9673 337.166 40.7513 337.166C41.5353 337.166 41.8433 336.34 41.8433 335.29C41.8433 334.352 41.6193 333.414 40.7513 333.414C39.8833 333.414 39.6873 334.352 39.6873 335.29Z" fill="#231F20"/>
<defs>
<linearGradient id="paint0_linear_3856_16338" x1="9.5" y1="6" x2="9.5" y2="342" gradientUnits="userSpaceOnUse">
<stop stop-color="#36B954"/>
<stop offset="0.205" stop-color="#00FF1E"/>
<stop offset="0.4" stop-color="#FFD500"/>
<stop offset="0.6" stop-color="#FF9500"/>
<stop offset="0.8" stop-color="#FF0000"/>
<stop offset="1" stop-color="#8B0000"/>
</linearGradient>
</defs>
</svg>
