
<svg xmlns="http://www.w3.org/2000/svg" width="895" height="895" viewBox="0 0 895 895" fill="none">
    <path fill-rule="evenodd" clip-rule="evenodd" d="M471.26 742.878C477.656 742.525 483.192 747.372 484.878 755.232C494.196 799.789 505.28 844.341 518.038 888.26C514.12 889.342 510.15 890.071 506.197 890.977C494.601 846.573 484.776 802.267 476.619 757.197C475.839 752.925 472.678 752.937 472.051 752.982C471.425 753.028 468.304 753.489 468.195 757.835C467.147 803.583 464.34 849.04 459.829 894.605L447.742 893.824C453.455 848.27 457.442 802.706 459.72 757.214C459.92 753.199 461.241 749.764 463.28 747.321C465.308 744.747 468.053 743.118 471.26 742.878ZM378.998 749.785C381.504 742.096 387.485 737.938 393.79 738.918C400.061 740.102 404.128 746.419 403.763 754.364C401.337 799.833 400.642 845.57 401.695 891.46L389.558 891.01C389.712 845.262 391.614 799.69 395.294 754.096C395.635 749.762 392.582 748.999 391.962 748.885C391.346 748.777 388.214 748.446 386.995 752.621C374.248 796.512 359.866 839.657 343.725 882.608C339.863 881.332 336.002 880.148 332.22 878.644C349.449 836.405 365.124 793.129 378.998 749.785ZM546.911 726.87C552.949 724.825 559.522 727.975 563.23 735.226C583.893 776.007 606.106 815.921 629.857 854.971C626.303 856.908 622.829 859.05 619.178 860.798C596.412 820.963 575.276 780.432 555.797 739.309C553.957 735.453 550.898 736.227 550.306 736.427C549.708 736.62 546.809 737.828 547.834 742.043C558.656 786.321 567.854 831.317 575.219 876.353L563.264 878.642C557.05 833.202 549.138 788.195 539.541 743.723C537.895 735.874 540.863 728.88 546.911 726.87ZM303.153 721.763C307.573 714.985 314.539 712.347 320.252 715.172C326.073 717.764 328.34 724.969 325.862 732.647C311.646 775.996 299.138 819.808 288.231 864.365L276.56 860.897C288.59 816.829 302.441 772.995 317.78 730.146C319.232 726.057 316.464 724.576 315.883 724.32C315.291 724.121 312.42 722.844 310.165 726.547C286.494 765.448 261.25 803.586 234.464 840.876L224.473 833.939C252.211 797.43 278.343 760.226 303.153 721.763ZM615.788 691.667C620.971 687.936 628.403 689.628 633.786 695.552C664.189 729.401 695.994 762.219 729.137 793.922L720.292 802.238C688.134 769.841 657.092 736.019 627.555 701.298C624.735 697.995 622.053 699.646 621.54 700.017C621.039 700.381 618.601 702.398 620.652 706.151C642.557 746.044 663.022 786.922 681.983 828.699C678.412 830.602 674.658 832.196 671.007 833.939C653.248 791.791 633.922 750.441 612.974 709.802C609.277 702.551 610.565 695.346 615.788 691.667ZM237.069 674.921C242.993 669.624 250.5 668.776 255.358 672.928C260.091 677.24 260.706 684.439 256.281 691.274C231.339 729.452 207.708 768.774 185.74 808.792C182.226 806.764 178.768 804.657 175.408 802.402C198.572 762.811 223.064 724.354 249.019 686.865C251.485 683.282 249.252 681.05 248.78 680.64C248.307 680.224 245.784 678.333 242.64 681.329C209.593 712.923 175.408 743.189 140.038 772.175L132.035 763.051C168.283 734.897 203.317 705.496 237.069 674.921ZM673.323 639.727C677.635 634.994 684.834 634.378 691.674 638.804C729.847 663.751 769.17 687.377 809.188 709.351C807.166 712.86 805.053 716.317 802.797 719.677C763.207 696.513 724.749 672.021 687.26 646.072C683.678 643.605 681.451 645.832 681.035 646.311C680.625 646.778 678.728 649.307 681.724 652.445C713.318 685.492 743.59 719.683 772.57 755.053L763.446 763.05C735.292 726.803 705.891 691.768 675.316 658.021C670.019 652.092 669.171 644.586 673.323 639.727ZM185.289 612.579C192.54 608.882 199.739 610.17 203.418 615.393C207.155 620.57 205.457 628.009 199.534 633.385C165.684 663.795 132.866 695.6 101.164 728.743L92.848 719.891C125.245 687.739 159.066 656.698 193.792 627.154C197.09 624.34 195.444 621.658 195.074 621.146C194.704 620.639 192.688 618.206 188.94 620.257C149.047 642.157 108.169 662.621 66.3915 681.588C64.4834 678.011 62.8944 674.263 61.1458 670.613C103.3 652.848 144.645 633.528 185.289 612.579ZM715.568 574.834C718.165 569.013 725.37 566.746 733.048 569.223C776.392 583.445 820.203 595.947 864.76 606.86L861.292 618.525C817.23 606.496 773.39 592.65 730.542 577.311C726.458 575.853 724.971 578.627 724.715 579.202C724.516 579.794 723.24 582.665 726.942 584.92C765.844 608.591 803.982 633.835 841.271 660.622L834.334 670.612C797.825 642.874 760.62 616.742 722.158 591.931C715.385 587.512 712.743 580.552 715.568 574.834ZM151.362 539.14C159.211 537.494 166.211 540.467 168.215 546.516C170.266 552.553 167.111 559.126 159.86 562.834C119.085 583.498 79.1693 605.712 40.114 629.463C38.1832 625.909 36.0416 622.434 34.2873 618.777C74.1229 596.018 114.659 574.875 155.776 555.401C159.638 553.556 158.863 550.503 158.664 549.911C158.464 549.313 157.257 546.408 153.042 547.433C108.764 558.261 63.7681 567.453 18.7324 574.818L16.4484 562.862C61.8885 556.654 106.89 548.743 151.362 539.14ZM754.759 491.323C800.228 493.749 845.97 494.444 891.854 493.396L891.404 505.534C845.656 505.374 800.085 503.477 754.492 499.792C750.157 499.456 749.394 502.509 749.286 503.124C749.172 503.745 748.847 506.872 753.016 508.091C796.907 520.838 840.052 535.219 883.003 551.366C881.727 555.222 880.543 559.084 879.039 562.866C836.806 545.636 793.524 529.962 750.18 516.094C742.491 513.582 738.339 507.601 739.312 501.296C740.497 495.025 746.814 490.958 754.759 491.323ZM1.26616 447.348C46.8145 453.055 92.3855 457.047 137.871 459.32C141.887 459.525 145.321 460.84 147.77 462.885C150.345 464.913 151.968 467.659 152.207 470.865C152.56 477.256 147.719 482.798 139.859 484.484C95.3016 493.796 50.7445 504.885 6.8251 517.644C5.74292 513.725 5.01947 509.755 4.11386 505.802C48.5117 494.206 92.8184 484.381 137.888 476.219C142.166 475.445 142.149 472.283 142.103 471.656C142.058 471.03 141.596 467.904 137.25 467.801C91.5028 466.753 46.0513 463.945 0.48584 459.434L1.26616 447.348ZM888.661 377.047C889.743 380.966 890.466 384.936 891.372 388.889C846.974 400.485 802.661 410.31 757.597 418.471C753.32 419.246 753.337 422.408 753.377 423.034C753.428 423.661 753.884 426.787 758.23 426.89C803.977 427.938 849.434 430.746 895 435.257L894.22 447.349C848.671 441.636 803.1 437.643 757.609 435.371C753.593 435.166 750.159 433.85 747.715 431.811C745.141 429.777 743.518 427.032 743.273 423.825C742.92 417.435 747.767 411.893 755.627 410.207C800.184 400.895 844.741 389.805 888.661 377.047ZM16.4467 331.825C58.6801 349.054 101.956 364.728 145.3 378.597C152.995 381.109 157.147 387.09 156.173 393.395C154.983 399.666 148.666 403.732 140.721 403.368C95.2522 400.941 49.516 400.247 3.62589 401.295L4.08147 389.157C49.8235 389.317 95.4003 391.214 140.994 394.899C145.323 395.235 146.086 392.182 146.2 391.567C146.314 390.952 146.639 387.819 142.469 386.6C98.5784 373.853 55.4336 359.472 12.4825 343.324L13.992 338.7C14.7524 336.391 15.5411 334.094 16.4467 331.825ZM855.372 265.228C857.303 268.782 859.445 272.262 861.193 275.913C821.358 298.673 780.827 319.816 739.704 339.289C735.848 341.135 736.623 344.187 736.822 344.78C737.016 345.378 738.223 348.283 742.444 347.258C786.716 336.43 831.718 327.237 876.748 319.873L879.038 331.828C833.598 338.037 788.596 345.948 744.124 355.55C736.275 357.196 729.276 354.224 727.265 348.175C725.22 342.137 728.376 335.565 735.621 331.857C776.402 311.193 816.317 288.979 855.372 265.228ZM61.1465 224.079C97.6558 251.817 134.86 277.949 173.323 302.759C180.101 307.179 182.738 314.139 179.913 319.857C177.321 325.678 170.116 327.945 162.438 325.467C119.089 311.251 75.2774 298.743 30.7258 287.836L34.1945 276.165C78.2562 288.195 122.09 302.041 164.939 317.379C169.028 318.837 170.509 316.07 170.765 315.489C170.97 314.896 172.241 312.026 168.544 309.77C129.637 286.099 91.4986 260.856 54.2147 234.069L61.1465 224.079ZM794.322 165.948L802.632 174.799C770.241 206.952 736.414 237.993 701.693 267.537C698.395 270.35 700.041 273.032 700.411 273.545C700.782 274.052 702.792 276.485 706.546 274.44C746.438 252.534 787.316 232.069 829.094 213.103C830.996 216.68 832.591 220.427 834.334 224.078C792.186 241.843 750.841 261.163 710.197 282.112C702.946 285.808 695.741 284.52 692.062 279.303C688.331 274.12 690.028 266.688 695.946 261.305C729.801 230.902 762.62 199.091 794.322 165.948ZM132.035 131.641C160.194 167.888 189.595 202.922 220.164 236.669C225.467 242.598 226.315 250.105 222.157 254.963C217.846 259.697 210.647 260.311 203.812 255.886C165.639 230.939 126.316 207.313 86.2986 185.339C88.3206 181.83 90.4279 178.373 92.6891 175.013C132.274 198.177 170.737 222.669 208.226 248.618C211.803 251.084 214.036 248.857 214.446 248.379C214.861 247.912 216.758 245.383 213.756 242.244C182.168 209.198 151.896 175.007 122.91 139.637L132.035 131.641ZM709.746 85.8978C713.26 87.9254 716.712 90.0325 720.078 92.288C696.908 131.879 672.417 170.336 646.467 207.825C644.001 211.408 646.228 213.64 646.707 214.05C647.179 214.466 649.702 216.363 652.841 213.361C685.887 181.767 720.078 151.501 755.448 122.515L763.445 131.64C727.198 159.799 692.164 189.194 658.417 219.768C652.487 225.071 644.986 225.915 640.122 221.763C635.395 217.451 634.774 210.252 639.205 203.417C664.147 165.239 687.772 125.916 709.746 85.8978ZM224.473 60.7515C242.238 102.9 261.563 144.25 282.506 184.889C286.203 192.139 284.915 199.344 279.698 203.024C274.515 206.76 267.082 205.063 261.7 199.139C231.296 165.29 199.492 132.471 166.343 100.769L175.194 92.4538C207.352 124.851 238.393 158.671 267.931 193.392C270.75 196.696 273.427 195.044 273.94 194.674C274.447 194.309 276.884 192.293 274.834 188.539C252.928 148.647 232.464 107.769 213.503 65.9913C217.074 64.089 220.822 62.4944 224.473 60.7515ZM607.255 30.3248L618.925 33.7941C606.89 77.8615 593.044 121.695 577.706 164.543C576.247 168.633 579.021 170.114 579.597 170.371C580.189 170.57 583.06 171.845 585.321 168.143C608.986 129.242 634.23 91.1033 661.016 53.8137L671.006 60.7515C643.269 97.2608 617.142 134.465 592.332 172.928C587.907 179.706 580.946 182.343 575.228 179.518C569.407 176.926 567.14 169.721 569.618 162.043C583.84 118.693 596.348 74.882 607.255 30.3248ZM332.222 16.0476C338.431 61.4877 346.348 106.495 355.945 150.967C357.591 158.815 354.618 165.81 348.569 167.82C342.537 169.865 335.965 166.716 332.257 159.465C311.593 118.684 289.374 78.7684 265.623 39.7188C269.183 37.7823 272.657 35.6411 276.308 33.8925C299.074 73.7281 320.21 114.258 339.684 155.381C341.529 159.237 344.582 158.462 345.18 158.263C345.772 158.069 348.677 156.862 347.652 152.647C336.83 108.369 327.632 63.3729 320.267 18.3372L332.222 16.0476ZM493.791 3.2309L505.928 3.68086C505.769 49.4286 503.872 95.0003 500.187 140.594C499.851 144.929 502.904 145.692 503.519 145.806C504.14 145.914 507.267 146.244 508.485 142.069C521.238 98.1785 535.62 55.0336 551.761 12.0825L556.388 13.5957C558.697 14.3568 560.997 15.1446 563.266 16.0467C546.037 58.2859 530.357 101.562 516.488 144.906C513.982 152.595 507.996 156.753 501.691 155.773C495.425 154.588 491.353 148.272 491.723 140.326C494.144 94.8579 494.839 49.121 493.791 3.2309ZM435.657 0.0854492L447.743 0.866197C442.031 46.4202 438.038 91.985 435.765 137.476C435.566 141.492 434.245 144.926 432.206 147.37C430.178 149.944 427.427 151.573 424.22 151.812C417.83 152.165 412.294 147.319 410.602 139.458C401.289 94.9012 390.206 50.3501 377.447 6.43076C381.36 5.34858 385.33 4.6193 389.289 3.71368C400.879 48.1172 410.704 92.4238 418.866 137.494C419.641 141.765 422.802 141.754 423.429 141.708C424.061 141.663 427.182 141.201 427.285 136.855C428.338 91.1078 431.14 45.6509 435.657 0.0854492Z" fill="#D2D2D2"/>
</svg>