<svg width="21" height="20" viewBox="0 0 21 20" fill="none" xmlns="http://www.w3.org/2000/svg">
<path d="M14.0571 7.52513C14.4476 7.1346 14.4476 6.50144 14.0571 6.11091C13.6665 5.72039 13.0334 5.72039 12.6428 6.11091L14.0571 7.52513ZM6.27888 12.4749C5.88836 12.8654 5.88836 13.4986 6.27888 13.8891C6.66941 14.2796 7.30257 14.2796 7.69309 13.8891L6.27888 12.4749ZM12.6428 13.8891C13.0334 14.2796 13.6665 14.2796 14.0571 13.8891C14.4476 13.4986 14.4476 12.8654 14.0571 12.4749L12.6428 13.8891ZM7.69309 6.11091C7.30257 5.72039 6.66941 5.72039 6.27888 6.11091C5.88836 6.50144 5.88836 7.1346 6.27888 7.52513L7.69309 6.11091ZM18.168 10C18.168 14.4183 14.5862 18 10.168 18V20C15.6908 20 20.168 15.5228 20.168 10H18.168ZM10.168 18C5.74969 18 2.16797 14.4183 2.16797 10H0.167969C0.167969 15.5228 4.64512 20 10.168 20V18ZM2.16797 10C2.16797 5.58172 5.74969 2 10.168 2V0C4.64512 0 0.167969 4.47715 0.167969 10H2.16797ZM10.168 2C14.5862 2 18.168 5.58172 18.168 10H20.168C20.168 4.47715 15.6908 0 10.168 0V2ZM12.6428 6.11091L9.46086 9.29289L10.8751 10.7071L14.0571 7.52513L12.6428 6.11091ZM9.46086 9.29289L6.27888 12.4749L7.69309 13.8891L10.8751 10.7071L9.46086 9.29289ZM14.0571 12.4749L10.8751 9.29289L9.46086 10.7071L12.6428 13.8891L14.0571 12.4749ZM10.8751 9.29289L7.69309 6.11091L6.27888 7.52513L9.46086 10.7071L10.8751 9.29289Z" fill="white"/>
</svg>
