<svg width="40" height="40" viewBox="0 0 40 40" fill="none" xmlns="http://www.w3.org/2000/svg">
<rect width="40" height="40" rx="20" fill="#EE6A0A"/>
<path d="M10.4069 19.5018C10.4891 14.3553 15.1407 9.83907 20.1833 10.0071C22.6119 9.9021 24.876 10.9734 26.7283 12.4859C25.9462 13.4101 25.123 14.2923 24.2379 15.1116C22.0151 13.5361 18.8455 13.095 16.602 14.9015C13.4324 17.1281 13.2883 22.4426 16.3551 24.8794C19.3394 27.6311 24.9789 26.2657 25.8022 22.0435C23.9293 22.0226 22.0562 22.0435 20.2039 21.9805C20.2039 20.8462 20.2039 19.7119 20.2039 18.5775C23.3323 18.5775 26.4402 18.5566 29.5687 18.5775C29.7539 21.2453 29.404 24.1021 27.7986 26.3078C25.3494 29.8158 20.4508 30.8241 16.6432 29.3326C12.7944 27.8412 10.0981 23.703 10.4069 19.5018Z" fill="white"/>
</svg>
