<svg width="40" height="40" viewBox="0 0 40 40" fill="none" xmlns="http://www.w3.org/2000/svg">
<rect width="40" height="40" rx="20" fill="#EE6A0A"/>
<path d="M14.515 16.5781H10.3359V29.9051H14.515V16.5781Z" fill="white"/>
<path d="M25.821 16.2855C25.6669 16.2662 25.5032 16.2566 25.3395 16.247C22.9996 16.1507 21.6804 17.5373 21.2182 18.1343C21.093 18.298 21.0352 18.3943 21.0352 18.3943V16.6129H17.0391V29.9398H21.0352H21.2182C21.2182 28.5821 21.2182 27.234 21.2182 25.8762C21.2182 25.1444 21.2182 24.4126 21.2182 23.6808C21.2182 22.7756 21.1508 21.8127 21.6033 20.9846C21.9885 20.2913 22.6818 19.9446 23.4618 19.9446C25.7728 19.9446 25.821 22.0342 25.821 22.2267C25.821 22.2364 25.821 22.246 25.821 22.246V29.9976H30.0001V21.3023C30.0001 18.3269 28.4883 16.5744 25.821 16.2855Z" fill="white"/>
<path d="M12.4266 14.8532C13.7667 14.8532 14.8532 13.7667 14.8532 12.4266C14.8532 11.0864 13.7667 10 12.4266 10C11.0864 10 10 11.0864 10 12.4266C10 13.7667 11.0864 14.8532 12.4266 14.8532Z" fill="white"/>
</svg>
