<svg xmlns="http://www.w3.org/2000/svg" width="183" height="62" viewBox="0 0 183 62" fill="none">
  <g clip-path="url(#clip0_124_287)">
    <path d="M41.8551 27.499C42.1092 28.4538 42.8715 29.0267 43.7609 29.0267C43.8879 29.0267 44.0785 29.0267 44.2056 28.9631L61.9291 25.2074C61.9926 25.2074 61.9926 25.1438 61.9926 25.0801L61.7385 23.9343C61.7385 23.8706 61.675 23.8706 61.6115 23.8706L43.8879 27.6263C43.3162 27.7536 43.1256 27.2444 43.1256 27.1807C43.1256 27.0534 42.935 26.6078 43.5068 26.3532L60.0869 18.9692C60.1504 18.9692 60.1504 18.9056 60.1504 18.8419L59.6422 17.8234C59.6422 17.7598 59.5787 17.7598 59.5152 17.7598L43.0621 25.1437C42.1092 25.5257 41.601 26.5442 41.8551 27.499Z" fill="#FF4713"/>
    <path d="M20.7647 23.9979C20.8282 24.0616 20.9553 24.1252 21.0188 24.1252C21.3364 24.3162 21.654 24.3798 21.9717 24.3798C22.5434 24.3798 23.0516 24.1252 23.4327 23.6796C23.8139 23.2977 23.9409 22.7885 23.9409 22.3429C23.9409 21.8336 23.7504 21.388 23.4327 21.0061L11.3629 7.51124C11.2994 7.44759 11.2994 7.44759 11.2359 7.51124L10.3465 8.2751C10.283 8.33876 10.283 8.33876 10.3465 8.40241L22.4799 21.8973C22.5434 21.9609 22.5434 22.0246 22.6069 22.0882C22.6704 22.2156 22.6704 22.2792 22.6704 22.4065C22.6704 22.6611 22.5434 22.7885 22.4799 22.8521C22.4163 22.9158 22.0352 23.2977 21.5905 22.9158L6.91616 12.2217C6.85264 12.2217 6.85264 12.2217 6.78911 12.2217L6.09033 13.1765C6.09033 13.2402 6.09033 13.2402 6.09033 13.3039L20.7647 23.9979Z" fill="#FF4713"/>
    <path d="M42.2999 38.002C41.9823 37.7474 41.6011 37.6201 41.2835 37.6201C40.9023 37.6201 40.5847 37.6838 40.2671 37.8111C40.0765 37.9384 39.8224 38.0657 39.6954 38.2567C39.1236 38.8932 38.9966 39.6571 39.3142 40.3573C39.3777 40.5483 39.5048 40.7392 39.6954 40.9302L51.8287 54.425C51.8922 54.4887 51.8922 54.4887 51.9557 54.425L52.8451 53.6612C52.9086 53.5975 52.9086 53.5975 52.8451 53.5339L40.6482 40.1027C40.5212 39.9117 40.4577 39.7844 40.4577 39.6571C40.4577 39.4661 40.5212 39.3388 40.5847 39.2751C40.5847 39.2751 40.5847 39.2115 40.6482 39.2115C40.7118 39.1478 41.0929 38.7659 41.5376 39.1478L56.2119 49.8419C56.2755 49.8419 56.2755 49.8419 56.339 49.8419L57.0378 48.8871C57.0378 48.8234 57.0378 48.8234 57.0378 48.7597L42.2999 38.002Z" fill="#FF4713"/>
    <path d="M38.5518 41.8214C38.4882 41.6941 38.3612 41.5668 38.2341 41.4394C37.853 40.9939 37.2812 40.7392 36.7095 40.8029C36.4554 40.8029 36.2013 40.8665 35.9472 40.9939C35.1849 41.3121 34.8038 41.9487 34.7402 42.7125C34.7402 42.8399 34.7402 42.9672 34.7402 43.0945C34.7402 43.2218 34.8038 43.3491 34.8038 43.4764L40.394 60.7269C40.394 60.7906 40.4575 60.7906 40.521 60.7906L41.6645 60.4086C41.728 60.4086 41.728 60.345 41.728 60.2813L36.1378 43.0308C36.1378 42.9672 36.0743 42.9035 36.0743 42.8399C36.0743 42.5852 36.1378 42.4579 36.2648 42.3306C36.3284 42.267 36.4554 42.2033 36.4554 42.2033C36.5189 42.2033 36.646 42.1396 36.8366 42.1396C37.0271 42.1396 37.2177 42.2033 37.3448 42.4579L46.4289 58.1807C46.4289 58.2444 46.4924 58.2444 46.5559 58.2444L47.5723 57.6715C47.6359 57.6715 47.6359 57.6078 47.6359 57.5442L38.5518 41.8214Z" fill="#FF4713"/>
    <path d="M31.3735 41.885C30.4206 41.9487 29.5948 42.7762 29.5312 43.731L27.6255 61.7454C27.6255 61.8091 27.6255 61.8091 27.689 61.8727L28.8325 62C28.896 62 28.896 62 28.9595 61.9364L30.8653 43.8584C30.9288 43.2855 31.437 43.2218 31.5641 43.2218C31.6911 43.2218 32.1993 43.2218 32.2628 43.8584L34.1686 61.9364C34.1686 62 34.2321 62 34.2956 62L35.4391 61.8727C35.5026 61.8727 35.5026 61.8091 35.5026 61.7454L33.5969 43.6674C33.4698 42.5853 32.5169 41.8214 31.3735 41.885Z" fill="#FF4713"/>
    <path d="M27.1808 40.9939C26.7997 40.8029 26.4185 40.7393 26.0374 40.8029C25.4657 40.8666 24.8939 41.2485 24.5763 41.8214L15.4922 57.5442C15.4922 57.6079 15.4922 57.6715 15.5557 57.6715L16.5721 58.2444C16.6356 58.2444 16.6992 58.2444 16.6992 58.1807L25.7833 42.458C25.9103 42.2033 26.1009 42.1397 26.2915 42.1397C26.4821 42.1397 26.6091 42.2033 26.6726 42.2033C26.7362 42.267 27.2444 42.458 27.0538 43.0308L21.4636 60.2814C21.4636 60.345 21.4636 60.4087 21.5271 60.4087L22.6705 60.7906C22.7341 60.7906 22.7976 60.7906 22.7976 60.727L28.3878 43.5401C28.5149 42.5216 28.0702 41.3758 27.1808 40.9939Z" fill="#FF4713"/>
    <path d="M23.9407 40.1027C24.0043 39.9754 24.0043 39.848 24.0043 39.6571C24.0043 39.1478 23.8137 38.7023 23.4961 38.3203C23.369 38.193 23.242 38.1294 23.1784 38.002C22.4797 37.4928 21.5903 37.4928 20.828 38.002L6.09012 48.6961C6.0266 48.6961 6.0266 48.7597 6.09012 48.8234L6.7889 49.7782C6.7889 49.8419 6.85243 49.8419 6.91595 49.7782L21.5903 39.0842C22.035 38.7659 22.4161 39.0842 22.4797 39.1478C22.4797 39.1478 22.4797 39.1478 22.5432 39.2115C22.6067 39.2751 22.6702 39.4661 22.6702 39.5934C22.6702 39.7207 22.6067 39.9117 22.4797 40.039L10.3463 53.5975C10.2828 53.6612 10.3463 53.6612 10.3463 53.7248L11.2357 54.4887C11.2992 54.5524 11.2992 54.4887 11.3627 54.4887L23.4961 40.9938C23.6866 40.7392 23.8772 40.4209 23.9407 40.1027Z" fill="#FF4713"/>
    <path d="M21.2093 34.4374C20.9552 33.4826 20.1294 32.9097 19.24 32.9097C19.113 32.9097 18.9859 32.9097 18.8589 32.9733L1.1353 36.7926C1.07178 36.7926 1.07178 36.8563 1.07178 36.9199L1.32588 38.0657C1.32588 38.1294 1.3894 38.1294 1.45293 38.1294L19.1765 34.3737C19.24 34.3737 19.3035 34.3737 19.3671 34.3737C19.8117 34.3737 19.9388 34.7557 19.9388 34.8193C19.9388 34.9466 20.1294 35.3922 19.5576 35.6468L2.97754 43.0308C2.91401 43.0308 2.91401 43.0945 2.91401 43.1581L3.42221 44.3039L20.0023 36.9199C20.9552 36.4743 21.5269 35.4559 21.2093 34.4374Z" fill="#FF4713"/>
    <path d="M62.5007 30.2998H0.563525C0.5 30.2998 0.5 30.3635 0.5 30.3635V31.5729C0.5 31.6366 0.563525 31.6366 0.563525 31.6366H62.5007C62.5642 31.6366 62.5642 31.5729 62.5642 31.5729V30.3635C62.5642 30.3635 62.5642 30.2998 62.5007 30.2998Z" fill="#FF4713"/>
    <path d="M1.13486 25.2074L18.8584 28.9631C18.9855 29.0267 19.1761 29.0267 19.3031 29.0267C20.1925 29.0267 20.9548 28.4538 21.2089 27.499C21.463 26.5442 20.9548 25.5257 20.0019 25.1437L3.4853 17.7598C3.42177 17.7598 3.35825 17.7598 3.35825 17.8234L2.85005 18.9056C2.85005 18.9692 2.85005 19.0329 2.91357 19.0329L19.5572 26.4169C20.0654 26.6715 19.9384 27.1171 19.9384 27.2444C19.9384 27.308 19.7478 27.69 19.3666 27.69C19.3031 27.69 19.2396 27.69 19.1761 27.69L1.38896 23.8706C1.32544 23.8706 1.32544 23.8706 1.26191 23.9343L1.00781 25.0801C1.07134 25.1438 1.07134 25.2074 1.13486 25.2074Z" fill="#FF4713"/>
    <path d="M24.5759 20.1787C24.957 20.8152 25.5923 21.1972 26.291 21.1972C26.6087 21.1972 26.8628 21.1335 27.1804 21.0062C28.1333 20.5606 28.578 19.4785 28.2603 18.46L22.6066 1.27313C22.6066 1.20947 22.5431 1.20947 22.4795 1.20947L21.3361 1.5914C21.3361 1.65506 21.2726 1.65506 21.2726 1.71871L26.8628 18.9692C27.0534 19.5421 26.6087 19.7331 26.4816 19.7967C26.4181 19.7967 26.291 19.8604 26.1005 19.8604C25.9099 19.8604 25.7193 19.7967 25.5923 19.5421L16.6352 3.81933C16.6352 3.75567 16.5717 3.75567 16.5082 3.75567L15.4917 4.32857C15.4282 4.32857 15.4282 4.39222 15.4282 4.45588L24.5759 20.1787Z" fill="#FF4713"/>
    <path d="M31.6911 20.115C32.6439 20.0513 33.4698 19.2238 33.5333 18.269L35.4391 0.25462C35.4391 0.190965 35.4391 0.190965 35.3755 0.12731L34.2321 0C34.1685 0 34.1685 0 34.105 0.063655L32.1993 18.1417C32.1357 18.7146 31.6275 18.7782 31.5005 18.7782C31.3734 18.7782 30.8652 18.7782 30.8017 18.1417L28.8959 0.063655C28.9595 0 28.9595 0 28.8959 0L27.7525 0.12731C27.689 0.12731 27.689 0.190965 27.689 0.25462L29.5947 18.3326C29.6582 19.4148 30.5476 20.1786 31.6911 20.115Z" fill="#FF4713"/>
    <path d="M34.7402 19.3512C34.8038 20.115 35.1849 20.7516 35.9472 21.0698C36.2013 21.1972 36.5189 21.2608 36.773 21.2608C37.4718 21.2608 38.1071 20.8789 38.4882 20.2423L47.6359 4.45588C47.6359 4.39222 47.6359 4.32857 47.5723 4.32857L46.5559 3.75567C46.4924 3.75567 46.4289 3.75567 46.4289 3.81933L37.3448 19.5421C37.2177 19.7331 37.0907 19.8604 36.9001 19.8604H36.8366C36.646 19.8604 36.5189 19.7967 36.4554 19.7967C36.3919 19.7967 36.3284 19.7331 36.2648 19.6694C36.1378 19.5421 36.0743 19.4148 36.0743 19.1602C36.0743 19.0965 36.0743 19.0329 36.1378 18.9692L41.728 1.71871C41.728 1.65506 41.728 1.5914 41.6645 1.5914L40.521 1.20947C40.4575 1.20947 40.394 1.20947 40.394 1.27313L34.8038 18.5236C34.8038 18.8419 34.7402 19.0965 34.7402 19.3512Z" fill="#FF4713"/>
    <path d="M39.6315 23.6797C39.695 23.807 39.8221 23.8707 39.8856 23.9343C40.2668 24.1889 40.6479 24.3799 41.0926 24.3799C41.4737 24.3799 41.9184 24.2526 42.2996 23.998L56.9739 13.3039C57.0374 13.3039 57.0374 13.2403 56.9739 13.1766L56.2751 12.2218C56.2751 12.1581 56.2116 12.1581 56.1481 12.2218L41.5373 22.9158C41.0926 23.2341 40.7114 22.9158 40.6479 22.8522C40.5844 22.7885 40.4573 22.6612 40.4573 22.4066C40.4573 22.3429 40.4573 22.2156 40.5209 22.0883C40.5209 22.0247 40.5844 21.961 40.6479 21.8974L52.7812 8.40249C52.8448 8.33884 52.7812 8.33884 52.7812 8.27518L51.8919 7.51132C51.8284 7.44767 51.8284 7.51132 51.7648 7.51132L39.6315 21.0062C38.9327 21.7701 38.9327 22.9158 39.6315 23.6797Z" fill="#FF4713"/>
    <path d="M79.3351 26.2896C78.8904 25.7803 78.3187 25.3984 77.747 25.1438C77.1117 24.8891 76.4765 24.7618 75.7777 24.7618C75.0154 24.7618 74.2531 24.8891 73.5543 25.2074C72.8555 25.5257 72.2838 25.9076 71.7756 26.4169C71.2674 26.9261 70.8862 27.6263 70.6321 28.3902C70.378 29.154 70.251 30.0452 70.251 31C70.251 31.9549 70.378 32.846 70.6321 33.6099C70.8862 34.3737 71.2674 35.0103 71.7756 35.5832C72.2838 36.0924 72.8555 36.538 73.5543 36.7926C74.2531 37.1109 75.0154 37.2382 75.7777 37.2382C77.0482 37.2382 78.0646 36.92 78.9539 36.2197C79.8433 35.5195 80.415 34.5647 80.7962 33.2916V33.228L80.7327 33.1643H78.8269C78.8269 33.1643 78.7634 33.1643 78.7634 33.228L78.6998 33.2916C78.4457 33.9918 78.1281 34.5011 77.6199 34.883C77.1752 35.2013 76.54 35.3922 75.8412 35.3922C74.8883 35.3922 74.0625 35.074 73.4908 34.4374C72.8555 33.8009 72.5379 32.846 72.4744 31.6366H80.8597C80.8597 31.6366 80.9232 31.6366 80.9232 31.5729L80.9867 31.5093C80.9867 30.2998 80.7962 29.2813 80.5421 28.3902C80.1609 27.499 79.7798 26.7988 79.3351 26.2896ZM78.6998 29.7269L78.6363 29.7906H72.4744C72.6649 28.7721 72.9826 28.0082 73.6178 27.4354C74.1895 26.9261 74.8883 26.6078 75.7777 26.6078C76.6035 26.6078 77.3023 26.8625 77.8105 27.3717C78.3187 27.8809 78.6363 28.6448 78.7634 29.6633C78.6998 29.7269 78.6998 29.7269 78.6998 29.7269Z" fill="#231F20"/>
    <path d="M88.4829 24.7618C87.7205 24.7618 87.0853 24.8891 86.5136 25.2074C85.9418 25.5257 85.4336 25.9713 85.116 26.5442L85.0525 26.6078C84.989 26.6078 84.989 26.6715 84.9254 26.6715H84.8619V25.2074C84.8619 25.1438 84.7984 25.0801 84.7349 25.0801H82.9562C82.8926 25.0801 82.8291 25.1438 82.8291 25.2074V36.729C82.8291 36.7926 82.8926 36.8563 82.9562 36.8563H84.8619C84.9254 36.8563 84.989 36.7926 84.989 36.729V30.1725C84.989 29.6633 85.0525 29.154 85.2431 28.7085C85.3701 28.2629 85.6242 27.8809 85.8783 27.5627C86.1324 27.2444 86.5136 26.9898 86.8947 26.8625C87.2759 26.6715 87.657 26.6078 88.1017 26.6078C89.4993 26.6078 90.198 27.3717 90.198 28.8994V36.729C90.198 36.7926 90.2616 36.8563 90.3251 36.8563H92.2308C92.2944 36.8563 92.3579 36.7926 92.3579 36.729V28.8994C92.3579 27.5627 92.0403 26.5442 91.405 25.7803C90.7698 25.0165 89.6898 24.7618 88.4829 24.7618Z" fill="#231F20"/>
    <path d="M103.284 26.2896C102.84 25.7803 102.268 25.3984 101.696 25.1438C101.061 24.8891 100.426 24.7618 99.7269 24.7618C98.9646 24.7618 98.2023 24.8891 97.5035 25.2074C96.8047 25.5257 96.233 25.9076 95.7248 26.4169C95.2166 26.9261 94.8355 27.6263 94.5814 28.3902C94.3272 29.154 94.2002 30.0452 94.2002 31C94.2002 31.9549 94.3272 32.846 94.5814 33.6099C94.8355 34.3737 95.2166 35.0103 95.7248 35.5832C96.233 36.0924 96.8047 36.538 97.5035 36.7926C98.2023 37.1109 98.9646 37.2382 99.7269 37.2382C100.997 37.2382 102.014 36.92 102.903 36.2197C103.793 35.5195 104.364 34.5647 104.745 33.2916V33.228L104.682 33.1643H102.776C102.776 33.1643 102.713 33.1643 102.713 33.228L102.649 33.2916C102.395 33.9918 102.077 34.5011 101.569 34.883C101.124 35.2013 100.489 35.3922 99.7904 35.3922C98.8375 35.3922 98.0117 35.074 97.44 34.4374C96.8047 33.8009 96.4871 32.846 96.4236 31.6366H104.809C104.809 31.6366 104.872 31.6366 104.872 31.5729L104.936 31.5093C104.936 30.2998 104.745 29.2813 104.491 28.3902C104.11 27.499 103.729 26.7988 103.284 26.2896ZM102.649 29.7269L102.586 29.7906H96.4236C96.6142 28.7721 96.9318 28.0082 97.567 27.4354C98.2023 26.8625 98.8375 26.6078 99.7269 26.6078C100.616 26.6078 101.251 26.8625 101.76 27.3717C102.268 27.8809 102.586 28.6448 102.713 29.6633C102.713 29.7269 102.713 29.7269 102.649 29.7269Z" fill="#231F20"/>
    <path d="M112.877 25.0801H111.352C110.971 25.0801 110.653 25.1437 110.399 25.2074C110.145 25.271 109.891 25.3984 109.764 25.5257C109.573 25.653 109.446 25.7803 109.319 25.9712C109.192 26.1622 109.129 26.3532 109.002 26.5441C109.002 26.6078 108.938 26.6715 108.875 26.6715V25.2074C108.875 25.1437 108.811 25.0801 108.748 25.0801H106.969C106.905 25.0801 106.842 25.1437 106.842 25.2074V36.7289C106.842 36.7926 106.905 36.8563 106.969 36.8563H108.875C108.938 36.8563 109.002 36.7926 109.002 36.7289V30.0452C109.002 28.963 109.192 28.1992 109.51 27.7536C109.827 27.308 110.399 27.117 111.289 27.117H113.004C113.067 27.117 113.131 27.0534 113.131 26.9897V25.2074C113.004 25.0801 112.94 25.0801 112.877 25.0801Z" fill="#231F20"/>
    <path d="M124.12 25.0801H122.214C122.151 25.0801 122.087 25.1438 122.087 25.2074V26.5442C122.087 26.6078 122.087 26.6078 122.024 26.5442C121.643 25.9713 121.198 25.5257 120.626 25.2074C120.055 24.8891 119.419 24.7618 118.784 24.7618C118.085 24.7618 117.387 24.8891 116.815 25.2074C116.18 25.5257 115.671 25.9076 115.227 26.4169C114.782 26.9261 114.464 27.5627 114.21 28.2629C113.956 28.9631 113.829 29.7906 113.829 30.6818C113.829 31.5093 113.956 32.3368 114.21 33.1006C114.464 33.8645 114.782 34.4374 115.227 35.0103C115.671 35.5195 116.243 35.9651 116.815 36.2197C117.45 36.538 118.149 36.6653 118.848 36.6653C119.483 36.6653 120.118 36.538 120.626 36.2834C121.135 36.0288 121.579 35.5832 121.96 34.9466C122.024 34.883 122.024 34.883 122.024 34.9466V35.5832C122.024 36.6653 121.77 37.4928 121.325 38.0657C120.88 38.6386 120.118 38.9569 119.102 38.9569C118.276 38.9569 117.641 38.8296 117.196 38.5113C116.751 38.1931 116.434 37.8111 116.307 37.2382C116.307 37.1746 116.243 37.1109 116.18 37.1109H114.21C114.147 37.1109 114.083 37.1746 114.147 37.2382C114.274 37.8111 114.464 38.3204 114.718 38.7659C115.036 39.2115 115.354 39.5935 115.798 39.8481C116.243 40.1027 116.751 40.3573 117.323 40.4846C117.895 40.6119 118.466 40.6756 119.102 40.6756C120.753 40.6756 122.024 40.23 122.85 39.3388C123.739 38.4477 124.12 37.2382 124.12 35.7105V25.2074C124.184 25.0801 124.184 25.0801 124.12 25.0801ZM121.96 32.1458C121.833 32.6551 121.706 33.1006 121.452 33.4826C121.198 33.8645 120.944 34.1828 120.499 34.4374C120.118 34.692 119.61 34.8193 119.038 34.8193C118.085 34.8193 117.323 34.4374 116.751 33.6735C116.243 32.9097 115.925 31.9549 115.925 30.6818C115.925 29.4087 116.18 28.4538 116.751 27.69C117.259 26.9261 118.022 26.5442 119.038 26.5442C119.61 26.5442 120.118 26.6715 120.499 26.9261C120.88 27.1807 121.198 27.499 121.452 27.8809C121.706 28.2629 121.833 28.7085 121.96 29.2177C122.087 29.7269 122.087 30.1725 122.087 30.6818C122.087 31.191 122.024 31.7002 121.96 32.1458Z" fill="#231F20"/>
    <path d="M128.693 25.0801H126.788C126.788 25.0801 126.725 25.0801 126.725 25.1437L126.661 25.2074V36.7289C126.661 36.7289 126.661 36.7926 126.725 36.7926L126.788 36.8563H128.693C128.693 36.8563 128.757 36.8563 128.757 36.7926L128.82 36.7289V25.2074C128.82 25.2074 128.82 25.1437 128.757 25.1437C128.757 25.0801 128.757 25.0801 128.693 25.0801Z" fill="#231F20"/>
    <path d="M141.018 25.0801H139.112C139.048 25.0801 138.985 25.1438 138.985 25.2074V26.5442C138.985 26.6078 138.985 26.6078 138.921 26.5442C138.54 25.9713 138.096 25.5257 137.524 25.2074C136.952 24.8891 136.317 24.7618 135.618 24.7618C134.792 24.7618 134.03 24.9528 133.395 25.3347C132.759 25.7167 132.251 26.1623 131.87 26.7351C131.489 27.308 131.171 28.0082 130.981 28.7085C130.79 29.4723 130.663 30.1725 130.663 30.9364C130.663 31.7002 130.79 32.4641 130.981 33.1643C131.171 33.9282 131.489 34.5647 131.87 35.1376C132.251 35.7105 132.759 36.2197 133.395 36.538C134.03 36.92 134.729 37.1109 135.618 37.1109C136.317 37.1109 136.952 36.9836 137.524 36.6653C138.096 36.3471 138.604 35.9015 138.921 35.3286C138.985 35.2649 138.985 35.2649 138.985 35.3286V36.6653C138.985 36.729 139.048 36.7926 139.112 36.7926H141.018C141.081 36.7926 141.145 36.729 141.145 36.6653V25.2074C141.145 25.0801 141.081 25.0801 141.018 25.0801ZM138.921 32.4641C138.858 32.9733 138.667 33.4189 138.413 33.8645C138.159 34.3101 137.841 34.6284 137.46 34.883C137.079 35.1376 136.571 35.2649 135.936 35.2649C134.983 35.2649 134.221 34.883 133.649 34.1191C133.141 33.3553 132.823 32.2731 132.823 30.9364C132.823 29.536 133.077 28.5175 133.649 27.7536C134.157 26.9898 134.919 26.6078 135.936 26.6078C136.571 26.6078 137.016 26.7351 137.46 26.9898C137.841 27.2444 138.159 27.6263 138.413 28.0082C138.667 28.4538 138.794 28.8994 138.921 29.4087C138.985 29.9179 139.048 30.4271 139.048 30.9364C139.048 31.4456 138.985 31.9549 138.921 32.4641Z" fill="#231F20"/>
    <path d="M154.485 25.0801H152.961C152.579 25.0801 152.262 25.1437 152.008 25.2074C151.754 25.271 151.499 25.3984 151.372 25.5257C151.182 25.653 151.055 25.7803 150.928 25.9712C150.801 26.1622 150.737 26.3532 150.61 26.5441C150.61 26.6078 150.547 26.6715 150.483 26.6715V25.2074C150.483 25.1437 150.42 25.0801 150.356 25.0801H148.514C148.45 25.0801 148.387 25.1437 148.387 25.2074V36.7289C148.387 36.7926 148.45 36.8563 148.514 36.8563H150.42C150.483 36.8563 150.547 36.7926 150.547 36.7289V30.0452C150.547 28.963 150.737 28.1992 151.055 27.7536C151.372 27.308 151.944 27.117 152.833 27.117H154.549C154.612 27.117 154.676 27.0534 154.676 26.9897V25.2074C154.612 25.0801 154.549 25.0801 154.485 25.0801Z" fill="#231F20"/>
    <path d="M164.459 26.2896C164.014 25.7803 163.443 25.3984 162.871 25.1438C162.236 24.8891 161.6 24.7618 160.902 24.7618C160.139 24.7618 159.377 24.8891 158.678 25.2074C157.98 25.5257 157.408 25.9076 156.9 26.4169C156.391 26.9261 156.01 27.6263 155.756 28.3902C155.502 29.154 155.375 30.0452 155.375 31C155.375 31.9549 155.502 32.846 155.756 33.6099C156.01 34.3737 156.391 35.0103 156.9 35.5832C157.408 36.0924 157.98 36.538 158.678 36.7926C159.377 37.1109 160.139 37.2382 160.902 37.2382C162.172 37.2382 163.189 36.92 164.078 36.2197C164.967 35.5195 165.539 34.5647 165.92 33.2916V33.228L165.857 33.1643H163.951C163.951 33.1643 163.887 33.1643 163.887 33.228L163.824 33.2916C163.57 33.9918 163.252 34.5011 162.744 34.883C162.299 35.2013 161.664 35.3922 160.965 35.3922C160.012 35.3922 159.187 35.074 158.615 34.4374C157.98 33.8009 157.662 32.846 157.598 31.6366H165.984C165.984 31.6366 166.047 31.6366 166.047 31.5729L166.111 31.5093C166.111 30.2998 165.92 29.2813 165.666 28.3902C165.285 27.499 164.904 26.7988 164.459 26.2896ZM163.887 29.7269L163.824 29.7906H157.662C157.852 28.7721 158.17 28.0082 158.805 27.4354C159.441 26.8625 160.076 26.6078 160.965 26.6078C161.855 26.6078 162.49 26.8625 162.998 27.3717C163.506 27.8809 163.824 28.6448 163.951 29.6633C163.887 29.7269 163.887 29.7269 163.887 29.7269Z" fill="#231F20"/>
    <path d="M177.799 25.0801H175.893C175.83 25.0801 175.766 25.1438 175.766 25.2074V26.5442C175.766 26.6078 175.766 26.6078 175.703 26.5442C175.321 25.9713 174.877 25.5257 174.305 25.2074C173.733 24.8891 173.098 24.7618 172.399 24.7618C171.573 24.7618 170.811 24.9528 170.176 25.3347C169.541 25.7167 169.032 26.1623 168.651 26.7351C168.27 27.308 167.953 28.0082 167.762 28.7085C167.571 29.4723 167.444 30.1725 167.444 30.9364C167.444 31.7002 167.571 32.4641 167.762 33.1643C167.953 33.9282 168.27 34.5647 168.651 35.1376C169.032 35.7105 169.541 36.2197 170.176 36.538C170.811 36.92 171.51 37.1109 172.399 37.1109C173.098 37.1109 173.733 36.9836 174.305 36.6653C174.877 36.3471 175.385 35.9015 175.703 35.3286C175.766 35.2649 175.766 35.2649 175.766 35.3286V36.6653C175.766 36.729 175.83 36.7926 175.893 36.7926H177.799C177.862 36.7926 177.926 36.729 177.926 36.6653V25.2074C177.862 25.0801 177.862 25.0801 177.799 25.0801ZM175.639 32.4641C175.576 32.9733 175.385 33.4189 175.131 33.8645C174.877 34.3101 174.559 34.6284 174.178 34.883C173.797 35.1376 173.289 35.2649 172.653 35.2649C171.701 35.2649 170.938 34.883 170.367 34.1191C169.858 33.3553 169.541 32.2731 169.541 30.9364C169.541 29.536 169.795 28.5175 170.367 27.7536C170.875 26.9898 171.637 26.6078 172.653 26.6078C173.289 26.6078 173.733 26.7351 174.178 26.9898C174.559 27.2444 174.877 27.6263 175.131 28.0082C175.385 28.3902 175.512 28.8994 175.639 29.4087C175.703 29.9179 175.766 30.4271 175.766 30.9364C175.766 31.4456 175.766 31.9549 175.639 32.4641Z" fill="#231F20"/>
    <path d="M182.436 21.3244L182.372 21.2607H180.467C180.467 21.2607 180.403 21.2607 180.403 21.3244L180.34 21.3881V36.7289C180.34 36.7289 180.34 36.7926 180.403 36.7926L180.467 36.8562H182.372C182.372 36.8562 182.436 36.8562 182.436 36.7926L182.499 36.7289V21.3881C182.499 21.3881 182.499 21.3244 182.436 21.3244Z" fill="#231F20"/>
    <path d="M129.964 21.1335L129.9 20.8152L126.153 22.4702C125.963 22.5975 125.836 22.7885 125.899 23.0431C125.963 23.2341 126.153 23.3614 126.344 23.3614C126.407 23.3614 126.407 23.3614 126.471 23.3614L130.472 22.5339L130.408 22.2156L129.964 21.1335Z" fill="#231F20"/>
  </g>
  <defs>
    <clipPath id="clip0_124_287">
      <rect width="182" height="62" fill="white" transform="translate(0.5)"/>
    </clipPath>
  </defs>
</svg>