<svg width="22" height="19" viewBox="0 0 22 19" fill="none" xmlns="http://www.w3.org/2000/svg">
<path d="M10.6664 16.3984V10.3984M18.3464 16.7584C17.286 16.7584 16.4264 17.618 16.4264 18.6784C16.4264 19.7388 17.286 20.5984 18.3464 20.5984C19.4068 20.5984 20.2664 19.7388 20.2664 18.6784C20.2664 17.618 19.4068 16.7584 18.3464 16.7584ZM18.3464 16.7584L18.3464 11.2384C18.3464 10.7082 17.9166 10.2784 17.3864 10.2784H3.94641C3.41621 10.2784 2.98641 10.7082 2.98641 11.2384L2.98641 16.7584M2.98641 16.7584C1.92602 16.7584 1.06641 17.618 1.06641 18.6784C1.06641 19.7388 1.92602 20.5984 2.98641 20.5984C4.04679 20.5984 4.90641 19.7388 4.90641 18.6784C4.90641 17.618 4.04679 16.7584 2.98641 16.7584ZM10.6664 20.5984C9.60602 20.5984 8.7464 19.7388 8.7464 18.6784C8.7464 17.618 9.60602 16.7584 10.6664 16.7584C11.7268 16.7584 12.5864 17.618 12.5864 18.6784C12.5864 19.7388 11.7268 20.5984 10.6664 20.5984ZM4.66641 6.19844H16.6664C17.3291 6.19844 17.8664 5.66118 17.8664 4.99844V2.59844C17.8664 1.9357 17.3291 1.39844 16.6664 1.39844H4.66641C4.00366 1.39844 3.46641 1.9357 3.46641 2.59844V4.99844C3.46641 5.66118 4.00366 6.19844 4.66641 6.19844Z" stroke="white" stroke-width="2" stroke-linecap="round"/>
</svg>
