<svg width="20" height="22" viewBox="0 0 20 22" fill="none" xmlns="http://www.w3.org/2000/svg">
<path d="M4.84054 20.6155L4.34054 19.7495H4.34054L4.84054 20.6155ZM3.99289 19.9781L3.00054 19.8547H3.00054L3.99289 19.9781ZM3.32189 16.4128L2.44977 16.9022L2.45586 16.9128L3.32189 16.4128ZM2.30889 14.6078L3.18101 14.1184L3.17492 14.1078L2.30889 14.6078ZM18.249 12.8741L18.749 13.7401L18.249 12.8741ZM18.1339 11.833L18.5415 10.9199L18.5415 10.9199L18.1339 11.833ZM15.4126 9.43224L14.5401 9.92113L14.5465 9.93224L15.4126 9.43224ZM14.4509 7.71606L15.3233 7.22716L15.3169 7.21606L14.4509 7.71606ZM4.82875 5.11328L4.32875 4.24725L4.82875 5.11328ZM11.1853 20.5314L11.6853 21.3974L11.1853 20.5314ZM4.98524 20.1016C5.12852 18.9497 5.04169 17.3916 4.18791 15.9128L2.45586 16.9128C3.03042 17.908 3.10755 18.9944 3.00054 19.8547L4.98524 20.1016ZM4.19394 15.9234L3.18095 14.1184L1.43684 15.0972L2.44984 16.9022L4.19394 15.9234ZM18.5415 10.9199C17.7628 10.5722 16.8641 9.94636 16.2786 8.93224L14.5465 9.93224C15.3992 11.4091 16.6799 12.279 17.7262 12.7461L18.5415 10.9199ZM16.2849 8.94338L15.3232 7.2272L13.5785 8.20491L14.5402 9.92109L16.2849 8.94338ZM15.3169 7.21606C13.092 3.36246 8.17408 2.02715 4.32875 4.24725L5.32875 5.9793C8.20974 4.31596 11.9077 5.31126 13.5848 8.21606L15.3169 7.21606ZM18.749 13.7401C19.3904 13.3698 19.5295 12.6867 19.4714 12.2163C19.4135 11.7474 19.1337 11.1842 18.5415 10.9199L17.7262 12.7461C17.5281 12.6577 17.4922 12.5075 17.4865 12.4614C17.4806 12.4138 17.4802 12.1633 17.749 12.0081L18.749 13.7401ZM3.17492 14.1078C1.52616 11.2521 2.49659 7.61445 5.32875 5.9793L4.32875 4.24725C0.532242 6.43917 -0.753687 11.3033 1.44287 15.1078L3.17492 14.1078ZM4.34054 19.7495C4.61545 19.5907 4.83343 19.7243 4.86604 19.7495C4.89802 19.7741 5.01268 19.881 4.98524 20.1016L3.00054 19.8547C2.91917 20.5088 3.26904 21.0433 3.64401 21.3327C4.01962 21.6226 4.68839 21.858 5.34054 21.4815L4.34054 19.7495ZM17.749 12.0081L4.34054 19.7495L5.34054 21.4815L18.749 13.7401L17.749 12.0081ZM11.6327 16.694C12.1826 17.6464 11.8418 18.9976 10.6853 19.6653L11.6853 21.3974C13.6914 20.2392 14.5267 17.7066 13.3648 15.694L11.6327 16.694ZM10.6853 19.6653C9.52881 20.3331 8.18823 19.9526 7.63837 19.0002L5.90632 20.0002C7.06828 22.0127 9.67921 22.5556 11.6853 21.3974L10.6853 19.6653ZM4.76948 2.60242C5.10199 3.17833 4.90466 3.91475 4.32875 4.24725L5.32875 5.9793C6.86125 5.09451 7.38632 3.13492 6.50153 1.60242L4.76948 2.60242ZM4.32875 4.24725C3.75284 4.57975 3.01642 4.38243 2.68392 3.80652L0.951871 4.80652C1.83666 6.33902 3.79626 6.86409 5.32875 5.9793L4.32875 4.24725ZM2.68392 3.80652C2.35142 3.23061 2.54874 2.49419 3.12465 2.16169L2.12465 0.429636C0.592155 1.31442 0.0670836 3.27402 0.951871 4.80652L2.68392 3.80652ZM3.12465 2.16169C3.70056 1.82918 4.43698 2.02651 4.76948 2.60242L6.50153 1.60242C5.61675 0.0699207 3.65715 -0.455152 2.12465 0.429636L3.12465 2.16169Z" fill="#FF4713"/>
</svg>
