<svg width="22" height="22" viewBox="0 0 22 22" fill="none" xmlns="http://www.w3.org/2000/svg">
<path d="M6.30078 18.5998V14H8.11283C8.94915 14 9.22793 14.6969 9.22793 15.2545C9.22793 15.6727 9.08854 16.0908 8.80977 16.3696C8.53099 16.6484 8.11283 16.6484 7.83405 16.6484H7.2765V18.5998H6.30078ZM7.2765 15.9514H7.69466C8.11283 15.9514 8.25221 15.812 8.25221 15.2545C8.25221 14.6969 8.11283 14.6969 7.55527 14.6969H7.2765V15.9514Z" fill="#F97316"/>
<path d="M9.78516 18.5998V14H11.5972C11.7366 14 12.1548 14.1394 12.4335 14.5576C12.5729 14.8363 12.7123 15.3939 12.7123 16.0908C12.7123 16.9271 12.7123 18.0423 12.0154 18.4604C11.876 18.5998 11.5972 18.5998 11.3184 18.5998H9.78516ZM11.0396 17.9029C11.7366 17.9029 11.876 17.4847 11.876 16.2302C11.876 15.1151 11.7366 14.6969 11.3184 14.6969H10.6215V17.9029H11.0396Z" fill="#F97316"/>
<path d="M13.5508 18.5998V14H15.9204V14.6969H14.3871V15.812H15.9204V16.509H14.3871V18.5998H13.5508Z" fill="#F97316"/>
<path d="M17.3073 21H4.28238C2.55619 21 1.30078 19.9054 1.30078 18.6892V14.3108C1.30078 12.973 2.71312 12 4.28238 12H17.3073C19.0334 12 20.2889 13.0946 20.2889 14.3108V18.6892C20.4458 20.027 19.0334 21 17.3073 21Z" stroke="#F97316" stroke-width="2" stroke-miterlimit="10" stroke-linecap="round"/>
<path d="M20.5016 18.5029V2.75312C20.5016 2.05312 19.9016 1.45312 19.2016 1.45312H8.00156C7.20156 1.45313 6.60156 2.05312 6.60156 2.75312V12.0029" stroke="#F97316" stroke-width="2" stroke-miterlimit="10" stroke-linecap="round"/>
<path d="M9.44922 5.25H17.4492" stroke="#F97316" stroke-width="2" stroke-miterlimit="10" stroke-linecap="round"/>
<path d="M9.44922 9.25H17.4492" stroke="#F97316" stroke-width="2" stroke-miterlimit="10" stroke-linecap="round"/>
</svg>
