<svg width="21" height="22" viewBox="0 0 21 22" fill="none" xmlns="http://www.w3.org/2000/svg">
<path d="M10.2008 20.5984H4.20077C2.87529 20.5984 1.80077 19.5239 1.80078 18.1984L1.80087 3.79842C1.80088 2.47295 2.8754 1.39844 4.20087 1.39844H15.0011C16.3266 1.39844 17.4011 2.47295 17.4011 3.79844V8.59844M6.00116 6.19844H13.2012M6.00116 9.79844H13.2012M13.2012 14.5524V17.4968C13.2012 18.9517 14.7526 20.2862 16.2075 20.2862C17.6625 20.2862 19.2012 18.9517 19.2012 17.4968V13.7776C19.2012 13.0073 18.7583 12.2256 17.7733 12.2256C16.7195 12.2256 16.2075 13.0073 16.2075 13.7776V17.3418M6.00116 13.3984H9.60116" stroke="#595959" stroke-width="2" stroke-linecap="round" stroke-linejoin="round"/>
</svg>
