<svg width="41" height="41" viewBox="0 0 41 41" fill="none" xmlns="http://www.w3.org/2000/svg">
<path d="M0.5 20.5C0.5 9.45431 9.45431 0.5 20.5 0.5C31.5457 0.5 40.5 9.45431 40.5 20.5C40.5 31.5457 31.5457 40.5 20.5 40.5C9.45431 40.5 0.5 31.5457 0.5 20.5Z" fill="#FED7AA"/>
<g clip-path="url(#clip0_6304_49168)">
<path d="M20.78 8.49849C20.9965 8.60103 21.0948 8.70952 21.2019 8.92036C21.2188 9.04286 21.2188 9.04286 21.2179 9.17503C21.2178 9.22475 21.2178 9.27447 21.2178 9.3257C21.2171 9.37883 21.2164 9.43197 21.2156 9.48671C21.2154 9.54152 21.2152 9.59633 21.215 9.6528C21.2142 9.82761 21.2125 10.0024 21.2107 10.1772C21.21 10.2958 21.2093 10.4144 21.2088 10.5331C21.2072 10.8236 21.2049 11.1142 21.2019 11.4047C21.2405 11.414 21.2791 11.4233 21.3189 11.4328C21.3696 11.4452 21.4202 11.4575 21.4724 11.4702C21.5226 11.4824 21.5729 11.4946 21.6246 11.5071C21.7908 11.5526 21.9195 11.613 22.0691 11.6977C22.2343 11.8002 22.2343 11.8002 22.4189 11.815C22.5294 11.7742 22.5827 11.7276 22.6646 11.6433C22.6928 11.6146 22.7209 11.586 22.75 11.5565C22.7799 11.5254 22.8098 11.4943 22.8407 11.4622C22.8877 11.4145 22.8877 11.4145 22.9356 11.3657C23.0695 11.2295 23.2026 11.0925 23.3358 10.9555C23.4331 10.8556 23.5309 10.7561 23.6288 10.6566C23.6585 10.6257 23.6883 10.5947 23.7189 10.5629C23.9111 10.3676 24.0895 10.2129 24.3689 10.1657C24.6336 10.1652 24.7943 10.1885 24.9988 10.3735C25.1818 10.5757 25.2078 10.7367 25.2112 10.9988C25.143 11.34 24.9031 11.5642 24.6609 11.7949C24.5951 11.8592 24.5293 11.9235 24.4635 11.9878C24.3601 12.088 24.2565 12.188 24.1526 12.2878C24.052 12.3847 23.9522 12.4824 23.8523 12.5801C23.8209 12.6099 23.7895 12.6397 23.7571 12.6704C23.7286 12.6984 23.7001 12.7264 23.6707 12.7553C23.6454 12.7797 23.62 12.8041 23.5939 12.8292C23.5352 12.9033 23.5352 12.9033 23.5573 12.9994C23.6265 13.1819 23.7179 13.3545 23.8047 13.5291C23.8626 13.6736 23.8961 13.7954 23.925 13.9468C23.9371 14.0097 23.9371 14.0097 23.9494 14.0739C23.9554 14.1057 23.9614 14.1376 23.9675 14.1704C23.9974 14.1699 24.0273 14.1695 24.0582 14.1691C24.3699 14.1649 24.6817 14.1621 24.9935 14.1601C25.1098 14.1591 25.2261 14.1578 25.3424 14.1562C25.5097 14.1539 25.677 14.1529 25.8443 14.1521C25.8962 14.1511 25.9481 14.1501 26.0015 14.1491C26.2918 14.149 26.4667 14.1609 26.6863 14.3579C26.8764 14.6027 26.8632 14.8572 26.8269 15.1547C26.7243 15.3713 26.6158 15.4693 26.405 15.5766C26.2843 15.5935 26.2843 15.5935 26.1547 15.5926C26.0815 15.5926 26.0815 15.5926 26.0068 15.5925C25.9287 15.5915 25.9287 15.5915 25.8489 15.5903C25.7683 15.59 25.7683 15.59 25.686 15.5897C25.5145 15.589 25.3431 15.5872 25.1716 15.5854C25.0553 15.5847 24.9389 15.5841 24.8225 15.5835C24.5375 15.5819 24.2525 15.5796 23.9675 15.5766C23.9585 15.6147 23.9494 15.6528 23.9401 15.692C23.9279 15.7423 23.9157 15.7925 23.9031 15.8443C23.8911 15.894 23.8792 15.9437 23.8668 15.9948C23.8121 16.1925 23.7299 16.3662 23.6335 16.5463C23.6167 16.5792 23.5998 16.612 23.5824 16.6459C23.4614 16.8797 23.4614 16.8797 23.405 16.936C23.435 16.9361 23.4649 16.9361 23.4957 16.9362C24.2246 16.9379 24.9535 16.9407 25.6823 16.9446C26.0348 16.9465 26.3873 16.948 26.7398 16.9487C27.047 16.9493 27.3543 16.9506 27.6616 16.9526C27.8242 16.9537 27.9869 16.9544 28.1495 16.9544C28.3312 16.9543 28.5129 16.9557 28.6946 16.9573C28.7484 16.957 28.8021 16.9568 28.8576 16.9566C29.1392 16.9603 29.3304 16.9684 29.5456 17.1704C29.6845 17.3675 29.7439 17.5712 29.8079 17.8003C29.8192 17.8401 29.8306 17.8798 29.8423 17.9207C29.8803 18.0537 29.9178 18.1867 29.9554 18.3198C29.9825 18.4152 30.0097 18.5106 30.0369 18.606C30.1107 18.865 30.1841 19.1241 30.2574 19.3832C30.3342 19.6542 30.4113 19.925 30.4884 20.1959C30.6344 20.7089 30.78 21.2221 30.9255 21.7353C31.1072 22.3762 31.2894 23.017 31.4715 23.6578C31.5352 23.8817 31.5988 24.1056 31.6625 24.3295C31.6779 24.3837 31.6933 24.4379 31.7092 24.4937C31.8157 24.8686 31.9221 25.2436 32.0285 25.6185C32.0706 25.767 32.1128 25.9154 32.1549 26.0638C32.1813 26.157 32.2078 26.2503 32.2342 26.3435C32.2702 26.4704 32.3062 26.5973 32.3422 26.7242C32.3527 26.7613 32.3633 26.7985 32.3741 26.8368C32.4134 26.975 32.4533 27.1122 32.4988 27.2485C32.5218 27.5107 32.5336 27.7373 32.4197 27.978C32.2579 28.1484 32.1437 28.2261 31.906 28.2502C31.8385 28.2508 31.771 28.2506 31.7035 28.2498C31.6661 28.2499 31.6288 28.25 31.5903 28.2501C31.4654 28.2504 31.3405 28.2496 31.2155 28.2488C31.1259 28.2488 31.0363 28.2488 30.9466 28.2489C30.7034 28.2489 30.4601 28.2481 30.2168 28.2471C29.9626 28.2462 29.7083 28.2462 29.4541 28.246C28.9727 28.2456 28.4912 28.2444 28.0098 28.243C27.4617 28.2414 26.9136 28.2406 26.3655 28.2399C25.2381 28.2385 24.1106 28.236 22.9831 28.2329C22.9896 28.2774 22.996 28.3219 23.0027 28.3678C23.0153 28.4558 23.0153 28.4558 23.0283 28.5456C23.0367 28.6036 23.045 28.6617 23.0537 28.7215C23.0833 28.9352 23.1065 29.149 23.1271 29.3637C23.1311 29.4048 23.1351 29.4458 23.1393 29.4882C23.1476 29.5735 23.1559 29.6589 23.1641 29.7443C23.1766 29.8746 23.1894 30.0049 23.2023 30.1351C23.2105 30.2188 23.2186 30.3025 23.2267 30.3862C23.2305 30.4247 23.2343 30.4632 23.2382 30.5029C23.2569 30.7003 23.2685 30.8937 23.2644 31.0922C23.3155 31.0913 23.3665 31.0903 23.4191 31.0893C23.6094 31.0859 23.7997 31.0837 23.9899 31.0819C24.0721 31.081 24.1544 31.0797 24.2365 31.0781C24.355 31.0758 24.4734 31.0748 24.5919 31.0739C24.6284 31.073 24.6649 31.072 24.7025 31.071C24.9481 31.0709 25.0845 31.1183 25.28 31.2797C25.4702 31.5245 25.4569 31.7791 25.4206 32.0766C25.3186 32.292 25.2114 32.396 24.9988 32.4985C24.8724 32.5119 24.757 32.5177 24.6308 32.5167C24.594 32.5169 24.5573 32.5172 24.5194 32.5174C24.3964 32.5181 24.2734 32.5178 24.1504 32.5174C24.0622 32.5177 23.974 32.518 23.8857 32.5184C23.6461 32.5192 23.4065 32.5192 23.1669 32.5189C22.9669 32.5188 22.7669 32.5191 22.5669 32.5193C22.095 32.52 21.6232 32.5199 21.1513 32.5194C20.6645 32.5189 20.1777 32.5195 19.6909 32.5208C19.2729 32.5218 18.855 32.5221 18.437 32.5218C18.1874 32.5217 17.9377 32.5218 17.6881 32.5226C17.4534 32.5233 17.2186 32.5232 16.9839 32.5223C16.8978 32.5221 16.8116 32.5222 16.7255 32.5227C16.6079 32.5234 16.4903 32.5228 16.3727 32.522C16.3386 32.5224 16.3046 32.5229 16.2695 32.5233C16.0332 32.5199 15.9 32.4586 15.7175 32.311C15.5274 32.0662 15.5406 31.8116 15.5769 31.5141C15.6787 31.2991 15.7854 31.193 15.9988 31.0922C16.1365 31.0804 16.2637 31.0758 16.401 31.0785C16.4392 31.0787 16.4774 31.0789 16.5167 31.0791C16.638 31.0799 16.7593 31.0817 16.8806 31.0835C16.9631 31.0842 17.0456 31.0848 17.1281 31.0854C17.3298 31.0869 17.5315 31.0893 17.7331 31.0922C17.7366 31.0284 17.7366 31.0284 17.7401 30.9632C17.7689 30.4658 17.8121 29.9706 17.8611 29.4748C17.8739 29.3444 17.8865 29.2139 17.899 29.0834C17.9072 28.9998 17.9154 28.9163 17.9236 28.8327C17.9273 28.794 17.931 28.7553 17.9348 28.7154C17.9513 28.5506 17.9714 28.3928 18.0144 28.2329C17.9678 28.233 17.9212 28.2332 17.8732 28.2334C16.7394 28.2375 15.6057 28.2406 14.4719 28.2426C13.9237 28.2435 13.3754 28.2449 12.8271 28.247C12.3493 28.2489 11.8715 28.2501 11.3936 28.2505C11.1406 28.2508 10.8875 28.2513 10.6345 28.2527C10.3963 28.254 10.1582 28.2544 9.92004 28.2541C9.83263 28.2541 9.74521 28.2545 9.6578 28.2552C9.53841 28.2561 9.41908 28.2559 9.2997 28.2554C9.26513 28.256 9.23057 28.2565 9.19496 28.2571C8.95645 28.2543 8.82042 28.1994 8.63939 28.0454C8.44677 27.7909 8.46315 27.5557 8.49877 27.2485C8.56253 26.9286 8.65896 26.6163 8.75041 26.3034C8.77749 26.2088 8.80451 26.1141 8.83147 26.0194C8.9045 25.7635 8.97846 25.5079 9.0526 25.2524C9.13018 24.9844 9.20694 24.7162 9.28381 24.4481C9.41293 23.9981 9.54259 23.5482 9.67264 23.0985C9.83947 22.5216 10.0054 21.9444 10.1711 21.3671C10.3137 20.8701 10.4567 20.3732 10.5997 19.8764C10.6456 19.7169 10.6915 19.5575 10.7373 19.398C10.8094 19.1475 10.8817 18.897 10.9542 18.6465C10.9808 18.5547 11.0072 18.4628 11.0336 18.3709C11.0697 18.2454 11.1061 18.1199 11.1425 17.9945C11.1528 17.9583 11.1632 17.922 11.1739 17.8847C11.2725 17.547 11.3657 17.2684 11.6394 17.0297C11.7563 16.9713 11.836 16.9764 11.9669 16.9754C12.041 16.9748 12.041 16.9748 12.1166 16.9741C12.1983 16.9737 12.1983 16.9737 12.2817 16.9732C12.3388 16.9728 12.396 16.9723 12.4549 16.9718C12.6119 16.9706 12.7688 16.9696 12.9258 16.9686C13.0898 16.9676 13.2538 16.9663 13.4177 16.9651C13.7283 16.9627 14.0389 16.9606 14.3496 16.9586C14.7031 16.9563 15.0567 16.9537 15.4103 16.9511C16.1377 16.9458 16.8651 16.9408 17.5925 16.936C17.5668 16.8926 17.5411 16.8491 17.5146 16.8044C17.4805 16.746 17.4464 16.6875 17.4123 16.6291C17.3954 16.6007 17.3785 16.5722 17.3611 16.5429C17.1961 16.2584 17.03 15.9107 17.03 15.5766C17.0001 15.577 16.9702 15.5774 16.9394 15.5779C16.6276 15.582 16.3158 15.5849 16.0041 15.5869C15.8877 15.5879 15.7714 15.5891 15.6551 15.5908C15.4878 15.593 15.3205 15.5941 15.1532 15.5949C15.1013 15.5959 15.0495 15.5969 14.996 15.5979C14.7057 15.5979 14.5308 15.5861 14.3113 15.3891C14.1211 15.1443 14.1344 14.8897 14.1706 14.5922C14.2732 14.3757 14.3817 14.2777 14.5925 14.1704C14.7132 14.1535 14.7132 14.1535 14.8429 14.1544C14.9161 14.1544 14.9161 14.1544 14.9907 14.1544C15.0428 14.1552 15.0949 14.1559 15.1486 14.1566C15.2293 14.1569 15.2293 14.1569 15.3116 14.1572C15.483 14.158 15.6545 14.1598 15.8259 14.1616C15.9423 14.1623 16.0586 14.1629 16.175 14.1635C16.46 14.165 16.745 14.1674 17.03 14.1704C17.0358 14.1386 17.0416 14.1069 17.0476 14.0742C17.0556 14.0324 17.0635 13.9905 17.0717 13.9474C17.0833 13.8853 17.0833 13.8853 17.0952 13.822C17.1434 13.6189 17.2414 13.4534 17.344 13.2722C17.4299 13.1208 17.4299 13.1208 17.441 12.9519C17.3993 12.843 17.352 12.7887 17.2685 12.7076C17.2399 12.6795 17.2113 12.6513 17.1818 12.6223C17.1351 12.5774 17.1351 12.5774 17.0875 12.5316C17.0557 12.5002 17.0238 12.4689 16.991 12.4367C16.8548 12.3027 16.7177 12.1697 16.5808 12.0365C16.4808 11.9391 16.3813 11.8413 16.2818 11.7435C16.2509 11.7137 16.22 11.684 16.1882 11.6533C15.9929 11.4612 15.8382 11.2828 15.7909 11.0034C15.7905 10.7386 15.8138 10.5779 15.9988 10.3735C16.201 10.1905 16.362 10.1645 16.6241 10.1611C16.9653 10.2292 17.1895 10.4692 17.4202 10.7113C17.4845 10.7772 17.5488 10.843 17.6131 10.9088C17.7133 11.0122 17.8133 11.1158 17.9131 11.2196C18.01 11.3202 18.1076 11.4201 18.2054 11.5199C18.2352 11.5514 18.2649 11.5828 18.2956 11.6152C18.3237 11.6437 18.3517 11.6722 18.3805 11.7015C18.405 11.7269 18.4294 11.7522 18.4545 11.7783C18.5286 11.837 18.5286 11.837 18.6247 11.8149C18.8072 11.7458 18.9798 11.6544 19.1544 11.5675C19.2989 11.5097 19.4207 11.4761 19.572 11.4473C19.635 11.4352 19.635 11.4352 19.6992 11.4228C19.731 11.4169 19.7628 11.4109 19.7956 11.4047C19.7952 11.3742 19.7948 11.3437 19.7944 11.3123C19.7902 10.9945 19.7874 10.6766 19.7853 10.3587C19.7844 10.2402 19.7831 10.1216 19.7815 10.003C19.7792 9.83244 19.7782 9.66188 19.7773 9.49129C19.7759 9.41195 19.7759 9.41195 19.7744 9.33101C19.7743 9.03862 19.7839 8.85987 19.9831 8.63911C20.228 8.44897 20.4825 8.46221 20.78 8.49849ZM18.812 13.6205C18.4359 14.13 18.386 14.6823 18.4363 15.2954C18.5536 15.8637 18.914 16.3154 19.3738 16.6547C19.9037 16.9496 20.4803 17.0269 21.0759 16.9039C21.6146 16.7195 22.0781 16.3615 22.3569 15.8602C22.5976 15.3421 22.6737 14.7183 22.4851 14.1674C22.2263 13.5788 21.8195 13.1494 21.2228 12.8989C20.3167 12.5747 19.4188 12.9193 18.812 13.6205ZM12.5769 18.3891C12.4051 18.8473 12.2838 19.3232 12.155 19.7954C13.145 19.7954 14.135 19.7954 15.155 19.7954C15.263 19.1571 15.263 19.1571 15.2956 18.3891C14.3985 18.3891 13.5013 18.3891 12.5769 18.3891ZM16.7488 18.436C16.7024 18.8846 16.656 19.3332 16.6081 19.7954C17.66 19.7954 18.7119 19.7954 19.7956 19.7954C19.7956 19.3313 19.7956 18.8672 19.7956 18.3891C19.2636 18.3878 19.2636 18.3878 18.7315 18.3868C18.5147 18.3865 18.2978 18.3862 18.0809 18.3856C17.9062 18.3851 17.7314 18.3848 17.5566 18.3847C17.4898 18.3846 17.423 18.3844 17.3562 18.3842C17.2629 18.3838 17.1696 18.3838 17.0764 18.3838C16.9966 18.3836 16.9966 18.3836 16.9152 18.3835C16.7987 18.3755 16.7987 18.3755 16.7488 18.436ZM21.2019 18.3891C21.2019 18.8532 21.2019 19.3172 21.2019 19.7954C22.2538 19.7954 23.3056 19.7954 24.3894 19.7954C24.4385 19.0242 24.4385 19.0242 24.2019 18.3891C24.1084 18.3847 24.0148 18.3836 23.9212 18.3838C23.8311 18.3838 23.8311 18.3838 23.7392 18.3838C23.6731 18.384 23.6071 18.3843 23.5411 18.3845C23.4739 18.3846 23.4067 18.3847 23.3395 18.3847C23.1623 18.3849 22.9852 18.3854 22.808 18.3859C22.5956 18.3865 22.3832 18.3867 22.1708 18.3869C21.8478 18.3874 21.5249 18.3883 21.2019 18.3891ZM25.7019 18.3891C25.7074 18.5093 25.7133 18.6294 25.7195 18.7495C25.7209 18.7824 25.7224 18.8153 25.7239 18.8492C25.7411 19.1725 25.7924 19.4698 25.8425 19.7954C26.8325 19.7954 27.8225 19.7954 28.8425 19.7954C28.7395 19.0294 28.7395 19.0294 28.4206 18.3891C28.3358 18.3847 28.2507 18.3836 28.1657 18.3838C28.1113 18.3838 28.0569 18.3838 28.0008 18.3838C27.9416 18.384 27.8824 18.3843 27.8213 18.3845C27.7309 18.3846 27.7309 18.3846 27.6387 18.3847C27.4782 18.3849 27.3176 18.3854 27.1571 18.3859C26.9934 18.3864 26.8297 18.3866 26.666 18.3868C26.3447 18.3873 26.0233 18.3881 25.7019 18.3891ZM11.78 21.2016C11.6721 21.4836 11.6721 21.4836 11.5804 21.7683C11.571 21.8008 11.5616 21.8333 11.552 21.8668C11.5425 21.9005 11.5329 21.9341 11.5231 21.9688C11.5129 22.0045 11.5027 22.0402 11.4922 22.0769C11.4709 22.1515 11.4497 22.2261 11.4285 22.3007C11.396 22.4152 11.3632 22.5297 11.3304 22.6441C11.3097 22.7169 11.2889 22.7896 11.2682 22.8624C11.2584 22.8966 11.2486 22.9308 11.2385 22.9661C11.1881 23.1359 11.1881 23.1359 11.1706 23.311C12.3617 23.311 13.5528 23.311 14.78 23.311C14.896 22.2668 14.896 22.2668 15.0144 21.2016C13.947 21.2016 12.8797 21.2016 11.78 21.2016ZM16.4675 21.2016C16.3941 21.67 16.3941 21.67 16.3338 22.1391C16.3278 22.1932 16.3218 22.2473 16.3155 22.303C16.3096 22.3572 16.3037 22.4114 16.2976 22.4672C16.2913 22.5229 16.285 22.5785 16.2786 22.6359C16.2726 22.6895 16.2667 22.7431 16.2606 22.7983C16.2553 22.8462 16.25 22.8941 16.2446 22.9435C16.2341 23.0656 16.2331 23.1884 16.2331 23.311C17.4088 23.311 18.5844 23.311 19.7956 23.311C19.7956 22.6149 19.7956 21.9188 19.7956 21.2016C18.6974 21.2016 17.5991 21.2016 16.4675 21.2016ZM21.2019 21.2016C21.2019 21.8977 21.2019 22.5938 21.2019 23.311C22.3775 23.311 23.5531 23.311 24.7644 23.311C24.7305 22.8146 24.7305 22.8146 24.6838 22.3204C24.6778 22.2662 24.6719 22.2121 24.6657 22.1563C24.6596 22.1023 24.6535 22.0483 24.6472 21.9926C24.6411 21.9368 24.635 21.881 24.6287 21.8234C24.6227 21.7699 24.6167 21.7164 24.6106 21.6612C24.6052 21.6133 24.5999 21.5655 24.5944 21.5162C24.5777 21.3779 24.5777 21.3779 24.53 21.2016C23.4317 21.2016 22.3335 21.2016 21.2019 21.2016ZM25.9831 21.2016C26.0605 21.8977 26.1378 22.5938 26.2175 23.311C27.4086 23.311 28.5997 23.311 29.8269 23.311C29.7053 22.8248 29.5813 22.3421 29.4431 21.8608C29.4265 21.802 29.4098 21.7431 29.3927 21.6825C29.3767 21.6269 29.3608 21.5712 29.3444 21.5138C29.3301 21.4638 29.3159 21.4139 29.3012 21.3624C29.2751 21.2521 29.2751 21.2521 29.2175 21.2016C29.1169 21.1972 29.016 21.1961 28.9153 21.1963C28.8837 21.1963 28.8522 21.1963 28.8197 21.1963C28.7149 21.1963 28.6102 21.1967 28.5054 21.197C28.433 21.1971 28.3605 21.1972 28.2881 21.1972C28.097 21.1974 27.906 21.1979 27.715 21.1984C27.4859 21.199 27.2569 21.1992 27.0279 21.1994C26.6796 21.1999 26.3314 21.2008 25.9831 21.2016ZM10.7488 24.7172C10.656 25.0305 10.5631 25.3437 10.4675 25.6665C10.4381 25.7651 10.4088 25.8637 10.3785 25.9653C10.3554 26.0437 10.3324 26.122 10.3093 26.2004C10.2911 26.2612 10.2911 26.2612 10.2725 26.3232C10.2611 26.3622 10.2497 26.4012 10.2379 26.4414C10.2279 26.4751 10.2179 26.5089 10.2076 26.5436C10.1794 26.6533 10.1794 26.6533 10.1863 26.8266C10.7294 26.8277 11.2725 26.8285 11.8157 26.829C12.0678 26.8293 12.32 26.8296 12.5722 26.8302C12.8153 26.8307 13.0585 26.8309 13.3016 26.8311C13.3946 26.8311 13.4876 26.8313 13.5806 26.8316C13.7103 26.8319 13.8401 26.832 13.9699 26.8319C14.0087 26.8321 14.0475 26.8323 14.0876 26.8324C14.2604 26.8487 14.2604 26.8487 14.405 26.7797C14.4226 26.6595 14.4375 26.54 14.4506 26.4192C14.4568 26.3645 14.4568 26.3645 14.463 26.3086C14.4717 26.231 14.4802 26.1534 14.4887 26.0758C14.5015 25.9581 14.5148 25.8404 14.5282 25.7228C14.5365 25.6473 14.5448 25.5718 14.5531 25.4964C14.5591 25.4441 14.5591 25.4441 14.5651 25.3908C14.5705 25.3404 14.5705 25.3404 14.576 25.289C14.5808 25.2455 14.5808 25.2455 14.5857 25.2011C14.5958 25.0401 14.5925 24.8785 14.5925 24.7172C13.3241 24.7172 12.0556 24.7172 10.7488 24.7172ZM16.0456 24.7641C16.0281 24.8844 16.0132 25.0039 16 25.1246C15.996 25.1611 15.9919 25.1976 15.9876 25.2353C15.979 25.3128 15.9704 25.3904 15.962 25.468C15.9491 25.5858 15.9358 25.7034 15.9225 25.8211C15.9141 25.8966 15.9058 25.972 15.8975 26.0475C15.8936 26.0823 15.8896 26.1172 15.8855 26.153C15.8819 26.1866 15.8783 26.2203 15.8746 26.2549C15.8714 26.2839 15.8682 26.3129 15.8649 26.3428C15.8549 26.5038 15.8581 26.6653 15.8581 26.8266C17.1575 26.8266 18.4569 26.8266 19.7956 26.8266C19.7956 26.1305 19.7956 25.4344 19.7956 24.7172C19.1386 24.7159 19.1386 24.7159 18.4816 24.715C18.2138 24.7147 17.946 24.7143 17.6782 24.7137C17.4624 24.7132 17.2466 24.7129 17.0308 24.7128C16.9483 24.7127 16.8658 24.7125 16.7833 24.7123C16.6681 24.7119 16.5529 24.7119 16.4378 24.7119C16.4033 24.7117 16.3689 24.7116 16.3334 24.7114C16.1761 24.6978 16.1761 24.6978 16.0456 24.7641ZM21.2019 24.7172C21.2019 25.4133 21.2019 26.1094 21.2019 26.8266C22.5013 26.8266 23.8006 26.8266 25.1394 26.8266C25.1102 26.3309 25.0784 25.8424 25.0222 25.3501C25.0161 25.2937 25.01 25.2373 25.0037 25.1792C24.9977 25.1259 24.9917 25.0725 24.9856 25.0175C24.9802 24.9698 24.9749 24.9221 24.9694 24.873C24.9631 24.7662 24.9631 24.7662 24.905 24.7172C24.7895 24.7128 24.6753 24.7114 24.5598 24.7119C24.5056 24.7119 24.5056 24.7119 24.4503 24.7119C24.3303 24.7119 24.2103 24.7123 24.0904 24.7127C24.0074 24.7127 23.9245 24.7128 23.8415 24.7129C23.6227 24.713 23.4039 24.7135 23.1852 24.714C22.9229 24.7146 22.6606 24.7148 22.3984 24.7151C21.9995 24.7155 21.6007 24.7164 21.2019 24.7172ZM26.405 24.7172C26.4342 25.213 26.466 25.7015 26.5222 26.1938C26.5283 26.2502 26.5344 26.3066 26.5407 26.3646C26.5467 26.418 26.5527 26.4713 26.5588 26.5263C26.5642 26.574 26.5695 26.6217 26.575 26.6709C26.5813 26.7777 26.5813 26.7777 26.6394 26.8266C26.7692 26.8311 26.8978 26.8325 27.0277 26.8319C27.0684 26.8319 27.1091 26.832 27.151 26.832C27.2862 26.8319 27.4214 26.8316 27.5566 26.8312C27.65 26.8311 27.7435 26.831 27.837 26.831C28.0835 26.8308 28.33 26.8304 28.5765 26.8298C28.8279 26.8294 29.0792 26.8291 29.3306 26.8289C29.8241 26.8284 30.3177 26.8276 30.8113 26.8266C30.7084 26.1062 30.4511 25.4162 30.2488 24.7172C28.9803 24.7172 27.7119 24.7172 26.405 24.7172ZM19.4675 28.2329C19.3944 28.8802 19.3225 29.5275 19.2572 30.1757C19.2479 30.2679 19.2385 30.3601 19.2291 30.4523C19.2235 30.5087 19.2179 30.5652 19.2121 30.6233C19.2071 30.6732 19.2021 30.7231 19.1969 30.7744C19.1837 30.9141 19.1837 30.9141 19.1863 31.0922C20.0525 31.0922 20.9188 31.0922 21.8113 31.0922C21.7322 30.1396 21.7322 30.1396 21.6443 29.1879C21.6383 29.1254 21.6324 29.0629 21.6264 29.0004C21.6206 28.9409 21.6149 28.8813 21.6089 28.8199C21.6039 28.7677 21.5988 28.7154 21.5936 28.6616C21.5773 28.518 21.5538 28.3754 21.53 28.2329C20.8494 28.2329 20.1688 28.2329 19.4675 28.2329Z" fill="#F97316"/>
</g>
<defs>
<clipPath id="clip0_6304_49168">
<rect width="24" height="24" fill="white" transform="translate(8.5 8.5)"/>
</clipPath>
</defs>
</svg>
