<svg width="22" height="23" viewBox="0 0 22 23" fill="none" xmlns="http://www.w3.org/2000/svg">
<path d="M20.2171 6.7541C19.7116 5.63115 18.986 4.62295 18.0647 3.7541C17.1434 2.89344 16.0753 2.21311 14.8849 1.7377C13.6538 1.2459 12.3493 1 11.004 1C9.65871 1 8.35419 1.2459 7.12306 1.7377C5.93269 2.21311 4.86462 2.88525 3.94331 3.7541C3.022 4.62295 2.29637 5.63115 1.79088 6.7541C1.26907 7.91803 1 9.16393 1 10.4426C1 12.6803 1.83162 14.8279 3.35627 16.5328L2.54095 21L6.87846 19.0574C8.17482 19.6148 9.55271 19.8934 10.9958 19.8934C12.3411 19.8934 13.6456 19.6475 14.8768 19.1557C16.0671 18.6803 17.1352 18.0082 18.0565 17.1393C18.9778 16.2705 19.7034 15.2623 20.2089 14.1393C20.7307 12.9754 20.9998 11.7295 20.9998 10.4508C21.008 9.16393 20.7389 7.92623 20.2171 6.7541Z" stroke="#EE6A0A" stroke-width="2"/>
<path d="M15.0661 12.3277C14.6422 12.1146 14.3324 11.9834 14.1122 11.9015C13.9736 11.8523 13.6475 11.7047 13.5333 11.7949C13.1746 12.09 12.7914 12.9261 12.3837 13.0818C11.3727 12.8851 10.4351 12.1884 9.70133 11.4752C9.3752 11.1638 8.77187 10.2785 8.64142 10.0408C8.61696 9.79491 9.05721 9.46704 9.15505 9.27852C9.66055 8.70475 9.27737 8.34409 9.21214 8.10639C9.098 7.86048 8.90233 7.41786 8.73111 7.05721C8.58435 6.8195 8.55171 6.46704 8.2908 6.33589C7.18197 5.76212 6.54605 6.90966 6.28515 7.50802C4.71158 11.3195 14.1693 18.5736 16.0934 13.5736C16.1913 13.1392 16.1505 12.9752 16.0037 12.7785C15.7102 12.5736 15.3678 12.4834 15.0661 12.3277Z" fill="#EE6A0A"/>
</svg>
