<svg width="25" height="24" viewBox="0 0 25 24" fill="none" xmlns="http://www.w3.org/2000/svg">
<g clip-path="url(#clip0_6130_69693)">
<path d="M10.0325 20.4729H8.85394L8.18049 19.1196C8.01213 18.9504 8.01213 18.6121 8.01213 18.443C8.01213 18.7813 7.84377 19.1196 7.67541 19.4579L7.33869 20.4729H6.16016L7.50705 17.5972L6.16016 14.8906H7.33869L7.84377 16.0747C8.01213 16.2439 8.01213 16.5822 8.01213 16.7514C8.01213 16.4131 8.18049 16.0747 8.34885 15.7364L8.85394 15.0598H10.0325L8.68558 17.7663L10.0325 20.4729Z" fill="#F97316"/>
<path d="M11.7172 20.4729H10.707V14.8906H12.3906L12.8957 17.428C13.0641 17.7663 13.0641 18.2738 13.0641 18.7813C13.0641 18.2738 13.2325 17.9355 13.2325 17.428L13.7375 14.8906H15.4211V20.4729H14.411V18.7813C14.411 17.5972 14.411 16.5822 14.5793 15.3981L13.4008 20.4729H12.7274L11.7172 15.3981C11.7172 16.5822 11.8856 17.5972 11.8856 18.7813V20.4729H11.7172Z" fill="#F97316"/>
<path d="M16.4297 20.4729V14.8906H17.4399V19.6271H19.2918V20.4729H16.4297Z" fill="#F97316"/>
<path d="M19.7533 22.862H5.00821C3.05403 22.862 1.63281 21.6169 1.63281 20.2336V15.2534C1.63281 13.7317 3.23168 12.625 5.00821 12.625H19.7533C21.7075 12.625 23.1287 13.87 23.1287 15.2534V20.2336C23.3064 21.7553 21.7075 22.862 19.7533 22.862Z" stroke="#F97316" stroke-width="2" stroke-miterlimit="10" stroke-linecap="round"/>
<path d="M23.3687 19.965V2.6193C23.3687 1.82309 22.6894 1.14062 21.897 1.14062H9.21772C8.31206 1.14063 7.63281 1.82309 7.63281 2.6193V11.4913" stroke="#F97316" stroke-width="2" stroke-miterlimit="10" stroke-linecap="round"/>
<path d="M12.9517 4.54688L10.6875 6.82176L12.9517 9.09664" stroke="#F97316" stroke-width="2" stroke-linecap="round"/>
<path d="M18.6148 9.10156L20.8789 6.82668L18.6148 4.5518" stroke="#F97316" stroke-width="2" stroke-linecap="round"/>
</g>
<defs>
<clipPath id="clip0_6130_69693">
<rect width="24" height="24" fill="white" transform="translate(0.5)"/>
</clipPath>
</defs>
</svg>
