<svg width="22" height="22" viewBox="0 0 22 22" fill="none" xmlns="http://www.w3.org/2000/svg">
<g clip-path="url(#clip0_7107_11430)">
<path d="M8.92054 18.4546H7.87951L7.28463 17.2649C7.13591 17.1161 7.13591 16.8187 7.13591 16.67C7.13591 16.9674 6.98719 17.2649 6.83847 17.5623L6.54103 18.4546H5.5L6.68975 15.9264L5.5 13.5469H6.54103L6.98719 14.5879C7.13591 14.7366 7.13591 15.0341 7.13591 15.1828C7.13591 14.8853 7.28463 14.5879 7.43335 14.2905L7.87951 13.6956H8.92054L7.73079 16.0751L8.92054 18.4546Z" fill="#F97316"/>
<path d="M10.4079 18.4546H9.51562V13.5469H11.0028L11.449 15.7777C11.5977 16.0751 11.5977 16.5213 11.5977 16.9674C11.5977 16.5213 11.7464 16.2238 11.7464 15.7777L12.1926 13.5469H13.6798V18.4546H12.7874V16.9674C12.7874 15.9264 12.7874 15.0341 12.9362 13.993L11.8951 18.4546H11.3003L10.4079 13.993C10.4079 15.0341 10.5567 15.9264 10.5567 16.9674V18.4546H10.4079Z" fill="#F97316"/>
<path d="M14.5703 18.4546V13.5469H15.4626V17.711H17.0985V18.4546H14.5703Z" fill="#F97316"/>
<path d="M17.5065 20.5547H4.4816C2.75541 20.5547 1.5 19.4601 1.5 18.2439V13.8655C1.5 12.5277 2.91234 11.5547 4.4816 11.5547H17.5065C19.2327 11.5547 20.4881 12.6493 20.4881 13.8655V18.2439C20.645 19.5817 19.2327 20.5547 17.5065 20.5547Z" stroke="#F97316" stroke-width="2" stroke-miterlimit="10" stroke-linecap="round"/>
<path d="M20.7008 18.0029V2.75312C20.7008 2.05312 20.1008 1.45312 19.4008 1.45312H8.20078C7.40078 1.45313 6.80078 2.05312 6.80078 2.75312V10.5531" stroke="#F97316" stroke-width="2" stroke-miterlimit="10" stroke-linecap="round"/>
<path d="M11.5 4.45312L9.5 6.45312L11.5 8.45312" stroke="#F97316" stroke-width="2" stroke-linecap="round"/>
<path d="M16.5 8.45312L18.5 6.45312L16.5 4.45312" stroke="#F97316" stroke-width="2" stroke-linecap="round"/>
</g>
<defs>
<clipPath id="clip0_7107_11430">
<rect width="21.2" height="21.1" fill="white" transform="translate(0.5 0.453125)"/>
</clipPath>
</defs>
</svg>
